Manrope-SemiBold.ufo
<glyph name="exclam" format="2">
  <advance width="345"/>
  <unicode hex="0021"/>
  <note>
exclam
</note>
  <outline>
    <contour>
      <point x="120" y="0" type="line"/>
      <point x="225" y="0" type="line"/>
      <point x="225" y="101" type="line"/>
      <point x="120" y="101" type="line"/>
    </contour>
    <component base="idotless" xOffset="40" yOffset="180"/>
  </outline>
</glyph>
<glyph name="numbersign" format="2">
  <advance width="928"/>
  <unicode hex="0023"/>
  <note>
numbersign
</note>
  <outline>
    <contour>
      <point x="194" y="1" type="line"/>
      <point x="297" y="1" type="line"/>
      <point x="351" y="203" type="line"/>
      <point x="488" y="203" type="line"/>
      <point x="434" y="1" type="line"/>
      <point x="537" y="1" type="line"/>
      <point x="591" y="203" type="line"/>
      <point x="779" y="203" type="line"/>
      <point x="806" y="302" type="line"/>
      <point x="617" y="302" type="line"/>
      <point x="653" y="434" type="line"/>
      <point x="841" y="434" type="line"/>
      <point x="868" y="533" type="line"/>
      <point x="679" y="533" type="line"/>
      <point x="730" y="720" type="line"/>
      <point x="627" y="720" type="line"/>
      <point x="577" y="533" type="line"/>
      <point x="439" y="533" type="line"/>
      <point x="490" y="720" type="line"/>
      <point x="387" y="720" type="line"/>
      <point x="337" y="533" type="line"/>
      <point x="148" y="533" type="line"/>
      <point x="121" y="434" type="line"/>
      <point x="310" y="434" type="line"/>
      <point x="275" y="302" type="line"/>
      <point x="86" y="302" type="line"/>
      <point x="60" y="203" type="line"/>
      <point x="249" y="203" type="line"/>
    </contour>
    <contour>
      <point x="378" y="302" type="line"/>
      <point x="413" y="434" type="line"/>
      <point x="550" y="434" type="line"/>
      <point x="515" y="302" type="line"/>
    </contour>
  </outline>
</glyph>
<glyph name="dollar" format="2">
  <advance width="591"/>
  <unicode hex="0024"/>
  <note>
dollar
</note>
  <outline>
    <contour>
      <point x="242" y="-99" type="line"/>
      <point x="347" y="-99" type="line"/>
      <point x="347" y="20" type="line"/>
      <point x="242" y="20" type="line"/>
    </contour>
    <contour>
      <point x="242" y="700" type="line"/>
      <point x="347" y="700" type="line"/>
      <point x="347" y="819" type="line"/>
      <point x="242" y="819" type="line"/>
    </contour>
    <contour>
      <point x="300" y="-15" type="curve" smooth="yes"/>
      <point x="437" y="-15"/>
      <point x="561" y="58"/>
      <point x="561" y="205" type="curve" smooth="yes"/>
      <point x="561" y="348"/>
      <point x="443" y="382"/>
      <point x="384" y="400" type="curve" smooth="yes"/>
      <point x="258" y="438" type="line" smooth="yes"/>
      <point x="207" y="453"/>
      <point x="151" y="474"/>
      <point x="151" y="533" type="curve" smooth="yes"/>
      <point x="151" y="596"/>
      <point x="215" y="637"/>
      <point x="290" y="636" type="curve" smooth="yes"/>
      <point x="367" y="634"/>
      <point x="436" y="587"/>
      <point x="450" y="504" type="curve"/>
      <point x="557" y="524" type="line"/>
      <point x="528" y="660"/>
      <point x="425" y="734"/>
      <point x="291" y="734" type="curve" smooth="yes"/>
      <point x="156" y="735"/>
      <point x="47" y="664"/>
      <point x="47" y="528" type="curve" smooth="yes"/>
      <point x="47" y="396"/>
      <point x="150" y="362"/>
      <point x="196" y="348" type="curve" smooth="yes"/>
      <point x="365" y="295" type="line" smooth="yes"/>
      <point x="406" y="283"/>
      <point x="458" y="263"/>
      <point x="458" y="199" type="curve" smooth="yes"/>
      <point x="458" y="123"/>
      <point x="384" y="84"/>
      <point x="305" y="84" type="curve" smooth="yes"/>
      <point x="217" y="84"/>
      <point x="144" y="134"/>
      <point x="123" y="223" type="curve"/>
      <point x="20" y="206" type="line"/>
      <point x="42" y="67"/>
      <point x="154" y="-15"/>
    </contour>
  </outline>
</glyph>
<glyph name="ampersand" format="2">
  <advance width="663"/>
  <unicode hex="0026"/>
  <note>
ampersand
</note>
  <outline>
    <contour>
      <point x="306" y="-15" type="curve" smooth="yes"/>
      <point x="339" y="-15"/>
      <point x="370" y="-12"/>
      <point x="402" y="-2" type="curve" smooth="yes"/>
      <point x="441" y="7"/>
      <point x="481" y="29"/>
      <point x="511" y="60" type="curve"/>
      <point x="584" y="-9" type="line"/>
      <point x="652" y="63" type="line"/>
      <point x="561" y="146" type="line"/>
      <point x="567" y="168"/>
      <point x="570" y="202"/>
      <point x="570" y="244" type="curve" smooth="yes"/>
      <point x="570" y="368" type="line"/>
      <point x="476" y="368" type="line"/>
      <point x="476" y="274" type="line" smooth="yes"/>
      <point x="476" y="259"/>
      <point x="476" y="242"/>
      <point x="475" y="227" type="curve"/>
      <point x="278" y="409" type="line" smooth="yes"/>
      <point x="259" y="426"/>
      <point x="241" y="443"/>
      <point x="228" y="457" type="curve" smooth="yes"/>
      <point x="207" y="481"/>
      <point x="194" y="499"/>
      <point x="194" y="535" type="curve" smooth="yes"/>
      <point x="194" y="576"/>
      <point x="211" y="605"/>
      <point x="246" y="622" type="curve" smooth="yes"/>
      <point x="265" y="631"/>
      <point x="286" y="635"/>
      <point x="309" y="635" type="curve" smooth="yes"/>
      <point x="338" y="635"/>
      <point x="369" y="629"/>
      <point x="391" y="610" type="curve" smooth="yes"/>
      <point x="403" y="600"/>
      <point x="413" y="586"/>
      <point x="419" y="569" type="curve"/>
      <point x="522" y="593" type="line"/>
      <point x="513" y="624"/>
      <point x="495" y="655"/>
      <point x="469" y="678" type="curve" smooth="yes"/>
      <point x="430" y="717"/>
      <point x="371" y="734"/>
      <point x="311" y="734" type="curve" smooth="yes"/>
      <point x="277" y="734"/>
      <point x="241" y="729"/>
      <point x="207" y="716" type="curve" smooth="yes"/>
      <point x="133" y="686"/>
      <point x="87" y="616"/>
      <point x="87" y="536" type="curve" smooth="yes"/>
      <point x="87" y="477"/>
      <point x="110" y="440"/>
      <point x="153" y="393" type="curve"/>
      <point x="133" y="383"/>
      <point x="114" y="369"/>
      <point x="99" y="351" type="curve" smooth="yes"/>
      <point x="65" y="311"/>
      <point x="50" y="258"/>
      <point x="50" y="204" type="curve" smooth="yes"/>
      <point x="52" y="148"/>
      <point x="68" y="99"/>
      <point x="106" y="58" type="curve" smooth="yes"/>
      <point x="153" y="8"/>
      <point x="226" y="-15"/>
    </contour>
    <contour>
      <point x="310" y="85" type="curve" smooth="yes"/>
      <point x="264" y="85"/>
      <point x="211" y="98"/>
      <point x="185" y="131" type="curve"/>
      <point x="167" y="151"/>
      <point x="157" y="177"/>
      <point x="156" y="210" type="curve" smooth="yes"/>
      <point x="156" y="239"/>
      <point x="164" y="265"/>
      <point x="179" y="284" type="curve" smooth="yes"/>
      <point x="192" y="300"/>
      <point x="210" y="312"/>
      <point x="231" y="319" type="curve"/>
      <point x="436" y="131" type="line"/>
      <point x="423" y="120"/>
      <point x="407" y="107"/>
      <point x="379" y="96" type="curve" smooth="yes"/>
      <point x="358" y="87"/>
      <point x="336" y="85"/>
    </contour>
  </outline>
</glyph>
<glyph name="quotesingle" format="2">
  <advance width="245"/>
  <unicode hex="0027"/>
  <note>
quotesingle
</note>
  <outline>
    <contour>
      <point x="60" y="540" type="line"/>
      <point x="165" y="540" type="line"/>
      <point x="165" y="720" type="line"/>
      <point x="60" y="720" type="line"/>
    </contour>
  </outline>
</glyph>
<glyph name="parenleft" format="2">
  <advance width="444"/>
  <unicode hex="0028"/>
  <note>
parenleft
</note>
  <outline>
    <contour>
      <point x="325" y="-187" type="curve"/>
      <point x="402" y="-128" type="line"/>
      <point x="284" y="12"/>
      <point x="236" y="168"/>
      <point x="235" y="330" type="curve" smooth="yes"/>
      <point x="236" y="493"/>
      <point x="283" y="646"/>
      <point x="402" y="789" type="curve"/>
      <point x="325" y="847" type="line"/>
      <point x="208" y="711"/>
      <point x="137" y="516"/>
      <point x="140" y="330" type="curve" smooth="yes"/>
      <point x="137" y="144"/>
      <point x="208" y="-51"/>
    </contour>
  </outline>
</glyph>
<glyph name="asterisk" format="2">
  <advance width="455"/>
  <unicode hex="002A"/>
  <note>
asterisk
</note>
  <outline>
    <contour>
      <point x="146" y="372" type="line"/>
      <point x="213" y="473" type="line"/>
      <point x="279" y="372" type="line"/>
      <point x="355" y="427" type="line"/>
      <point x="279" y="520" type="line"/>
      <point x="395" y="553" type="line"/>
      <point x="366" y="642" type="line"/>
      <point x="254" y="598" type="line"/>
      <point x="260" y="720" type="line"/>
      <point x="166" y="720" type="line"/>
      <point x="172" y="598" type="line"/>
      <point x="59" y="642" type="line"/>
      <point x="30" y="553" type="line"/>
      <point x="147" y="520" type="line"/>
      <point x="70" y="427" type="line"/>
    </contour>
  </outline>
</glyph>
<glyph name="plus" format="2">
  <advance width="573"/>
  <unicode hex="002B"/>
  <note>
plus
</note>
  <outline>
    <contour>
      <point x="245" y="133" type="line"/>
      <point x="329" y="133" type="line"/>
      <point x="329" y="318" type="line"/>
      <point x="513" y="318" type="line"/>
      <point x="513" y="402" type="line"/>
      <point x="329" y="402" type="line"/>
      <point x="329" y="587" type="line"/>
      <point x="245" y="587" type="line"/>
      <point x="245" y="402" type="line"/>
      <point x="60" y="402" type="line"/>
      <point x="60" y="318" type="line"/>
      <point x="245" y="318" type="line"/>
    </contour>
  </outline>
</glyph>
<glyph name="comma" format="2">
  <advance width="291"/>
  <unicode hex="002C"/>
  <note>
comma
</note>
  <outline>
    <contour>
      <point x="60" y="-120" type="line"/>
      <point x="132" y="-132"/>
      <point x="171" y="-89"/>
      <point x="171" y="-10" type="curve" smooth="yes"/>
      <point x="171" y="121" type="line"/>
      <point x="60" y="121" type="line"/>
      <point x="60" y="0" type="line"/>
      <point x="118" y="0" type="line"/>
      <point x="122" y="-43"/>
      <point x="110" y="-76"/>
      <point x="66" y="-73" type="curve"/>
    </contour>
  </outline>
</glyph>
<glyph name="period" format="2">
  <advance width="287"/>
  <unicode hex="002E"/>
  <note>
period
</note>
  <outline>
    <contour>
      <point x="88" y="0" type="line"/>
      <point x="199" y="0" type="line"/>
      <point x="199" y="111" type="line"/>
      <point x="88" y="111" type="line"/>
    </contour>
  </outline>
</glyph>
<glyph name="zero" format="2">
  <advance width="642"/>
  <unicode hex="0030"/>
  <outline>
    <contour>
      <point x="321" y="-15" type="curve" smooth="yes"/>
      <point x="468" y="-15"/>
      <point x="572" y="89"/>
      <point x="572" y="236" type="curve" smooth="yes"/>
      <point x="572" y="484" type="line" smooth="yes"/>
      <point x="572" y="631"/>
      <point x="468" y="735"/>
      <point x="321" y="735" type="curve" smooth="yes"/>
      <point x="174" y="735"/>
      <point x="70" y="631"/>
      <point x="70" y="484" type="curve" smooth="yes"/>
      <point x="70" y="236" type="line" smooth="yes"/>
      <point x="70" y="89"/>
      <point x="174" y="-15"/>
    </contour>
    <contour>
      <point x="321" y="85" type="curve" smooth="yes"/>
      <point x="241" y="85"/>
      <point x="177" y="149"/>
      <point x="177" y="229" type="curve" smooth="yes"/>
      <point x="177" y="491" type="line" smooth="yes"/>
      <point x="177" y="572"/>
      <point x="241" y="636"/>
      <point x="321" y="636" type="curve" smooth="yes"/>
      <point x="401" y="636"/>
      <point x="465" y="572"/>
      <point x="465" y="491" type="curve" smooth="yes"/>
      <point x="465" y="229" type="line" smooth="yes"/>
      <point x="465" y="149"/>
      <point x="401" y="85"/>
    </contour>
  </outline>
</glyph>
<glyph name="one" format="2">
  <advance width="422"/>
  <unicode hex="0031"/>
  <note>
one
</note>
  <outline>
    <contour>
      <point x="195" y="0" type="line"/>
      <point x="302" y="0" type="line"/>
      <point x="302" y="720" type="line"/>
      <point x="195" y="720" type="line"/>
      <point x="60" y="639" type="line"/>
      <point x="60" y="523" type="line"/>
      <point x="195" y="605" type="line"/>
    </contour>
  </outline>
</glyph>
<glyph name="two" format="2">
  <advance width="587"/>
  <unicode hex="0032"/>
  <note>
two
</note>
  <outline>
    <contour>
      <point x="50" y="1" type="line"/>
      <point x="537" y="1" type="line"/>
      <point x="537" y="100" type="line"/>
      <point x="167" y="100" type="line"/>
      <point x="178" y="70" type="line"/>
      <point x="420" y="286" type="line" smooth="yes"/>
      <point x="498" y="355"/>
      <point x="537" y="399"/>
      <point x="537" y="498" type="curve" smooth="yes"/>
      <point x="537" y="635"/>
      <point x="435" y="735"/>
      <point x="299" y="735" type="curve" smooth="yes"/>
      <point x="155" y="735"/>
      <point x="52" y="640"/>
      <point x="52" y="500" type="curve"/>
      <point x="160" y="500" type="line"/>
      <point x="158" y="572"/>
      <point x="216" y="636"/>
      <point x="297" y="636" type="curve" smooth="yes"/>
      <point x="374" y="636"/>
      <point x="430" y="577"/>
      <point x="430" y="499" type="curve" smooth="yes"/>
      <point x="430" y="459"/>
      <point x="414" y="419"/>
      <point x="364" y="374" type="curve" smooth="yes"/>
      <point x="50" y="93" type="line"/>
    </contour>
  </outline>
</glyph>
<glyph name="three" format="2">
  <advance width="572"/>
  <unicode hex="0033"/>
  <note>
three
</note>
  <outline>
    <contour>
      <point x="272" y="-14" type="curve" smooth="yes"/>
      <point x="406" y="-14"/>
      <point x="512" y="86"/>
      <point x="512" y="223" type="curve" smooth="yes"/>
      <point x="512" y="352"/>
      <point x="426" y="451"/>
      <point x="289" y="451" type="curve"/>
      <point x="290" y="418" type="line"/>
      <point x="501" y="620" type="line"/>
      <point x="501" y="720" type="line"/>
      <point x="68" y="720" type="line"/>
      <point x="68" y="621" type="line"/>
      <point x="419" y="621" type="line"/>
      <point x="408" y="650" type="line"/>
      <point x="153" y="426" type="line"/>
      <point x="202" y="343" type="line"/>
      <point x="223" y="354"/>
      <point x="248" y="361"/>
      <point x="271" y="361" type="curve" smooth="yes"/>
      <point x="350" y="361"/>
      <point x="405" y="303"/>
      <point x="405" y="223" type="curve" smooth="yes"/>
      <point x="405" y="144"/>
      <point x="350" y="87"/>
      <point x="271" y="86" type="curve" smooth="yes"/>
      <point x="213" y="85"/>
      <point x="160" y="119"/>
      <point x="141" y="181" type="curve"/>
      <point x="40" y="153" type="line"/>
      <point x="71" y="51"/>
      <point x="164" y="-14"/>
    </contour>
  </outline>
</glyph>
<glyph name="four" format="2">
  <advance width="602"/>
  <unicode hex="0034"/>
  <note>
four
</note>
  <outline>
    <contour>
      <point x="375" y="0" type="line"/>
      <point x="481" y="0" type="line"/>
      <point x="481" y="126" type="line"/>
      <point x="552" y="126" type="line"/>
      <point x="552" y="224" type="line"/>
      <point x="481" y="224" type="line"/>
      <point x="481" y="419" type="line"/>
      <point x="375" y="419" type="line"/>
      <point x="375" y="224" type="line"/>
      <point x="169" y="224" type="line"/>
      <point x="403" y="720" type="line"/>
      <point x="284" y="720" type="line"/>
      <point x="50" y="224" type="line"/>
      <point x="50" y="126" type="line"/>
      <point x="375" y="126" type="line"/>
    </contour>
  </outline>
</glyph>
<glyph name="five" format="2">
  <advance width="583"/>
  <unicode hex="0035"/>
  <note>
five
</note>
  <outline>
    <contour>
      <point x="283" y="-15" type="curve" smooth="yes"/>
      <point x="418" y="-15"/>
      <point x="533" y="93"/>
      <point x="533" y="227" type="curve" smooth="yes"/>
      <point x="533" y="361"/>
      <point x="434" y="463"/>
      <point x="300" y="463" type="curve" smooth="yes"/>
      <point x="248" y="463"/>
      <point x="192" y="442"/>
      <point x="153" y="404" type="curve"/>
      <point x="174" y="378" type="line"/>
      <point x="191" y="661" type="line"/>
      <point x="149" y="621" type="line"/>
      <point x="484" y="621" type="line"/>
      <point x="484" y="720" type="line"/>
      <point x="95" y="720" type="line"/>
      <point x="73" y="341" type="line"/>
      <point x="164" y="310" type="line"/>
      <point x="187" y="340"/>
      <point x="227" y="367"/>
      <point x="287" y="367" type="curve" smooth="yes"/>
      <point x="363" y="367"/>
      <point x="428" y="305"/>
      <point x="428" y="227" type="curve" smooth="yes"/>
      <point x="428" y="150"/>
      <point x="366" y="86"/>
      <point x="287" y="86" type="curve" smooth="yes"/>
      <point x="226" y="86"/>
      <point x="167" y="126"/>
      <point x="151" y="191" type="curve"/>
      <point x="50" y="164" type="line"/>
      <point x="79" y="58"/>
      <point x="173" y="-15"/>
    </contour>
  </outline>
</glyph>
<glyph name="six" format="2">
  <advance width="621"/>
  <unicode hex="0036"/>
  <note>
six
</note>
  <outline>
    <contour>
      <point x="317" y="-15" type="curve" smooth="yes"/>
      <point x="452" y="-15"/>
      <point x="565" y="92"/>
      <point x="565" y="226" type="curve" smooth="yes"/>
      <point x="565" y="361"/>
      <point x="466" y="463"/>
      <point x="331" y="463" type="curve" smooth="yes"/>
      <point x="262" y="463"/>
      <point x="197" y="429"/>
      <point x="156" y="375" type="curve"/>
      <point x="177" y="352" type="line"/>
      <point x="177" y="484" type="line" smooth="yes"/>
      <point x="177" y="564"/>
      <point x="238" y="636"/>
      <point x="328" y="636" type="curve" smooth="yes"/>
      <point x="374" y="636"/>
      <point x="418" y="613"/>
      <point x="445" y="577" type="curve"/>
      <point x="522" y="649" type="line"/>
      <point x="473" y="706"/>
      <point x="404" y="734"/>
      <point x="328" y="734" type="curve" smooth="yes"/>
      <point x="176" y="734"/>
      <point x="70" y="628"/>
      <point x="70" y="471" type="curve" smooth="yes"/>
      <point x="70" y="242" type="line" smooth="yes"/>
      <point x="70" y="93"/>
      <point x="178" y="-15"/>
    </contour>
    <contour>
      <point x="317" y="86" type="curve" smooth="yes"/>
      <point x="239" y="86"/>
      <point x="177" y="150"/>
      <point x="177" y="226" type="curve" smooth="yes"/>
      <point x="177" y="304"/>
      <point x="240" y="368"/>
      <point x="318" y="368" type="curve" smooth="yes"/>
      <point x="396" y="368"/>
      <point x="459" y="304"/>
      <point x="459" y="226" type="curve" smooth="yes"/>
      <point x="459" y="148"/>
      <point x="395" y="86"/>
    </contour>
  </outline>
</glyph>
<glyph name="seven" format="2">
  <advance width="523"/>
  <unicode hex="0037"/>
  <note>
seven
</note>
  <outline>
    <contour>
      <point x="107" y="0" type="line"/>
      <point x="220" y="0" type="line"/>
      <point x="473" y="620" type="line"/>
      <point x="473" y="720" type="line"/>
      <point x="40" y="720" type="line"/>
      <point x="40" y="620" type="line"/>
      <point x="361" y="620" type="line"/>
    </contour>
  </outline>
</glyph>
<glyph name="eight" format="2">
  <advance width="602"/>
  <unicode hex="0038"/>
  <note>
eight
</note>
  <outline>
    <contour>
      <point x="300" y="-15" type="curve" smooth="yes"/>
      <point x="441" y="-15"/>
      <point x="542" y="76"/>
      <point x="542" y="209" type="curve" smooth="yes"/>
      <point x="542" y="292"/>
      <point x="501" y="365"/>
      <point x="426" y="403" type="curve"/>
      <point x="427" y="367" type="line"/>
      <point x="491" y="406"/>
      <point x="523" y="464"/>
      <point x="523" y="535" type="curve" smooth="yes"/>
      <point x="523" y="657"/>
      <point x="430" y="735"/>
      <point x="300" y="735" type="curve" smooth="yes"/>
      <point x="170" y="735"/>
      <point x="78" y="657"/>
      <point x="78" y="535" type="curve" smooth="yes"/>
      <point x="78" y="464"/>
      <point x="112" y="405"/>
      <point x="174" y="368" type="curve"/>
      <point x="176" y="403" type="line"/>
      <point x="99" y="364"/>
      <point x="60" y="292"/>
      <point x="60" y="209" type="curve" smooth="yes"/>
      <point x="60" y="76"/>
      <point x="160" y="-15"/>
    </contour>
    <contour>
      <point x="300" y="84" type="curve" smooth="yes"/>
      <point x="223" y="84"/>
      <point x="171" y="128"/>
      <point x="171" y="209" type="curve" smooth="yes"/>
      <point x="171" y="290"/>
      <point x="222" y="334"/>
      <point x="300" y="334" type="curve" smooth="yes"/>
      <point x="378" y="334"/>
      <point x="431" y="290"/>
      <point x="431" y="209" type="curve" smooth="yes"/>
      <point x="431" y="128"/>
      <point x="378" y="84"/>
    </contour>
    <contour>
      <point x="300" y="434" type="curve" smooth="yes"/>
      <point x="234" y="434"/>
      <point x="189" y="467"/>
      <point x="189" y="535" type="curve" smooth="yes"/>
      <point x="189" y="602"/>
      <point x="234" y="635"/>
      <point x="300" y="635" type="curve" smooth="yes"/>
      <point x="366" y="635"/>
      <point x="412" y="602"/>
      <point x="412" y="535" type="curve" smooth="yes"/>
      <point x="412" y="467"/>
      <point x="366" y="434"/>
    </contour>
  </outline>
</glyph>
<glyph name="less" format="2">
  <advance width="630"/>
  <unicode hex="003C"/>
  <note>
less
</note>
  <outline>
    <contour>
      <point x="378" y="77" type="line"/>
      <point x="444" y="142" type="line"/>
      <point x="266" y="315" type="line"/>
      <point x="444" y="488" type="line"/>
      <point x="378" y="553" type="line"/>
      <point x="140" y="315" type="line"/>
    </contour>
  </outline>
</glyph>
<glyph name="equal" format="2">
  <advance width="750"/>
  <unicode hex="003D"/>
  <note>
equal
</note>
  <outline>
    <contour>
      <point x="120" y="409" type="line"/>
      <point x="630" y="409" type="line"/>
      <point x="630" y="493" type="line"/>
      <point x="120" y="493" type="line"/>
    </contour>
    <contour>
      <point x="120" y="227" type="line"/>
      <point x="630" y="227" type="line"/>
      <point x="630" y="311" type="line"/>
      <point x="120" y="311" type="line"/>
    </contour>
  </outline>
</glyph>
<glyph name="question" format="2">
  <advance width="543"/>
  <unicode hex="003F"/>
  <note>
question
</note>
  <outline>
    <contour>
      <point x="204" y="196" type="curve"/>
      <point x="315" y="196" type="line"/>
      <point x="315" y="236"/>
      <point x="314" y="254"/>
      <point x="333" y="286" type="curve" smooth="yes"/>
      <point x="351" y="317"/>
      <point x="389" y="339"/>
      <point x="421" y="374" type="curve" smooth="yes"/>
      <point x="464" y="419"/>
      <point x="493" y="473"/>
      <point x="493" y="537" type="curve" smooth="yes"/>
      <point x="493" y="584"/>
      <point x="477" y="630"/>
      <point x="447" y="664" type="curve" smooth="yes"/>
      <point x="405" y="714"/>
      <point x="339" y="734"/>
      <point x="268" y="734" type="curve" smooth="yes"/>
      <point x="218" y="734"/>
      <point x="167" y="719"/>
      <point x="128" y="689" type="curve" smooth="yes"/>
      <point x="82" y="655"/>
      <point x="55" y="597"/>
      <point x="50" y="535" type="curve"/>
      <point x="160" y="535" type="line"/>
      <point x="159" y="564"/>
      <point x="169" y="591"/>
      <point x="190" y="609" type="curve" smooth="yes"/>
      <point x="209" y="627"/>
      <point x="239" y="635"/>
      <point x="271" y="635" type="curve" smooth="yes"/>
      <point x="307" y="635"/>
      <point x="342" y="625"/>
      <point x="363" y="598" type="curve" smooth="yes"/>
      <point x="377" y="582"/>
      <point x="382" y="560"/>
      <point x="382" y="534" type="curve" smooth="yes"/>
      <point x="382" y="500"/>
      <point x="375" y="471"/>
      <point x="349" y="441" type="curve" smooth="yes"/>
      <point x="301" y="390"/>
      <point x="259" y="377"/>
      <point x="231" y="323" type="curve" smooth="yes"/>
      <point x="210" y="285"/>
      <point x="204" y="244"/>
    </contour>
    <contour>
      <point x="205" y="0" type="line"/>
      <point x="315" y="0" type="line"/>
      <point x="315" y="121" type="line"/>
      <point x="205" y="121" type="line"/>
    </contour>
  </outline>
</glyph>
<glyph name="at" format="2">
  <advance width="915"/>
  <unicode hex="0040"/>
  <note>
at
</note>
  <outline>
    <contour>
      <point x="457" y="-105" type="curve" smooth="yes"/>
      <point x="515" y="-105"/>
      <point x="574" y="-95"/>
      <point x="626" y="-71" type="curve"/>
      <point x="595" y="8" type="line"/>
      <point x="554" y="-11"/>
      <point x="508" y="-21"/>
      <point x="460" y="-21" type="curve" smooth="yes"/>
      <point x="285" y="-21"/>
      <point x="174" y="79"/>
      <point x="170" y="262" type="curve" smooth="yes"/>
      <point x="166" y="460"/>
      <point x="290" y="560"/>
      <point x="458" y="560" type="curve" smooth="yes"/>
      <point x="592" y="560"/>
      <point x="743" y="492"/>
      <point x="745" y="270" type="curve" smooth="yes"/>
      <point x="745" y="215"/>
      <point x="733" y="149"/>
      <point x="680" y="149" type="curve" smooth="yes"/>
      <point x="645" y="149"/>
      <point x="618" y="173"/>
      <point x="618" y="220" type="curve"/>
      <point x="620" y="431" type="line"/>
      <point x="553" y="431" type="line"/>
      <point x="553" y="367" type="line"/>
      <point x="573" y="393" type="line"/>
      <point x="547" y="426"/>
      <point x="494" y="445"/>
      <point x="451" y="445" type="curve" smooth="yes"/>
      <point x="353" y="445"/>
      <point x="277" y="376"/>
      <point x="278" y="270" type="curve" smooth="yes"/>
      <point x="279" y="164"/>
      <point x="348" y="95"/>
      <point x="450" y="95" type="curve" smooth="yes"/>
      <point x="498" y="95"/>
      <point x="550" y="115"/>
      <point x="578" y="151" type="curve"/>
      <point x="545" y="158" type="line"/>
      <point x="562" y="101"/>
      <point x="621" y="64"/>
      <point x="684" y="64" type="curve" smooth="yes"/>
      <point x="782" y="64"/>
      <point x="835" y="157"/>
      <point x="835" y="270" type="curve" smooth="yes"/>
      <point x="835" y="493"/>
      <point x="689" y="645"/>
      <point x="451" y="645" type="curve" smooth="yes"/>
      <point x="246" y="645"/>
      <point x="79" y="514"/>
      <point x="80" y="259" type="curve" smooth="yes"/>
      <point x="81" y="42"/>
      <point x="230" y="-105"/>
    </contour>
    <contour>
      <point x="455" y="180" type="curve" smooth="yes"/>
      <point x="399" y="180"/>
      <point x="367" y="213"/>
      <point x="367" y="270" type="curve" smooth="yes"/>
      <point x="367" y="326"/>
      <point x="397" y="360"/>
      <point x="458" y="360" type="curve" smooth="yes"/>
      <point x="509" y="360"/>
      <point x="539" y="329"/>
      <point x="539" y="270" type="curve" smooth="yes"/>
      <point x="539" y="205"/>
      <point x="507" y="180"/>
    </contour>
  </outline>
</glyph>
<glyph name="B" format="2">
  <advance width="625"/>
  <unicode hex="0042"/>
  <note>
B
</note>
  <outline>
    <contour>
      <point x="70" y="0" type="line"/>
      <point x="380" y="0" type="line" smooth="yes"/>
      <point x="517" y="0"/>
      <point x="595" y="83"/>
      <point x="595" y="210" type="curve" smooth="yes"/>
      <point x="595" y="297"/>
      <point x="544" y="368"/>
      <point x="453" y="391" type="curve"/>
      <point x="453" y="366" type="line"/>
      <point x="519" y="387"/>
      <point x="561" y="447"/>
      <point x="561" y="526" type="curve" smooth="yes"/>
      <point x="561" y="625"/>
      <point x="490" y="720"/>
      <point x="353" y="720" type="curve" smooth="yes"/>
      <point x="70" y="720" type="line"/>
    </contour>
    <contour>
      <point x="176" y="99" type="line"/>
      <point x="176" y="328" type="line"/>
      <point x="371" y="328" type="line" smooth="yes"/>
      <point x="443" y="328"/>
      <point x="489" y="277"/>
      <point x="489" y="212" type="curve" smooth="yes"/>
      <point x="489" y="142"/>
      <point x="435" y="99"/>
      <point x="364" y="99" type="curve" smooth="yes"/>
    </contour>
    <contour>
      <point x="176" y="426" type="line"/>
      <point x="176" y="622" type="line"/>
      <point x="352" y="622" type="line" smooth="yes"/>
      <point x="414" y="622"/>
      <point x="454" y="581"/>
      <point x="454" y="525" type="curve" smooth="yes"/>
      <point x="454" y="463"/>
      <point x="409" y="426"/>
      <point x="352" y="426" type="curve" smooth="yes"/>
    </contour>
  </outline>
</glyph>
<glyph name="C" format="2">
  <advance width="717"/>
  <unicode hex="0043"/>
  <note>
C
</note>
  <outline>
    <contour>
      <point x="368" y="-15" type="curve" smooth="yes"/>
      <point x="525" y="-15"/>
      <point x="639" y="68"/>
      <point x="679" y="213" type="curve"/>
      <point x="576" y="239" type="line"/>
      <point x="546" y="143"/>
      <point x="474" y="84"/>
      <point x="367" y="84" type="curve" smooth="yes"/>
      <point x="224" y="84"/>
      <point x="140" y="191"/>
      <point x="140" y="359" type="curve" smooth="yes"/>
      <point x="140" y="521"/>
      <point x="218" y="638"/>
      <point x="370" y="635" type="curve" smooth="yes"/>
      <point x="478" y="634"/>
      <point x="553" y="572"/>
      <point x="579" y="472" type="curve"/>
      <point x="684" y="487" type="line"/>
      <point x="649" y="641"/>
      <point x="533" y="735"/>
      <point x="367" y="735" type="curve" smooth="yes"/>
      <point x="156" y="735"/>
      <point x="30" y="582"/>
      <point x="30" y="362" type="curve" smooth="yes"/>
      <point x="30" y="149"/>
      <point x="148" y="-15"/>
    </contour>
  </outline>
</glyph>
<glyph name="D" format="2">
  <advance width="691"/>
  <unicode hex="0044"/>
  <note>
D
</note>
  <outline>
    <contour>
      <point x="70" y="0" type="line"/>
      <point x="296" y="0" type="line" smooth="yes"/>
      <point x="308" y="0"/>
      <point x="352" y="0"/>
      <point x="385" y="4" type="curve" smooth="yes"/>
      <point x="554" y="26"/>
      <point x="644" y="176"/>
      <point x="644" y="360" type="curve" smooth="yes"/>
      <point x="644" y="543"/>
      <point x="554" y="694"/>
      <point x="385" y="716" type="curve" smooth="yes"/>
      <point x="351" y="720"/>
      <point x="309" y="720"/>
      <point x="296" y="720" type="curve" smooth="yes"/>
      <point x="70" y="720" type="line"/>
    </contour>
    <contour>
      <point x="177" y="99" type="line"/>
      <point x="177" y="621" type="line"/>
      <point x="296" y="621" type="line" smooth="yes"/>
      <point x="318" y="621"/>
      <point x="353" y="620"/>
      <point x="377" y="615" type="curve" smooth="yes"/>
      <point x="485" y="595"/>
      <point x="533" y="487"/>
      <point x="533" y="360" type="curve" smooth="yes"/>
      <point x="533" y="237"/>
      <point x="487" y="125"/>
      <point x="377" y="105" type="curve" smooth="yes"/>
      <point x="353" y="100"/>
      <point x="318" y="99"/>
      <point x="296" y="99" type="curve" smooth="yes"/>
    </contour>
  </outline>
</glyph>
<glyph name="F" format="2">
  <advance width="517"/>
  <unicode hex="0046"/>
  <note>
F
</note>
  <outline>
    <contour>
      <point x="70" y="0" type="line"/>
      <point x="175" y="0" type="line"/>
      <point x="175" y="308" type="line"/>
      <point x="437" y="308" type="line"/>
      <point x="437" y="412" type="line"/>
      <point x="175" y="412" type="line"/>
      <point x="175" y="615" type="line"/>
      <point x="497" y="615" type="line"/>
      <point x="497" y="720" type="line"/>
      <point x="70" y="720" type="line"/>
    </contour>
  </outline>
</glyph>
<glyph name="G" format="2">
  <advance width="723"/>
  <unicode hex="0047"/>
  <note>
G
</note>
  <outline>
    <contour>
      <point x="364" y="-15" type="curve" smooth="yes"/>
      <point x="574" y="-15"/>
      <point x="693" y="131"/>
      <point x="693" y="332" type="curve" smooth="yes"/>
      <point x="693" y="337"/>
      <point x="692" y="362"/>
      <point x="691" y="374" type="curve"/>
      <point x="440" y="374" type="line"/>
      <point x="440" y="290" type="line"/>
      <point x="580" y="290" type="line"/>
      <point x="565" y="156"/>
      <point x="494" y="83"/>
      <point x="370" y="84" type="curve" smooth="yes"/>
      <point x="217" y="86"/>
      <point x="140" y="195"/>
      <point x="141" y="360" type="curve" smooth="yes"/>
      <point x="142" y="525"/>
      <point x="217" y="637"/>
      <point x="370" y="635" type="curve" smooth="yes"/>
      <point x="469" y="635"/>
      <point x="535" y="579"/>
      <point x="564" y="493" type="curve"/>
      <point x="671" y="512" type="line"/>
      <point x="634" y="651"/>
      <point x="533" y="735"/>
      <point x="364" y="735" type="curve" smooth="yes"/>
      <point x="167" y="735"/>
      <point x="30" y="593"/>
      <point x="30" y="360" type="curve" smooth="yes"/>
      <point x="30" y="124"/>
      <point x="171" y="-15"/>
    </contour>
  </outline>
</glyph>
<glyph name="J" format="2">
  <advance width="488"/>
  <unicode hex="004A"/>
  <note>
J
</note>
  <outline>
    <contour>
      <point x="207" y="-15" type="curve" smooth="yes"/>
      <point x="282" y="-15"/>
      <point x="346" y="15"/>
      <point x="384" y="81" type="curve" smooth="yes"/>
      <point x="411" y="128"/>
      <point x="408" y="166"/>
      <point x="408" y="231" type="curve" smooth="yes"/>
      <point x="408" y="720" type="line"/>
      <point x="302" y="720" type="line"/>
      <point x="302" y="231" type="line" smooth="yes"/>
      <point x="302" y="189"/>
      <point x="302" y="159"/>
      <point x="291" y="135" type="curve" smooth="yes"/>
      <point x="273" y="99"/>
      <point x="235" y="84"/>
      <point x="204" y="84" type="curve" smooth="yes"/>
      <point x="156" y="84"/>
      <point x="113" y="120"/>
      <point x="104" y="165" type="curve"/>
      <point x="0" y="140" type="line"/>
      <point x="27" y="46"/>
      <point x="101" y="-15"/>
    </contour>
  </outline>
</glyph>
<glyph name="M" format="2">
  <advance width="850"/>
  <unicode hex="004D"/>
  <note>
M
</note>
  <outline>
    <contour>
      <point x="70" y="0" type="line"/>
      <point x="169" y="0" type="line"/>
      <point x="169" y="493" type="line"/>
      <point x="401" y="0" type="line"/>
      <point x="449" y="0" type="line"/>
      <point x="682" y="493" type="line"/>
      <point x="682" y="0" type="line"/>
      <point x="780" y="0" type="line"/>
      <point x="780" y="720" type="line"/>
      <point x="685" y="720" type="line"/>
      <point x="425" y="178" type="line"/>
      <point x="165" y="720" type="line"/>
      <point x="70" y="720" type="line"/>
    </contour>
  </outline>
</glyph>
<glyph name="N" format="2">
  <advance width="707"/>
  <unicode hex="004E"/>
  <note>
N
</note>
  <outline>
    <contour>
      <point x="70" y="0" type="line"/>
      <point x="176" y="0" type="line"/>
      <point x="176" y="535" type="line"/>
      <point x="531" y="0" type="line"/>
      <point x="637" y="0" type="line"/>
      <point x="637" y="720" type="line"/>
      <point x="531" y="720" type="line"/>
      <point x="531" y="185" type="line"/>
      <point x="176" y="720" type="line"/>
      <point x="70" y="720" type="line"/>
    </contour>
  </outline>
</glyph>
<glyph name="O" format="2">
  <advance width="741"/>
  <unicode hex="004F"/>
  <outline>
    <contour>
      <point x="370" y="-15" type="curve" smooth="yes"/>
      <point x="586" y="-15"/>
      <point x="711" y="137"/>
      <point x="711" y="360" type="curve" smooth="yes"/>
      <point x="711" y="583"/>
      <point x="586" y="735"/>
      <point x="370" y="735" type="curve" smooth="yes"/>
      <point x="155" y="735"/>
      <point x="30" y="583"/>
      <point x="30" y="360" type="curve" smooth="yes"/>
      <point x="30" y="137"/>
      <point x="155" y="-15"/>
    </contour>
    <contour>
      <point x="370" y="84" type="curve" smooth="yes"/>
      <point x="217" y="86"/>
      <point x="140" y="195"/>
      <point x="141" y="360" type="curve" smooth="yes"/>
      <point x="142" y="525"/>
      <point x="217" y="637"/>
      <point x="370" y="635" type="curve" smooth="yes"/>
      <point x="523" y="634"/>
      <point x="600" y="525"/>
      <point x="600" y="360" type="curve" smooth="yes"/>
      <point x="599" y="195"/>
      <point x="523" y="83"/>
    </contour>
  </outline>
</glyph>
<glyph name="P" format="2">
  <advance width="627"/>
  <unicode hex="0050"/>
  <note>
P
</note>
  <outline>
    <contour>
      <point x="70" y="0" type="line"/>
      <point x="175" y="0" type="line"/>
      <point x="175" y="259" type="line"/>
      <point x="361" y="259" type="line" smooth="yes"/>
      <point x="374" y="259"/>
      <point x="398" y="260"/>
      <point x="416" y="263" type="curve" smooth="yes"/>
      <point x="536" y="281"/>
      <point x="597" y="373"/>
      <point x="597" y="489" type="curve" smooth="yes"/>
      <point x="597" y="606"/>
      <point x="537" y="697"/>
      <point x="416" y="716" type="curve" smooth="yes"/>
      <point x="398" y="719"/>
      <point x="375" y="720"/>
      <point x="361" y="720" type="curve" smooth="yes"/>
      <point x="70" y="720" type="line"/>
    </contour>
    <contour>
      <point x="175" y="357" type="line"/>
      <point x="175" y="621" type="line"/>
      <point x="357" y="621" type="line" smooth="yes"/>
      <point x="370" y="621"/>
      <point x="388" y="620"/>
      <point x="402" y="617" type="curve" smooth="yes"/>
      <point x="467" y="601"/>
      <point x="491" y="542"/>
      <point x="491" y="489" type="curve" smooth="yes"/>
      <point x="491" y="436"/>
      <point x="467" y="377"/>
      <point x="402" y="362" type="curve" smooth="yes"/>
      <point x="388" y="358"/>
      <point x="370" y="357"/>
      <point x="357" y="357" type="curve" smooth="yes"/>
    </contour>
  </outline>
</glyph>
<glyph name="R" format="2">
  <advance width="650"/>
  <unicode hex="0052"/>
  <note>
R
</note>
  <outline>
    <contour>
      <point x="70" y="0" type="line"/>
      <point x="175" y="0" type="line"/>
      <point x="175" y="259" type="line"/>
      <point x="378" y="259" type="line"/>
      <point x="421" y="264" type="line"/>
      <point x="538" y="284"/>
      <point x="597" y="374"/>
      <point x="597" y="489" type="curve" smooth="yes"/>
      <point x="597" y="606"/>
      <point x="537" y="697"/>
      <point x="416" y="716" type="curve" smooth="yes"/>
      <point x="398" y="719"/>
      <point x="375" y="720"/>
      <point x="361" y="720" type="curve" smooth="yes"/>
      <point x="70" y="720" type="line"/>
    </contour>
    <contour>
      <point x="491" y="0" type="line"/>
      <point x="610" y="0" type="line"/>
      <point x="454" y="320" type="line"/>
      <point x="349" y="293" type="line"/>
    </contour>
    <contour>
      <point x="175" y="357" type="line"/>
      <point x="175" y="621" type="line"/>
      <point x="357" y="621" type="line" smooth="yes"/>
      <point x="370" y="621"/>
      <point x="388" y="620"/>
      <point x="402" y="617" type="curve" smooth="yes"/>
      <point x="467" y="601"/>
      <point x="491" y="542"/>
      <point x="491" y="489" type="curve" smooth="yes"/>
      <point x="491" y="436"/>
      <point x="467" y="377"/>
      <point x="402" y="362" type="curve" smooth="yes"/>
      <point x="388" y="358"/>
      <point x="370" y="357"/>
      <point x="357" y="357" type="curve" smooth="yes"/>
    </contour>
  </outline>
</glyph>
<glyph name="S" format="2">
  <advance width="644"/>
  <unicode hex="0053"/>
  <note>
S
</note>
  <outline>
    <contour>
      <point x="331" y="-15" type="curve" smooth="yes"/>
      <point x="476" y="-15"/>
      <point x="607" y="58"/>
      <point x="607" y="205" type="curve" smooth="yes"/>
      <point x="607" y="345"/>
      <point x="488" y="381"/>
      <point x="420" y="400" type="curve" smooth="yes"/>
      <point x="287" y="438" type="line" smooth="yes"/>
      <point x="228" y="454"/>
      <point x="175" y="476"/>
      <point x="175" y="533" type="curve" smooth="yes"/>
      <point x="175" y="596"/>
      <point x="242" y="637"/>
      <point x="321" y="636" type="curve" smooth="yes"/>
      <point x="402" y="634"/>
      <point x="474" y="588"/>
      <point x="490" y="504" type="curve"/>
      <point x="602" y="524" type="line"/>
      <point x="572" y="658"/>
      <point x="467" y="733"/>
      <point x="322" y="734" type="curve" smooth="yes"/>
      <point x="179" y="735"/>
      <point x="65" y="663"/>
      <point x="65" y="528" type="curve" smooth="yes"/>
      <point x="65" y="397"/>
      <point x="172" y="362"/>
      <point x="223" y="348" type="curve" smooth="yes"/>
      <point x="401" y="295" type="line" smooth="yes"/>
      <point x="462" y="277"/>
      <point x="498" y="251"/>
      <point x="498" y="199" type="curve" smooth="yes"/>
      <point x="498" y="123"/>
      <point x="420" y="84"/>
      <point x="337" y="84" type="curve" smooth="yes"/>
      <point x="245" y="84"/>
      <point x="168" y="133"/>
      <point x="145" y="223" type="curve"/>
      <point x="37" y="206" type="line"/>
      <point x="60" y="67"/>
      <point x="178" y="-15"/>
    </contour>
  </outline>
</glyph>
<glyph name="T" format="2">
  <advance width="603"/>
  <unicode hex="0054"/>
  <note>
T
</note>
  <outline>
    <contour>
      <point x="249" y="0" type="line"/>
      <point x="354" y="0" type="line"/>
      <point x="354" y="621" type="line"/>
      <point x="593" y="621" type="line"/>
      <point x="593" y="720" type="line"/>
      <point x="10" y="720" type="line"/>
      <point x="10" y="621" type="line"/>
      <point x="249" y="621" type="line"/>
    </contour>
  </outline>
</glyph>
<glyph name="U" format="2">
  <advance width="714"/>
  <unicode hex="0055"/>
  <note>
U
</note>
  <outline>
    <contour>
      <point x="357" y="-15" type="curve" smooth="yes"/>
      <point x="526" y="-15"/>
      <point x="644" y="96"/>
      <point x="644" y="265" type="curve" smooth="yes"/>
      <point x="644" y="720" type="line"/>
      <point x="538" y="720" type="line"/>
      <point x="538" y="270" type="line" smooth="yes"/>
      <point x="538" y="149"/>
      <point x="448" y="84"/>
      <point x="357" y="84" type="curve" smooth="yes"/>
      <point x="268" y="84"/>
      <point x="176" y="148"/>
      <point x="176" y="270" type="curve" smooth="yes"/>
      <point x="176" y="720" type="line"/>
      <point x="70" y="719" type="line"/>
      <point x="70" y="265" type="line" smooth="yes"/>
      <point x="70" y="95"/>
      <point x="188" y="-15"/>
    </contour>
  </outline>
</glyph>
<glyph name="V" format="2">
  <advance width="628"/>
  <unicode hex="0056"/>
  <note>
V
</note>
  <outline>
    <contour>
      <point x="239" y="0" type="line"/>
      <point x="389" y="0" type="line"/>
      <point x="623" y="720" type="line"/>
      <point x="515" y="720" type="line"/>
      <point x="313" y="106" type="line"/>
      <point x="113" y="720" type="line"/>
      <point x="5" y="720" type="line"/>
    </contour>
  </outline>
</glyph>
<glyph name="W" format="2">
  <advance width="962"/>
  <unicode hex="0057"/>
  <note>
W
</note>
  <outline>
    <contour>
      <point x="223" y="0" type="line"/>
      <point x="327" y="0" type="line"/>
      <point x="481" y="538" type="line"/>
      <point x="636" y="0" type="line"/>
      <point x="740" y="0" type="line"/>
      <point x="949" y="720" type="line"/>
      <point x="839" y="720" type="line"/>
      <point x="687" y="175" type="line"/>
      <point x="535" y="720" type="line"/>
      <point x="425" y="719" type="line"/>
      <point x="275" y="175" type="line"/>
      <point x="123" y="720" type="line"/>
      <point x="13" y="720" type="line"/>
    </contour>
  </outline>
</glyph>
<glyph name="X" format="2">
  <advance width="639"/>
  <unicode hex="0058"/>
  <note>
X
</note>
  <outline>
    <contour>
      <point x="10" y="0" type="line"/>
      <point x="139" y="0" type="line"/>
      <point x="320" y="275" type="line"/>
      <point x="501" y="0" type="line"/>
      <point x="629" y="0" type="line"/>
      <point x="384" y="364" type="line"/>
      <point x="623" y="720" type="line"/>
      <point x="494" y="720" type="line"/>
      <point x="320" y="453" type="line"/>
      <point x="145" y="720" type="line"/>
      <point x="17" y="720" type="line"/>
      <point x="256" y="364" type="line"/>
    </contour>
  </outline>
</glyph>
<glyph name="Y" format="2">
  <advance width="593"/>
  <unicode hex="0059"/>
  <note>
Y
</note>
  <outline>
    <contour>
      <point x="244" y="0" type="line"/>
      <point x="350" y="0" type="line"/>
      <point x="350" y="297" type="line"/>
      <point x="593" y="720" type="line"/>
      <point x="471" y="720" type="line"/>
      <point x="297" y="417" type="line"/>
      <point x="122" y="720" type="line"/>
      <point x="0" y="720" type="line"/>
      <point x="244" y="297" type="line"/>
    </contour>
  </outline>
</glyph>
<glyph name="Z" format="2">
  <advance width="647"/>
  <unicode hex="005A"/>
  <note>
Z
</note>
  <outline>
    <contour>
      <point x="50" y="0" type="line"/>
      <point x="590" y="0" type="line"/>
      <point x="590" y="99" type="line"/>
      <point x="231" y="99" type="line"/>
      <point x="597" y="703" type="line"/>
      <point x="597" y="720" type="line"/>
      <point x="70" y="720" type="line"/>
      <point x="70" y="621" type="line"/>
      <point x="418" y="621" type="line"/>
      <point x="50" y="16" type="line"/>
    </contour>
  </outline>
</glyph>
<glyph name="a" format="2">
  <advance width="569"/>
  <unicode hex="0061"/>
  <note>
a
</note>
  <outline>
    <contour>
      <point x="222" y="-15" type="curve" smooth="yes"/>
      <point x="324" y="-15"/>
      <point x="391" y="29"/>
      <point x="433" y="101" type="curve"/>
      <point x="417" y="122" type="line"/>
      <point x="417" y="0" type="line"/>
      <point x="509" y="0" type="line"/>
      <point x="509" y="327" type="line"/>
      <point x="509" y="351"/>
      <point x="509" y="384"/>
      <point x="498" y="419" type="curve" smooth="yes"/>
      <point x="473" y="504"/>
      <point x="405" y="555"/>
      <point x="288" y="555" type="curve" smooth="yes"/>
      <point x="174" y="555"/>
      <point x="91" y="493"/>
      <point x="60" y="406" type="curve"/>
      <point x="156" y="376" type="line"/>
      <point x="175" y="435"/>
      <point x="227" y="459"/>
      <point x="285" y="459" type="curve" smooth="yes"/>
      <point x="365" y="459"/>
      <point x="413" y="415"/>
      <point x="406" y="318" type="curve"/>
      <point x="426" y="347" type="line"/>
      <point x="315" y="334"/>
      <point x="246" y="326"/>
      <point x="195" y="312" type="curve" smooth="yes"/>
      <point x="119" y="293"/>
      <point x="40" y="245"/>
      <point x="40" y="147" type="curve" smooth="yes"/>
      <point x="40" y="67"/>
      <point x="98" y="-15"/>
    </contour>
    <contour>
      <point x="241" y="70" type="curve" smooth="yes"/>
      <point x="179" y="70"/>
      <point x="143" y="104"/>
      <point x="143" y="147" type="curve" smooth="yes"/>
      <point x="143" y="196"/>
      <point x="180" y="217"/>
      <point x="228" y="231" type="curve" smooth="yes"/>
      <point x="283" y="248"/>
      <point x="356" y="257"/>
      <point x="443" y="268" type="curve"/>
      <point x="405" y="287" type="line"/>
      <point x="406" y="242"/>
      <point x="406" y="188"/>
      <point x="385" y="149" type="curve" smooth="yes"/>
      <point x="363" y="106"/>
      <point x="308" y="70"/>
    </contour>
  </outline>
</glyph>
<glyph name="b" format="2">
  <advance width="609"/>
  <unicode hex="0062"/>
  <note>
b
</note>
  <outline>
    <contour>
      <point x="324" y="-15" type="curve" smooth="yes"/>
      <point x="475" y="-15"/>
      <point x="569" y="108"/>
      <point x="569" y="270" type="curve" smooth="yes"/>
      <point x="569" y="433"/>
      <point x="474" y="555"/>
      <point x="322" y="555" type="curve" smooth="yes"/>
      <point x="169" y="555"/>
      <point x="88" y="433"/>
      <point x="88" y="270" type="curve" smooth="yes"/>
      <point x="88" y="109"/>
      <point x="169" y="-15"/>
    </contour>
    <contour>
      <point x="70" y="0" type="line"/>
      <point x="163" y="0" type="line"/>
      <point x="163" y="388" type="line"/>
      <point x="175" y="388" type="line"/>
      <point x="175" y="720" type="line"/>
      <point x="70" y="720" type="line"/>
    </contour>
    <contour>
      <point x="310" y="80" type="curve" smooth="yes"/>
      <point x="207" y="80"/>
      <point x="163" y="159"/>
      <point x="163" y="270" type="curve" smooth="yes"/>
      <point x="163" y="383"/>
      <point x="208" y="460"/>
      <point x="306" y="460" type="curve" smooth="yes"/>
      <point x="410" y="460"/>
      <point x="458" y="376"/>
      <point x="458" y="270" type="curve" smooth="yes"/>
      <point x="458" y="163"/>
      <point x="410" y="80"/>
    </contour>
  </outline>
</glyph>
<glyph name="c" format="2">
  <advance width="568"/>
  <unicode hex="0063"/>
  <note>
c
</note>
  <outline>
    <contour>
      <point x="301" y="-15" type="curve" smooth="yes"/>
      <point x="417" y="-15"/>
      <point x="501" y="43"/>
      <point x="537" y="148" type="curve"/>
      <point x="430" y="174" type="line"/>
      <point x="409" y="115"/>
      <point x="368" y="84"/>
      <point x="301" y="84" type="curve" smooth="yes"/>
      <point x="202" y="84"/>
      <point x="152" y="158"/>
      <point x="151" y="270" type="curve" smooth="yes"/>
      <point x="152" y="378"/>
      <point x="198" y="456"/>
      <point x="301" y="456" type="curve" smooth="yes"/>
      <point x="361" y="456"/>
      <point x="412" y="421"/>
      <point x="433" y="361" type="curve"/>
      <point x="537" y="390" type="line"/>
      <point x="510" y="492"/>
      <point x="420" y="555"/>
      <point x="302" y="555" type="curve" smooth="yes"/>
      <point x="139" y="555"/>
      <point x="41" y="437"/>
      <point x="40" y="270" type="curve" smooth="yes"/>
      <point x="41" y="106"/>
      <point x="135" y="-15"/>
    </contour>
  </outline>
</glyph>
<glyph name="d" format="2">
  <advance width="609"/>
  <unicode hex="0064"/>
  <note>
d
</note>
  <outline>
    <contour>
      <point x="284" y="-15" type="curve" smooth="yes"/>
      <point x="439" y="-15"/>
      <point x="521" y="109"/>
      <point x="521" y="270" type="curve" smooth="yes"/>
      <point x="521" y="433"/>
      <point x="439" y="555"/>
      <point x="286" y="555" type="curve" smooth="yes"/>
      <point x="135" y="555"/>
      <point x="40" y="433"/>
      <point x="40" y="270" type="curve" smooth="yes"/>
      <point x="40" y="108"/>
      <point x="134" y="-15"/>
    </contour>
    <contour>
      <point x="299" y="80" type="curve" smooth="yes"/>
      <point x="199" y="80"/>
      <point x="151" y="163"/>
      <point x="151" y="270" type="curve" smooth="yes"/>
      <point x="151" y="376"/>
      <point x="199" y="460"/>
      <point x="302" y="460" type="curve" smooth="yes"/>
      <point x="401" y="460"/>
      <point x="446" y="383"/>
      <point x="446" y="270" type="curve" smooth="yes"/>
      <point x="446" y="159"/>
      <point x="402" y="80"/>
    </contour>
    <contour>
      <point x="446" y="0" type="line"/>
      <point x="539" y="0" type="line"/>
      <point x="539" y="720" type="line"/>
      <point x="433" y="720" type="line"/>
      <point x="433" y="388" type="line"/>
      <point x="446" y="388" type="line"/>
    </contour>
  </outline>
</glyph>
<glyph name="e" format="2">
  <advance width="596"/>
  <unicode hex="0065"/>
  <note>
e
</note>
  <outline>
    <contour>
      <point x="310" y="-15" type="curve" smooth="yes"/>
      <point x="412" y="-15"/>
      <point x="506" y="40"/>
      <point x="547" y="137" type="curve"/>
      <point x="445" y="170" type="line"/>
      <point x="418" y="113"/>
      <point x="368" y="84"/>
      <point x="304" y="84" type="curve" smooth="yes"/>
      <point x="203" y="84"/>
      <point x="151" y="156"/>
      <point x="151" y="270" type="curve" smooth="yes"/>
      <point x="151" y="382"/>
      <point x="195" y="463"/>
      <point x="304" y="462" type="curve" smooth="yes"/>
      <point x="413" y="463"/>
      <point x="449" y="393"/>
      <point x="450" y="279" type="curve"/>
      <point x="450" y="241" type="line"/>
      <point x="555" y="241" type="line"/>
      <point x="565" y="425"/>
      <point x="478" y="555"/>
      <point x="304" y="555" type="curve" smooth="yes"/>
      <point x="142" y="555"/>
      <point x="40" y="439"/>
      <point x="40" y="265" type="curve" smooth="yes"/>
      <point x="40" y="102"/>
      <point x="144" y="-15"/>
    </contour>
    <contour>
      <point x="117" y="241" type="line"/>
      <point x="502" y="241" type="line"/>
      <point x="502" y="325" type="line"/>
      <point x="117" y="325" type="line"/>
    </contour>
  </outline>
</glyph>
<glyph name="f" format="2">
  <advance width="370"/>
  <unicode hex="0066"/>
  <note>
f
</note>
  <outline>
    <contour>
      <point x="119" y="0" type="line"/>
      <point x="224" y="0" type="line"/>
      <point x="224" y="579" type="line" smooth="yes"/>
      <point x="224" y="623"/>
      <point x="248" y="649"/>
      <point x="297" y="649" type="curve" smooth="yes"/>
      <point x="360" y="649" type="line"/>
      <point x="360" y="735" type="line"/>
      <point x="292" y="735" type="line" smooth="yes"/>
      <point x="252" y="735"/>
      <point x="195" y="736"/>
      <point x="154" y="690" type="curve" smooth="yes"/>
      <point x="120" y="653"/>
      <point x="119" y="600"/>
      <point x="119" y="559" type="curve" smooth="yes"/>
    </contour>
    <contour>
      <point x="30" y="456" type="line"/>
      <point x="360" y="456" type="line"/>
      <point x="360" y="540" type="line"/>
      <point x="30" y="540" type="line"/>
    </contour>
  </outline>
</glyph>
<glyph name="h" format="2">
  <advance width="615"/>
  <unicode hex="0068"/>
  <note>
h
</note>
  <outline>
    <contour>
      <point x="449" y="0" type="line"/>
      <point x="555" y="0" type="line"/>
      <point x="555" y="300" type="line" smooth="yes"/>
      <point x="555" y="383"/>
      <point x="528" y="555"/>
      <point x="341" y="555" type="curve" smooth="yes"/>
      <point x="196" y="555"/>
      <point x="110" y="452"/>
      <point x="110" y="305" type="curve"/>
      <point x="175" y="281" type="line"/>
      <point x="175" y="409"/>
      <point x="237" y="456"/>
      <point x="313" y="456" type="curve" smooth="yes"/>
      <point x="427" y="456"/>
      <point x="449" y="349"/>
      <point x="449" y="265" type="curve" smooth="yes"/>
    </contour>
    <contour>
      <point x="70" y="0" type="line"/>
      <point x="175" y="0" type="line"/>
      <point x="175" y="332" type="line"/>
      <point x="163" y="332" type="line"/>
      <point x="163" y="720" type="line"/>
      <point x="70" y="720" type="line"/>
    </contour>
  </outline>
</glyph>
<glyph name="j" format="2">
  <advance width="276"/>
  <unicode hex="006A"/>
  <note>
j
</note>
  <outline>
    <contour>
      <point x="-10" y="-240" type="line"/>
      <point x="62" y="-240" type="line" smooth="yes"/>
      <point x="152" y="-240"/>
      <point x="202" y="-190"/>
      <point x="202" y="-102" type="curve" smooth="yes"/>
      <point x="202" y="540" type="line"/>
      <point x="98" y="540" type="line"/>
      <point x="98" y="-60" type="line" smooth="yes"/>
      <point x="98" y="-115"/>
      <point x="73" y="-141"/>
      <point x="17" y="-141" type="curve" smooth="yes"/>
      <point x="-10" y="-141" type="line"/>
    </contour>
    <contour>
      <point x="98" y="615" type="line"/>
      <point x="202" y="615" type="line"/>
      <point x="202" y="717" type="line"/>
      <point x="98" y="717" type="line"/>
    </contour>
  </outline>
</glyph>
<glyph name="m" format="2">
  <advance width="883"/>
  <unicode hex="006D"/>
  <note>
m
</note>
  <outline>
    <contour>
      <point x="718" y="0" type="line"/>
      <point x="822" y="0" type="line"/>
      <point x="823" y="362" type="line" smooth="yes"/>
      <point x="823" y="478"/>
      <point x="755" y="554"/>
      <point x="639" y="554" type="curve" smooth="yes"/>
      <point x="531" y="554"/>
      <point x="447" y="477"/>
      <point x="449" y="363" type="curve"/>
      <point x="499" y="338" type="line"/>
      <point x="499" y="419"/>
      <point x="550" y="460"/>
      <point x="609" y="460" type="curve" smooth="yes"/>
      <point x="674" y="460"/>
      <point x="718" y="414"/>
      <point x="718" y="337" type="curve" smooth="yes"/>
    </contour>
    <contour>
      <point x="70" y="0" type="line"/>
      <point x="175" y="0" type="line"/>
      <point x="175" y="384" type="line"/>
      <point x="163" y="384" type="line"/>
      <point x="163" y="540" type="line"/>
      <point x="70" y="540" type="line"/>
    </contour>
    <contour>
      <point x="394" y="0" type="line"/>
      <point x="499" y="0" type="line"/>
      <point x="499" y="361" type="line" smooth="yes"/>
      <point x="499" y="475"/>
      <point x="433" y="554"/>
      <point x="318" y="554" type="curve" smooth="yes"/>
      <point x="208" y="554"/>
      <point x="125" y="475"/>
      <point x="125" y="370" type="curve"/>
      <point x="175" y="338" type="line"/>
      <point x="175" y="411"/>
      <point x="219" y="460"/>
      <point x="285" y="460" type="curve" smooth="yes"/>
      <point x="352" y="460"/>
      <point x="395" y="413"/>
      <point x="395" y="334" type="curve" smooth="yes"/>
    </contour>
  </outline>
</glyph>
<glyph name="n" format="2">
  <advance width="615"/>
  <unicode hex="006E"/>
  <note>
n
</note>
  <outline>
    <contour>
      <point x="449" y="0" type="line"/>
      <point x="555" y="0" type="line"/>
      <point x="555" y="300" type="line" smooth="yes"/>
      <point x="555" y="383"/>
      <point x="528" y="555"/>
      <point x="341" y="555" type="curve" smooth="yes"/>
      <point x="196" y="555"/>
      <point x="110" y="452"/>
      <point x="110" y="305" type="curve"/>
      <point x="175" y="281" type="line"/>
      <point x="175" y="409"/>
      <point x="237" y="456"/>
      <point x="313" y="456" type="curve" smooth="yes"/>
      <point x="427" y="456"/>
      <point x="449" y="349"/>
      <point x="449" y="265" type="curve" smooth="yes"/>
    </contour>
    <contour>
      <point x="70" y="0" type="line"/>
      <point x="175" y="0" type="line"/>
      <point x="175" y="384" type="line"/>
      <point x="163" y="384" type="line"/>
      <point x="163" y="540" type="line"/>
      <point x="70" y="540" type="line"/>
    </contour>
  </outline>
</glyph>
<glyph name="o" format="2">
  <advance width="609"/>
  <unicode hex="006F"/>
  <note>
o
</note>
  <outline>
    <contour>
      <point x="304" y="-15" type="curve" smooth="yes"/>
      <point x="465" y="-15"/>
      <point x="569" y="101"/>
      <point x="569" y="270" type="curve" smooth="yes"/>
      <point x="569" y="437"/>
      <point x="467" y="555"/>
      <point x="304" y="555" type="curve" smooth="yes"/>
      <point x="145" y="555"/>
      <point x="40" y="440"/>
      <point x="40" y="270" type="curve" smooth="yes"/>
      <point x="40" y="103"/>
      <point x="142" y="-15"/>
    </contour>
    <contour>
      <point x="304" y="84" type="curve" smooth="yes"/>
      <point x="203" y="84"/>
      <point x="151" y="157"/>
      <point x="151" y="270" type="curve" smooth="yes"/>
      <point x="151" y="380"/>
      <point x="199" y="456"/>
      <point x="304" y="456" type="curve" smooth="yes"/>
      <point x="407" y="456"/>
      <point x="458" y="383"/>
      <point x="458" y="270" type="curve" smooth="yes"/>
      <point x="458" y="160"/>
      <point x="408" y="84"/>
    </contour>
  </outline>
</glyph>
<glyph name="r" format="2">
  <advance width="386"/>
  <unicode hex="0072"/>
  <note>
r
</note>
  <outline>
    <contour>
      <point x="70" y="0" type="line"/>
      <point x="175" y="0" type="line"/>
      <point x="175" y="273" type="line" smooth="yes"/>
      <point x="175" y="336"/>
      <point x="193" y="393"/>
      <point x="244" y="425" type="curve" smooth="yes"/>
      <point x="279" y="449"/>
      <point x="326" y="451"/>
      <point x="361" y="442" type="curve"/>
      <point x="361" y="540" type="line"/>
      <point x="313" y="549"/>
      <point x="254" y="540"/>
      <point x="213" y="509" type="curve" smooth="yes"/>
      <point x="185" y="491"/>
      <point x="163" y="460"/>
      <point x="150" y="426" type="curve"/>
      <point x="163" y="409" type="line"/>
      <point x="163" y="540" type="line"/>
      <point x="70" y="540" type="line"/>
    </contour>
  </outline>
</glyph>
<glyph name="s" format="2">
  <advance width="536"/>
  <unicode hex="0073"/>
  <note>
s
</note>
  <outline>
    <contour>
      <point x="276" y="-15" type="curve" smooth="yes"/>
      <point x="407" y="-15"/>
      <point x="496" y="45"/>
      <point x="496" y="156" type="curve" smooth="yes"/>
      <point x="496" y="252"/>
      <point x="427" y="287"/>
      <point x="313" y="316" type="curve" smooth="yes"/>
      <point x="210" y="343"/>
      <point x="162" y="355"/>
      <point x="162" y="398" type="curve" smooth="yes"/>
      <point x="162" y="440"/>
      <point x="206" y="465"/>
      <point x="268" y="463" type="curve" smooth="yes"/>
      <point x="329" y="460"/>
      <point x="377" y="433"/>
      <point x="386" y="377" type="curve"/>
      <point x="493" y="396" type="line"/>
      <point x="480" y="497"/>
      <point x="385" y="555"/>
      <point x="267" y="555" type="curve" smooth="yes"/>
      <point x="157" y="555"/>
      <point x="57" y="504"/>
      <point x="57" y="393" type="curve" smooth="yes"/>
      <point x="57" y="303"/>
      <point x="125" y="269"/>
      <point x="243" y="238" type="curve" smooth="yes"/>
      <point x="347" y="211"/>
      <point x="388" y="201"/>
      <point x="388" y="152" type="curve" smooth="yes"/>
      <point x="388" y="102"/>
      <point x="343" y="77"/>
      <point x="283" y="77" type="curve" smooth="yes"/>
      <point x="219" y="77"/>
      <point x="161" y="106"/>
      <point x="147" y="168" type="curve"/>
      <point x="40" y="151" type="line"/>
      <point x="60" y="38"/>
      <point x="155" y="-15"/>
    </contour>
  </outline>
</glyph>
<glyph name="t" format="2">
  <advance width="422"/>
  <unicode hex="0074"/>
  <note>
t
</note>
  <outline>
    <contour>
      <point x="379" y="0" type="curve"/>
      <point x="379" y="89" type="line"/>
      <point x="308" y="78"/>
      <point x="253" y="79"/>
      <point x="229" y="121" type="curve" smooth="yes"/>
      <point x="216" y="142"/>
      <point x="218" y="174"/>
      <point x="218" y="218" type="curve" smooth="yes"/>
      <point x="218" y="690" type="line"/>
      <point x="114" y="690" type="line"/>
      <point x="114" y="212" type="line" smooth="yes"/>
      <point x="114" y="153"/>
      <point x="110" y="110"/>
      <point x="133" y="66" type="curve" smooth="yes"/>
      <point x="173" y="-10"/>
      <point x="277" y="-20"/>
    </contour>
    <contour>
      <point x="10" y="456" type="line"/>
      <point x="379" y="456" type="line"/>
      <point x="379" y="540" type="line"/>
      <point x="10" y="540" type="line"/>
    </contour>
  </outline>
</glyph>
<glyph name="u" format="2">
  <advance width="615"/>
  <unicode hex="0075"/>
  <note>
u
</note>
  <outline>
    <contour>
      <point x="274" y="-15" type="curve" smooth="yes"/>
      <point x="419" y="-15"/>
      <point x="505" y="88"/>
      <point x="505" y="235" type="curve"/>
      <point x="440" y="259" type="line"/>
      <point x="440" y="131"/>
      <point x="378" y="84"/>
      <point x="302" y="84" type="curve" smooth="yes"/>
      <point x="188" y="84"/>
      <point x="166" y="191"/>
      <point x="166" y="275" type="curve" smooth="yes"/>
      <point x="166" y="540" type="line"/>
      <point x="60" y="540" type="line"/>
      <point x="60" y="240" type="line" smooth="yes"/>
      <point x="60" y="157"/>
      <point x="87" y="-15"/>
    </contour>
    <contour>
      <point x="452" y="0" type="line"/>
      <point x="545" y="0" type="line"/>
      <point x="545" y="540" type="line"/>
      <point x="440" y="540" type="line"/>
      <point x="440" y="156" type="line"/>
      <point x="452" y="156" type="line"/>
    </contour>
  </outline>
</glyph>
<glyph name="v" format="2">
  <advance width="538"/>
  <unicode hex="0076"/>
  <outline>
    <contour>
      <point x="216" y="0" type="line"/>
      <point x="322" y="0" type="line"/>
      <point x="518" y="540" type="line"/>
      <point x="412" y="540" type="line"/>
      <point x="269" y="131" type="line"/>
      <point x="125" y="540" type="line"/>
      <point x="20" y="540" type="line"/>
    </contour>
  </outline>
</glyph>
<glyph name="w" format="2">
  <advance width="791"/>
  <unicode hex="0077"/>
  <note>
w
</note>
  <outline>
    <contour>
      <point x="185" y="0" type="line"/>
      <point x="269" y="0" type="line"/>
      <point x="395" y="391" type="line"/>
      <point x="516" y="0" type="line"/>
      <point x="606" y="0" type="line"/>
      <point x="771" y="540" type="line"/>
      <point x="668" y="540" type="line"/>
      <point x="554" y="169" type="line"/>
      <point x="441" y="540" type="line"/>
      <point x="351" y="540" type="line"/>
      <point x="237" y="169" type="line"/>
      <point x="124" y="540" type="line"/>
      <point x="20" y="541" type="line"/>
    </contour>
  </outline>
</glyph>
<glyph name="x" format="2">
  <advance width="545"/>
  <unicode hex="0078"/>
  <note>
x
</note>
  <outline>
    <contour>
      <point x="10" y="0" type="line"/>
      <point x="134" y="0" type="line"/>
      <point x="273" y="191" type="line"/>
      <point x="411" y="0" type="line"/>
      <point x="535" y="0" type="line"/>
      <point x="332" y="273" type="line"/>
      <point x="530" y="540" type="line"/>
      <point x="406" y="540" type="line"/>
      <point x="273" y="355" type="line"/>
      <point x="138" y="540" type="line"/>
      <point x="14" y="540" type="line"/>
      <point x="212" y="273" type="line"/>
    </contour>
  </outline>
</glyph>
<glyph name="y" format="2">
  <advance width="549"/>
  <unicode hex="0079"/>
  <note>
y
</note>
  <outline>
    <contour>
      <point x="143" y="-240" type="line"/>
      <point x="243" y="-240" type="line"/>
      <point x="540" y="540" type="line"/>
      <point x="435" y="540" type="line"/>
      <point x="267" y="93" type="line"/>
      <point x="299" y="93" type="line"/>
      <point x="123" y="540" type="line"/>
      <point x="13" y="540" type="line"/>
      <point x="249" y="-39" type="line"/>
      <point x="247" y="45" type="line"/>
    </contour>
  </outline>
</glyph>
<glyph name="z" format="2">
  <advance width="532"/>
  <unicode hex="007A"/>
  <note>
z
</note>
  <outline>
    <contour>
      <point x="20" y="0" type="line"/>
      <point x="478" y="0" type="line"/>
      <point x="478" y="93" type="line"/>
      <point x="186" y="93" type="line"/>
      <point x="492" y="523" type="line"/>
      <point x="492" y="540" type="line"/>
      <point x="48" y="540" type="line"/>
      <point x="48" y="447" type="line"/>
      <point x="327" y="447" type="line"/>
      <point x="20" y="16" type="line"/>
    </contour>
  </outline>
</glyph>
<glyph name="braceleft" format="2">
  <advance width="439"/>
  <unicode hex="007B"/>
  <outline>
    <contour>
      <point x="332" y="-214" type="curve" smooth="yes"/>
      <point x="398" y="-214" type="line"/>
      <point x="398" y="-115" type="line"/>
      <point x="339" y="-115" type="line" smooth="yes"/>
      <point x="317" y="-115"/>
      <point x="299" y="-97"/>
      <point x="299" y="-75" type="curve" smooth="yes"/>
      <point x="299" y="228" type="line" smooth="yes"/>
      <point x="299" y="256"/>
      <point x="290" y="284"/>
      <point x="273" y="308" type="curve" smooth="yes"/>
      <point x="250" y="340" type="line"/>
      <point x="273" y="372" type="line" smooth="yes"/>
      <point x="290" y="396"/>
      <point x="299" y="424"/>
      <point x="299" y="452" type="curve" smooth="yes"/>
      <point x="299" y="754" type="line" smooth="yes"/>
      <point x="299" y="777"/>
      <point x="317" y="795"/>
      <point x="339" y="795" type="curve" smooth="yes"/>
      <point x="398" y="795" type="line"/>
      <point x="398" y="894" type="line"/>
      <point x="332" y="894" type="line" smooth="yes"/>
      <point x="252" y="894"/>
      <point x="199" y="841"/>
      <point x="199" y="761" type="curve" smooth="yes"/>
      <point x="199" y="452" type="line" smooth="yes"/>
      <point x="199" y="444"/>
      <point x="197" y="437"/>
      <point x="192" y="430" type="curve" smooth="yes"/>
      <point x="149" y="368" type="line" smooth="yes"/>
      <point x="137" y="351"/>
      <point x="137" y="329"/>
      <point x="149" y="312" type="curve" smooth="yes"/>
      <point x="192" y="250" type="line" smooth="yes"/>
      <point x="197" y="244"/>
      <point x="199" y="236"/>
      <point x="199" y="228" type="curve" smooth="yes"/>
      <point x="199" y="-81" type="line" smooth="yes"/>
      <point x="199" y="-162"/>
      <point x="252" y="-214"/>
    </contour>
  </outline>
</glyph>
<glyph name="cent" format="2">
  <advance width="568"/>
  <unicode hex="00A2"/>
  <outline>
    <contour>
      <point x="264" y="-29" type="line"/>
      <point x="348" y="-29" type="line"/>
      <point x="348" y="64" type="line"/>
      <point x="439" y="78"/>
      <point x="505" y="133"/>
      <point x="537" y="223" type="curve"/>
      <point x="430" y="249" type="line"/>
      <point x="409" y="190"/>
      <point x="368" y="159"/>
      <point x="301" y="159" type="curve" smooth="yes"/>
      <point x="202" y="159"/>
      <point x="152" y="233"/>
      <point x="151" y="345" type="curve" smooth="yes"/>
      <point x="152" y="453"/>
      <point x="198" y="531"/>
      <point x="301" y="531" type="curve" smooth="yes"/>
      <point x="361" y="531"/>
      <point x="412" y="496"/>
      <point x="433" y="436" type="curve"/>
      <point x="537" y="465" type="line"/>
      <point x="513" y="554"/>
      <point x="442" y="612"/>
      <point x="348" y="626" type="curve"/>
      <point x="348" y="720" type="line"/>
      <point x="264" y="720" type="line"/>
      <point x="264" y="627" type="line"/>
      <point x="123" y="610"/>
      <point x="41" y="498"/>
      <point x="40" y="345" type="curve" smooth="yes"/>
      <point x="41" y="193"/>
      <point x="121" y="79"/>
      <point x="264" y="62" type="curve"/>
    </contour>
  </outline>
</glyph>
<glyph name="sterling" format="2">
  <advance width="547"/>
  <unicode hex="00A3"/>
  <outline>
    <contour>
      <point x="20" y="0" type="line"/>
      <point x="477" y="0" type="line"/>
      <point x="477" y="99" type="line"/>
      <point x="225" y="99" type="line"/>
      <point x="225" y="539" type="line" smooth="yes"/>
      <point x="225" y="596"/>
      <point x="262" y="636"/>
      <point x="317" y="636" type="curve" smooth="yes"/>
      <point x="370" y="636"/>
      <point x="400" y="595"/>
      <point x="423" y="523" type="curve"/>
      <point x="517" y="554" type="line"/>
      <point x="480" y="663"/>
      <point x="419" y="735"/>
      <point x="318" y="735" type="curve" smooth="yes"/>
      <point x="206" y="735"/>
      <point x="119" y="654"/>
      <point x="119" y="544" type="curve" smooth="yes"/>
      <point x="119" y="172" type="line" smooth="yes"/>
      <point x="119" y="133"/>
      <point x="86" y="99"/>
      <point x="46" y="99" type="curve" smooth="yes"/>
      <point x="20" y="99" type="line"/>
    </contour>
    <contour>
      <point x="20" y="313" type="line"/>
      <point x="387" y="313" type="line"/>
      <point x="387" y="412" type="line"/>
      <point x="20" y="412" type="line"/>
    </contour>
  </outline>
</glyph>
<glyph name="currency" format="2">
  <advance width="661"/>
  <unicode hex="00A4"/>
  <outline>
    <contour>
      <point x="330" y="98" type="curve" smooth="yes"/>
      <point x="475" y="98"/>
      <point x="593" y="216"/>
      <point x="593" y="361" type="curve" smooth="yes"/>
      <point x="593" y="505"/>
      <point x="475" y="623"/>
      <point x="330" y="623" type="curve" smooth="yes"/>
      <point x="186" y="623"/>
      <point x="68" y="505"/>
      <point x="68" y="361" type="curve" smooth="yes"/>
      <point x="68" y="216"/>
      <point x="186" y="98"/>
    </contour>
    <contour>
      <point x="100" y="60" type="line"/>
      <point x="217" y="177" type="line"/>
      <point x="147" y="247" type="line"/>
      <point x="30" y="130" type="line"/>
    </contour>
    <contour>
      <point x="147" y="473" type="line"/>
      <point x="217" y="543" type="line"/>
      <point x="100" y="660" type="line"/>
      <point x="30" y="590" type="line"/>
    </contour>
    <contour>
      <point x="561" y="60" type="line"/>
      <point x="631" y="130" type="line"/>
      <point x="514" y="247" type="line"/>
      <point x="444" y="177" type="line"/>
    </contour>
    <contour>
      <point x="330" y="188" type="curve" smooth="yes"/>
      <point x="235" y="188"/>
      <point x="158" y="267"/>
      <point x="158" y="360" type="curve" smooth="yes"/>
      <point x="158" y="455"/>
      <point x="235" y="532"/>
      <point x="330" y="532" type="curve" smooth="yes"/>
      <point x="423" y="532"/>
      <point x="503" y="455"/>
      <point x="503" y="360" type="curve" smooth="yes"/>
      <point x="503" y="267"/>
      <point x="426" y="188"/>
    </contour>
    <contour>
      <point x="514" y="473" type="line"/>
      <point x="631" y="590" type="line"/>
      <point x="561" y="660" type="line"/>
      <point x="444" y="543" type="line"/>
    </contour>
  </outline>
</glyph>
<glyph name="yen" format="2">
  <advance width="593"/>
  <unicode hex="00A5"/>
  <outline>
    <contour>
      <point x="97" y="261" type="line"/>
      <point x="497" y="261" type="line"/>
      <point x="497" y="345" type="line"/>
      <point x="97" y="345" type="line"/>
    </contour>
    <contour>
      <point x="97" y="103" type="line"/>
      <point x="497" y="103" type="line"/>
      <point x="497" y="187" type="line"/>
      <point x="97" y="187" type="line"/>
    </contour>
    <component base="Y"/>
  </outline>
</glyph>
<glyph name="brokenbar" format="2">
  <advance width="285"/>
  <unicode hex="00A6"/>
  <outline>
    <contour>
      <point x="90" y="325" type="line"/>
      <point x="195" y="325" type="line"/>
      <point x="195" y="720" type="line"/>
      <point x="90" y="720" type="line"/>
    </contour>
    <contour>
      <point x="90" y="-188" type="line"/>
      <point x="195" y="-188" type="line"/>
      <point x="195" y="207" type="line"/>
      <point x="90" y="207" type="line"/>
    </contour>
  </outline>
</glyph>
<glyph name="section" format="2">
  <advance width="536"/>
  <unicode hex="00A7"/>
  <outline>
    <contour>
      <point x="277" y="-145" type="curve" smooth="yes"/>
      <point x="396" y="-145"/>
      <point x="486" y="-85"/>
      <point x="486" y="28" type="curve" smooth="yes"/>
      <point x="486" y="123"/>
      <point x="419" y="155"/>
      <point x="303" y="186" type="curve" smooth="yes"/>
      <point x="212" y="211"/>
      <point x="152" y="220"/>
      <point x="152" y="270" type="curve" smooth="yes"/>
      <point x="152" y="310"/>
      <point x="189" y="335"/>
      <point x="248" y="353" type="curve"/>
      <point x="241" y="394" type="line"/>
      <point x="149" y="398"/>
      <point x="47" y="355"/>
      <point x="47" y="256" type="curve" smooth="yes"/>
      <point x="47" y="175"/>
      <point x="115" y="139"/>
      <point x="233" y="108" type="curve" smooth="yes"/>
      <point x="337" y="81"/>
      <point x="378" y="71"/>
      <point x="378" y="22" type="curve" smooth="yes"/>
      <point x="378" y="-28"/>
      <point x="332" y="-53"/>
      <point x="283" y="-53" type="curve" smooth="yes"/>
      <point x="231" y="-53"/>
      <point x="175" y="-24"/>
      <point x="160" y="38" type="curve"/>
      <point x="53" y="21" type="line"/>
      <point x="74" y="-94"/>
      <point x="168" y="-145"/>
    </contour>
    <contour>
      <point x="306" y="130" type="line"/>
      <point x="421" y="114"/>
      <point x="499" y="167"/>
      <point x="499" y="267" type="curve" smooth="yes"/>
      <point x="499" y="360"/>
      <point x="432" y="392"/>
      <point x="316" y="423" type="curve" smooth="yes"/>
      <point x="229" y="447"/>
      <point x="165" y="456"/>
      <point x="165" y="507" type="curve" smooth="yes"/>
      <point x="165" y="547"/>
      <point x="205" y="570"/>
      <point x="253" y="570" type="curve" smooth="yes"/>
      <point x="304" y="570"/>
      <point x="348" y="545"/>
      <point x="359" y="484" type="curve"/>
      <point x="466" y="503" type="line"/>
      <point x="453" y="604"/>
      <point x="360" y="662"/>
      <point x="258" y="662" type="curve" smooth="yes"/>
      <point x="162" y="662"/>
      <point x="61" y="611"/>
      <point x="61" y="500" type="curve" smooth="yes"/>
      <point x="61" y="409"/>
      <point x="128" y="376"/>
      <point x="246" y="345" type="curve" smooth="yes"/>
      <point x="350" y="318"/>
      <point x="391" y="308"/>
      <point x="391" y="259" type="curve" smooth="yes"/>
      <point x="391" y="208"/>
      <point x="346" y="177"/>
      <point x="303" y="171" type="curve"/>
    </contour>
  </outline>
</glyph>
<glyph name="copyright" format="2">
  <advance width="859"/>
  <unicode hex="00A9"/>
  <outline>
    <contour>
      <point x="429" y="-48" type="curve" smooth="yes"/>
      <point x="650" y="-48"/>
      <point x="829" y="130"/>
      <point x="829" y="351" type="curve" smooth="yes"/>
      <point x="829" y="572"/>
      <point x="650" y="750"/>
      <point x="429" y="750" type="curve" smooth="yes"/>
      <point x="209" y="750"/>
      <point x="30" y="572"/>
      <point x="30" y="351" type="curve" smooth="yes"/>
      <point x="30" y="130"/>
      <point x="209" y="-48"/>
    </contour>
    <contour>
      <point x="436" y="139" type="curve" smooth="yes"/>
      <point x="484" y="139"/>
      <point x="518" y="150"/>
      <point x="548" y="171" type="curve" smooth="yes"/>
      <point x="577" y="192"/>
      <point x="600" y="224"/>
      <point x="613" y="263" type="curve"/>
      <point x="529" y="282" type="line"/>
      <point x="522" y="263"/>
      <point x="513" y="248"/>
      <point x="496" y="234" type="curve" smooth="yes"/>
      <point x="481" y="222"/>
      <point x="461" y="216"/>
      <point x="437" y="216" type="curve" smooth="yes"/>
      <point x="400" y="216"/>
      <point x="372" y="230"/>
      <point x="354" y="256" type="curve" smooth="yes"/>
      <point x="335" y="282"/>
      <point x="327" y="316"/>
      <point x="327" y="352" type="curve" smooth="yes"/>
      <point x="327" y="386"/>
      <point x="333" y="422"/>
      <point x="354" y="448" type="curve" smooth="yes"/>
      <point x="373" y="472"/>
      <point x="401" y="487"/>
      <point x="436" y="487" type="curve" smooth="yes"/>
      <point x="457" y="487"/>
      <point x="478" y="481"/>
      <point x="495" y="468" type="curve" smooth="yes"/>
      <point x="512" y="454"/>
      <point x="524" y="436"/>
      <point x="531" y="416" type="curve"/>
      <point x="613" y="439" type="line"/>
      <point x="602" y="483"/>
      <point x="575" y="516"/>
      <point x="540" y="538" type="curve" smooth="yes"/>
      <point x="507" y="558"/>
      <point x="477" y="564"/>
      <point x="440" y="564" type="curve" smooth="yes"/>
      <point x="372" y="564"/>
      <point x="324" y="542"/>
      <point x="288" y="497" type="curve" smooth="yes"/>
      <point x="255" y="457"/>
      <point x="240" y="406"/>
      <point x="240" y="352" type="curve" smooth="yes"/>
      <point x="240" y="299"/>
      <point x="253" y="249"/>
      <point x="288" y="205" type="curve" smooth="yes"/>
      <point x="325" y="159"/>
      <point x="371" y="139"/>
    </contour>
    <contour>
      <point x="429" y="51" type="curve" smooth="yes"/>
      <point x="263" y="51"/>
      <point x="129" y="185"/>
      <point x="129" y="351" type="curve" smooth="yes"/>
      <point x="129" y="517"/>
      <point x="263" y="651"/>
      <point x="429" y="651" type="curve" smooth="yes"/>
      <point x="595" y="651"/>
      <point x="729" y="517"/>
      <point x="729" y="351" type="curve" smooth="yes"/>
      <point x="729" y="185"/>
      <point x="595" y="51"/>
    </contour>
  </outline>
</glyph>
<glyph name="guillemetleft" format="2">
  <advance width="569"/>
  <unicode hex="00AB"/>
  <outline>
    <contour>
      <point x="448" y="95" type="line"/>
      <point x="506" y="140" type="line"/>
      <point x="367" y="315" type="line"/>
      <point x="506" y="490" type="line"/>
      <point x="448" y="535" type="line"/>
      <point x="273" y="315" type="line"/>
    </contour>
    <contour>
      <point x="255" y="95" type="line"/>
      <point x="313" y="140" type="line"/>
      <point x="173" y="315" type="line"/>
      <point x="313" y="490" type="line"/>
      <point x="255" y="535" type="line"/>
      <point x="80" y="315" type="line"/>
    </contour>
  </outline>
</glyph>
<glyph name="logicalnot" format="2">
  <advance width="600"/>
  <unicode hex="00AC"/>
  <outline>
    <contour>
      <point x="456" y="189" type="line"/>
      <point x="540" y="189" type="line"/>
      <point x="540" y="392" type="line"/>
      <point x="60" y="392" type="line"/>
      <point x="60" y="308" type="line"/>
      <point x="456" y="308" type="line"/>
    </contour>
  </outline>
</glyph>
<glyph name="registered" format="2">
  <advance width="645"/>
  <unicode hex="00AE"/>
  <outline>
    <contour>
      <point x="322" y="278" type="curve" smooth="yes"/>
      <point x="462" y="278"/>
      <point x="575" y="391"/>
      <point x="575" y="531" type="curve" smooth="yes"/>
      <point x="575" y="669"/>
      <point x="462" y="783"/>
      <point x="322" y="783" type="curve" smooth="yes"/>
      <point x="183" y="783"/>
      <point x="70" y="669"/>
      <point x="70" y="531" type="curve" smooth="yes"/>
      <point x="70" y="391"/>
      <point x="183" y="278"/>
    </contour>
    <contour>
      <point x="323" y="350" type="curve" smooth="yes"/>
      <point x="223" y="350"/>
      <point x="143" y="432"/>
      <point x="143" y="531" type="curve" smooth="yes"/>
      <point x="143" y="630"/>
      <point x="223" y="711"/>
      <point x="323" y="711" type="curve" smooth="yes"/>
      <point x="421" y="711"/>
      <point x="503" y="630"/>
      <point x="503" y="531" type="curve" smooth="yes"/>
      <point x="503" y="432"/>
      <point x="421" y="350"/>
    </contour>
    <contour>
      <point x="240" y="414" type="line"/>
      <point x="282" y="414" type="line"/>
      <point x="282" y="495" type="line"/>
      <point x="335" y="495" type="line"/>
      <point x="375" y="414" type="line"/>
      <point x="422" y="414" type="line"/>
      <point x="378" y="503" type="line"/>
      <point x="406" y="517"/>
      <point x="420" y="544"/>
      <point x="420" y="572" type="curve" smooth="yes"/>
      <point x="419" y="617"/>
      <point x="388" y="649"/>
      <point x="341" y="649" type="curve" smooth="yes"/>
      <point x="240" y="649" type="line"/>
    </contour>
    <contour>
      <point x="282" y="534" type="line"/>
      <point x="282" y="609" type="line"/>
      <point x="342" y="609" type="line" smooth="yes"/>
      <point x="363" y="609"/>
      <point x="377" y="595"/>
      <point x="377" y="572" type="curve" smooth="yes"/>
      <point x="377" y="550"/>
      <point x="362" y="534"/>
      <point x="342" y="534" type="curve" smooth="yes"/>
    </contour>
  </outline>
</glyph>
<glyph name="degree" format="2">
  <advance width="450"/>
  <unicode hex="00B0"/>
  <outline>
    <contour>
      <point x="210" y="375" type="curve" smooth="yes"/>
      <point x="309" y="375"/>
      <point x="390" y="455"/>
      <point x="390" y="555" type="curve" smooth="yes"/>
      <point x="390" y="655"/>
      <point x="309" y="735"/>
      <point x="210" y="735" type="curve" smooth="yes"/>
      <point x="114" y="735"/>
      <point x="30" y="653"/>
      <point x="30" y="555" type="curve" smooth="yes"/>
      <point x="30" y="455"/>
      <point x="111" y="375"/>
    </contour>
    <contour>
      <point x="210" y="466" type="curve" smooth="yes"/>
      <point x="162" y="466"/>
      <point x="121" y="507"/>
      <point x="121" y="555" type="curve" smooth="yes"/>
      <point x="121" y="603"/>
      <point x="162" y="644"/>
      <point x="210" y="644" type="curve" smooth="yes"/>
      <point x="258" y="644"/>
      <point x="299" y="603"/>
      <point x="299" y="555" type="curve" smooth="yes"/>
      <point x="299" y="507"/>
      <point x="258" y="466"/>
    </contour>
  </outline>
</glyph>
<glyph name="plusminus" format="2">
  <advance width="600"/>
  <unicode hex="00B1"/>
  <outline>
    <contour>
      <point x="258" y="220" type="line"/>
      <point x="342" y="220" type="line"/>
      <point x="342" y="338" type="line"/>
      <point x="540" y="338" type="line"/>
      <point x="540" y="422" type="line"/>
      <point x="342" y="422" type="line"/>
      <point x="342" y="540" type="line"/>
      <point x="258" y="540" type="line"/>
      <point x="258" y="422" type="line"/>
      <point x="60" y="422" type="line"/>
      <point x="60" y="338" type="line"/>
      <point x="258" y="338" type="line"/>
    </contour>
    <contour>
      <point x="60" y="69" type="line"/>
      <point x="540" y="69" type="line"/>
      <point x="540" y="153" type="line"/>
      <point x="60" y="153" type="line"/>
    </contour>
  </outline>
</glyph>
<glyph name="twosuperior" format="2">
  <advance width="408"/>
  <unicode hex="00B2"/>
  <outline>
    <contour>
      <point x="50" y="270" type="line"/>
      <point x="358" y="270" type="line"/>
      <point x="358" y="337" type="line"/>
      <point x="125" y="337" type="line"/>
      <point x="134" y="314" type="line"/>
      <point x="282" y="447" type="line" smooth="yes"/>
      <point x="332" y="491"/>
      <point x="358" y="517"/>
      <point x="358" y="580" type="curve" smooth="yes"/>
      <point x="358" y="667"/>
      <point x="293" y="730"/>
      <point x="207" y="730" type="curve" smooth="yes"/>
      <point x="115" y="730"/>
      <point x="51" y="671"/>
      <point x="51" y="582" type="curve"/>
      <point x="124" y="582" type="line"/>
      <point x="122" y="625"/>
      <point x="158" y="664"/>
      <point x="206" y="664" type="curve" smooth="yes"/>
      <point x="252" y="664"/>
      <point x="285" y="628"/>
      <point x="285" y="581" type="curve" smooth="yes"/>
      <point x="285" y="558"/>
      <point x="275" y="534"/>
      <point x="245" y="506" type="curve" smooth="yes"/>
      <point x="50" y="332" type="line"/>
    </contour>
  </outline>
</glyph>
<glyph name="threesuperior" format="2">
  <advance width="399"/>
  <unicode hex="00B3"/>
  <outline>
    <contour>
      <point x="187" y="259" type="curve" smooth="yes"/>
      <point x="271" y="259"/>
      <point x="339" y="322"/>
      <point x="339" y="409" type="curve" smooth="yes"/>
      <point x="339" y="488"/>
      <point x="286" y="551"/>
      <point x="200" y="552" type="curve"/>
      <point x="201" y="527" type="line"/>
      <point x="333" y="653" type="line"/>
      <point x="333" y="720" type="line"/>
      <point x="58" y="720" type="line"/>
      <point x="58" y="653" type="line"/>
      <point x="281" y="653" type="line"/>
      <point x="272" y="676" type="line"/>
      <point x="112" y="536" type="line"/>
      <point x="145" y="481" type="line"/>
      <point x="158" y="487"/>
      <point x="172" y="491"/>
      <point x="186" y="491" type="curve" smooth="yes"/>
      <point x="234" y="491"/>
      <point x="267" y="456"/>
      <point x="267" y="409" type="curve" smooth="yes"/>
      <point x="267" y="362"/>
      <point x="234" y="327"/>
      <point x="187" y="327" type="curve" smooth="yes"/>
      <point x="152" y="326"/>
      <point x="120" y="346"/>
      <point x="108" y="385" type="curve"/>
      <point x="40" y="366" type="line"/>
      <point x="59" y="300"/>
      <point x="119" y="259"/>
    </contour>
  </outline>
</glyph>
<glyph name="paragraph" format="2">
  <advance width="688"/>
  <unicode hex="00B6"/>
  <outline>
    <contour>
      <point x="339" y="-141" type="line"/>
      <point x="444" y="-141" type="line"/>
      <point x="444" y="720" type="line"/>
      <point x="293" y="720" type="line" smooth="yes"/>
      <point x="285" y="720"/>
      <point x="262" y="720"/>
      <point x="237" y="716" type="curve" smooth="yes"/>
      <point x="117" y="698"/>
      <point x="57" y="605"/>
      <point x="57" y="489" type="curve" smooth="yes"/>
      <point x="57" y="373"/>
      <point x="119" y="280"/>
      <point x="237" y="263" type="curve" smooth="yes"/>
      <point x="262" y="259"/>
      <point x="285" y="259"/>
      <point x="293" y="259" type="curve" smooth="yes"/>
      <point x="339" y="259" type="line"/>
    </contour>
    <contour>
      <point x="527" y="-141" type="line"/>
      <point x="632" y="-141" type="line"/>
      <point x="632" y="720" type="line"/>
      <point x="527" y="720" type="line"/>
    </contour>
  </outline>
</glyph>
<glyph name="periodcentered" format="2">
  <advance width="613"/>
  <unicode hex="00B7"/>
  <outline>
    <contour>
      <point x="308" y="248" type="curve" smooth="yes"/>
      <point x="343" y="248"/>
      <point x="373" y="277"/>
      <point x="373" y="315" type="curve" smooth="yes"/>
      <point x="373" y="353"/>
      <point x="343" y="382"/>
      <point x="308" y="382" type="curve" smooth="yes"/>
      <point x="270" y="382"/>
      <point x="240" y="353"/>
      <point x="240" y="315" type="curve" smooth="yes"/>
      <point x="240" y="277"/>
      <point x="270" y="248"/>
    </contour>
  </outline>
</glyph>
<glyph name="AE" format="2">
  <advance width="932"/>
  <unicode hex="00C6"/>
  <outline>
    <contour>
      <point x="20" y="0" type="line"/>
      <point x="128" y="0" type="line"/>
      <point x="170" y="127" type="line"/>
      <point x="422" y="127" type="line"/>
      <point x="422" y="0" type="line"/>
      <point x="882" y="0" type="line"/>
      <point x="882" y="99" type="line"/>
      <point x="526" y="99" type="line"/>
      <point x="526" y="321" type="line"/>
      <point x="822" y="321" type="line"/>
      <point x="822" y="420" type="line"/>
      <point x="526" y="420" type="line"/>
      <point x="526" y="621" type="line"/>
      <point x="882" y="621" type="line"/>
      <point x="882" y="720" type="line"/>
      <point x="254" y="720" type="line"/>
    </contour>
    <contour>
      <point x="201" y="226" type="line"/>
      <point x="329" y="615" type="line"/>
      <point x="422" y="615" type="line"/>
      <point x="422" y="226" type="line"/>
    </contour>
  </outline>
</glyph>
<glyph name="Eth" format="2">
  <advance width="690"/>
  <unicode hex="00D0"/>
  <outline>
    <contour>
      <point x="10" y="318" type="line"/>
      <point x="340" y="318" type="line"/>
      <point x="340" y="402" type="line"/>
      <point x="10" y="402" type="line"/>
    </contour>
    <component base="D" xOffset="-1"/>
  </outline>
</glyph>
<glyph name="Thorn" format="2">
  <advance width="618"/>
  <unicode hex="00DE"/>
  <outline>
    <contour>
      <point x="70" y="0" type="line"/>
      <point x="176" y="0" type="line"/>
      <point x="176" y="130" type="line"/>
      <point x="356" y="130" type="line" smooth="yes"/>
      <point x="428" y="130"/>
      <point x="496" y="164"/>
      <point x="537" y="218" type="curve" smooth="yes"/>
      <point x="569" y="257"/>
      <point x="589" y="309"/>
      <point x="588" y="360" type="curve" smooth="yes"/>
      <point x="588" y="413"/>
      <point x="568" y="466"/>
      <point x="534" y="506" type="curve" smooth="yes"/>
      <point x="508" y="540"/>
      <point x="471" y="565"/>
      <point x="430" y="578" type="curve" smooth="yes"/>
      <point x="406" y="586"/>
      <point x="381" y="591"/>
      <point x="356" y="591" type="curve" smooth="yes"/>
      <point x="176" y="591" type="line"/>
      <point x="176" y="720" type="line"/>
      <point x="70" y="720" type="line"/>
    </contour>
    <contour>
      <point x="176" y="229" type="line"/>
      <point x="176" y="491" type="line"/>
      <point x="355" y="491" type="line" smooth="yes"/>
      <point x="388" y="491"/>
      <point x="424" y="474"/>
      <point x="446" y="449" type="curve" smooth="yes"/>
      <point x="469" y="425"/>
      <point x="480" y="393"/>
      <point x="481" y="360" type="curve" smooth="yes"/>
      <point x="482" y="330"/>
      <point x="471" y="302"/>
      <point x="453" y="279" type="curve" smooth="yes"/>
      <point x="428" y="247"/>
      <point x="389" y="229"/>
      <point x="355" y="229" type="curve" smooth="yes"/>
    </contour>
  </outline>
</glyph>
<glyph name="germandbls" format="2">
  <advance width="623"/>
  <unicode hex="00DF"/>
  <outline>
    <contour>
      <point x="334" y="-15" type="curve" smooth="yes"/>
      <point x="482" y="-15"/>
      <point x="563" y="71"/>
      <point x="563" y="210" type="curve" smooth="yes"/>
      <point x="563" y="308"/>
      <point x="500" y="376"/>
      <point x="434" y="397" type="curve"/>
      <point x="480" y="425"/>
      <point x="503" y="476"/>
      <point x="503" y="536" type="curve" smooth="yes"/>
      <point x="503" y="654"/>
      <point x="409" y="735"/>
      <point x="286" y="735" type="curve" smooth="yes"/>
      <point x="191" y="735"/>
      <point x="110" y="696"/>
      <point x="80" y="605" type="curve" smooth="yes"/>
      <point x="73" y="584"/>
      <point x="70" y="560"/>
      <point x="70" y="531" type="curve" smooth="yes"/>
      <point x="70" y="0" type="line"/>
      <point x="177" y="0" type="line"/>
      <point x="177" y="502" type="line" smooth="yes"/>
      <point x="177" y="531"/>
      <point x="180" y="560"/>
      <point x="189" y="579" type="curve" smooth="yes"/>
      <point x="207" y="620"/>
      <point x="244" y="636"/>
      <point x="286" y="636" type="curve" smooth="yes"/>
      <point x="348" y="636"/>
      <point x="397" y="599"/>
      <point x="397" y="534" type="curve" smooth="yes"/>
      <point x="397" y="469"/>
      <point x="352" y="434"/>
      <point x="287" y="429" type="curve"/>
      <point x="287" y="336" type="line"/>
      <point x="388" y="335"/>
      <point x="457" y="294"/>
      <point x="457" y="211" type="curve" smooth="yes"/>
      <point x="457" y="130"/>
      <point x="403" y="88"/>
      <point x="321" y="88" type="curve" smooth="yes"/>
      <point x="289" y="88"/>
      <point x="264" y="94"/>
      <point x="242" y="103" type="curve"/>
      <point x="242" y="0" type="line"/>
      <point x="267" y="-11"/>
      <point x="295" y="-15"/>
    </contour>
  </outline>
</glyph>
<glyph name="ae" format="2">
  <advance width="937"/>
  <unicode hex="00E6"/>
  <outline>
    <contour>
      <point x="665" y="-15" type="curve" smooth="yes"/>
      <point x="762" y="-15"/>
      <point x="850" y="40"/>
      <point x="889" y="137" type="curve"/>
      <point x="792" y="170" type="line"/>
      <point x="767" y="112"/>
      <point x="718" y="84"/>
      <point x="660" y="84" type="curve" smooth="yes"/>
      <point x="564" y="84"/>
      <point x="515" y="157"/>
      <point x="515" y="270" type="curve" smooth="yes"/>
      <point x="515" y="382"/>
      <point x="556" y="462"/>
      <point x="660" y="462" type="curve" smooth="yes"/>
      <point x="763" y="462"/>
      <point x="796" y="393"/>
      <point x="797" y="279" type="curve"/>
      <point x="797" y="241" type="line"/>
      <point x="897" y="241" type="line"/>
      <point x="906" y="425"/>
      <point x="823" y="555"/>
      <point x="661" y="555" type="curve" smooth="yes"/>
      <point x="507" y="555"/>
      <point x="410" y="439"/>
      <point x="410" y="266" type="curve" smooth="yes"/>
      <point x="410" y="103"/>
      <point x="508" y="-15"/>
    </contour>
    <contour>
      <point x="241" y="70" type="curve" smooth="yes"/>
      <point x="180" y="70"/>
      <point x="143" y="100"/>
      <point x="143" y="148" type="curve" smooth="yes"/>
      <point x="143" y="229"/>
      <point x="249" y="239"/>
      <point x="305" y="243" type="curve" smooth="yes"/>
      <point x="439" y="253" type="line"/>
      <point x="406" y="271" type="line"/>
      <point x="407" y="238"/>
      <point x="405" y="186"/>
      <point x="385" y="149" type="curve" smooth="yes"/>
      <point x="363" y="106"/>
      <point x="307" y="70"/>
    </contour>
    <contour>
      <point x="228" y="-15" type="curve" smooth="yes"/>
      <point x="326" y="-15"/>
      <point x="411" y="21"/>
      <point x="459" y="121" type="curve"/>
      <point x="509" y="327" type="line"/>
      <point x="509" y="349"/>
      <point x="509" y="384"/>
      <point x="498" y="419" type="curve" smooth="yes"/>
      <point x="473" y="504"/>
      <point x="402" y="555"/>
      <point x="288" y="555" type="curve" smooth="yes"/>
      <point x="174" y="555"/>
      <point x="91" y="493"/>
      <point x="60" y="405" type="curve"/>
      <point x="156" y="376" type="line"/>
      <point x="175" y="434"/>
      <point x="227" y="458"/>
      <point x="286" y="458" type="curve" smooth="yes"/>
      <point x="365" y="458"/>
      <point x="414" y="414"/>
      <point x="405" y="308" type="curve"/>
      <point x="426" y="327" type="line"/>
      <point x="286" y="317" type="line" smooth="yes"/>
      <point x="203" y="309"/>
      <point x="40" y="293"/>
      <point x="40" y="145" type="curve" smooth="yes"/>
      <point x="40" y="50"/>
      <point x="108" y="-15"/>
    </contour>
    <contour>
      <point x="482" y="241" type="line"/>
      <point x="847" y="241" type="line"/>
      <point x="847" y="325" type="line"/>
      <point x="482" y="325" type="line"/>
    </contour>
  </outline>
</glyph>
<glyph name="oslash" format="2">
  <advance width="609"/>
  <unicode hex="00F8"/>
  <outline>
    <contour>
      <point x="94" y="-10" type="line"/>
      <point x="585" y="480" type="line"/>
      <point x="515" y="550" type="line"/>
      <point x="24" y="60" type="line"/>
    </contour>
    <component base="o"/>
  </outline>
</glyph>
<glyph name="eogonek" format="2">
  <advance width="596"/>
  <unicode hex="0119"/>
  <outline>
    <contour>
      <point x="468" y="-231" type="curve" smooth="yes"/>
      <point x="489" y="-221"/>
      <point x="504" y="-208"/>
      <point x="515" y="-192" type="curve"/>
      <point x="475" y="-141" type="line"/>
      <point x="456" y="-157"/>
      <point x="427" y="-167"/>
      <point x="410" y="-149" type="curve" smooth="yes"/>
      <point x="400" y="-138"/>
      <point x="402" y="-120"/>
      <point x="405" y="-109" type="curve" smooth="yes"/>
      <point x="411" y="-88"/>
      <point x="425" y="-60"/>
      <point x="443" y="-31" type="curve" smooth="yes"/>
      <point x="460" y="-2"/>
      <point x="502" y="55"/>
      <point x="532" y="108" type="curve"/>
      <point x="461" y="117" type="line"/>
      <point x="435" y="77"/>
      <point x="393" y="26"/>
      <point x="377" y="3" type="curve" smooth="yes"/>
      <point x="361" y="-21"/>
      <point x="340" y="-53"/>
      <point x="329" y="-82" type="curve" smooth="yes"/>
      <point x="312" y="-125"/>
      <point x="320" y="-172"/>
      <point x="345" y="-202" type="curve" smooth="yes"/>
      <point x="374" y="-236"/>
      <point x="425" y="-250"/>
    </contour>
    <component base="e"/>
  </outline>
</glyph>
<glyph name="Eng" format="2">
  <advance width="707"/>
  <unicode hex="014A"/>
  <outline>
    <contour>
      <point x="511" y="-219" type="curve" smooth="yes"/>
      <point x="590" y="-219"/>
      <point x="637" y="-184"/>
      <point x="637" y="-90" type="curve" smooth="yes"/>
      <point x="637" y="40" type="line"/>
      <point x="457" y="112" type="line"/>
      <point x="496" y="53" type="line" smooth="yes"/>
      <point x="535" y="-8"/>
      <point x="548" y="-39"/>
      <point x="548" y="-71" type="curve" smooth="yes"/>
      <point x="548" y="-120"/>
      <point x="519" y="-133"/>
      <point x="482" y="-133" type="curve" smooth="yes"/>
      <point x="469" y="-133"/>
      <point x="455" y="-132"/>
      <point x="444" y="-130" type="curve"/>
      <point x="444" y="-211" type="line"/>
      <point x="464" y="-216"/>
      <point x="486" y="-219"/>
    </contour>
    <component base="N"/>
  </outline>
</glyph>
<glyph name="eng" format="2">
  <advance width="615"/>
  <unicode hex="014B"/>
  <outline>
    <contour>
      <point x="468" y="-215" type="curve" smooth="yes"/>
      <point x="522" y="-205"/>
      <point x="555" y="-162"/>
      <point x="555" y="-90" type="curve" smooth="yes"/>
      <point x="555" y="2" type="line"/>
      <point x="449" y="2" type="line"/>
      <point x="449" y="-62" type="line" smooth="yes"/>
      <point x="449" y="-140"/>
      <point x="405" y="-138"/>
      <point x="363" y="-134" type="curve"/>
      <point x="363" y="-211" type="line"/>
      <point x="393" y="-218"/>
      <point x="426" y="-223"/>
    </contour>
    <component base="n"/>
  </outline>
</glyph>
<glyph name="florin" format="2">
  <advance width="688"/>
  <unicode hex="0192"/>
  <outline>
    <contour>
      <point x="152" y="-15" type="curve" smooth="yes"/>
      <point x="249" y="-15"/>
      <point x="333" y="49"/>
      <point x="357" y="196" type="curve" smooth="yes"/>
      <point x="414" y="542" type="line" smooth="yes"/>
      <point x="426" y="615"/>
      <point x="487" y="636"/>
      <point x="532" y="636" type="curve" smooth="yes"/>
      <point x="575" y="636"/>
      <point x="612" y="617"/>
      <point x="610" y="617" type="curve"/>
      <point x="658" y="704" type="line" smooth="yes"/>
      <point x="630" y="718"/>
      <point x="579" y="735"/>
      <point x="523" y="735" type="curve" smooth="yes"/>
      <point x="380" y="735"/>
      <point x="317" y="618"/>
      <point x="302" y="523" type="curve" smooth="yes"/>
      <point x="251" y="211" type="line" smooth="yes"/>
      <point x="239" y="133"/>
      <point x="201" y="84"/>
      <point x="144" y="84" type="curve" smooth="yes"/>
      <point x="112" y="84"/>
      <point x="76" y="97"/>
      <point x="64" y="104" type="curve"/>
      <point x="20" y="15" type="line"/>
      <point x="48" y="3"/>
      <point x="100" y="-15"/>
    </contour>
    <contour>
      <point x="114" y="318" type="line"/>
      <point x="587" y="318" type="line"/>
      <point x="587" y="402" type="line"/>
      <point x="114" y="402" type="line"/>
    </contour>
  </outline>
</glyph>
<glyph name="gravecomb" format="2">
  <unicode hex="0300"/>
  <outline>
    <contour>
      <point x="374" y="785" type="line"/>
      <point x="402" y="862" type="line"/>
      <point x="148" y="958" type="line"/>
      <point x="120" y="880" type="line"/>
    </contour>
  </outline>
</glyph>
<glyph name="acutecomb" format="2">
  <unicode hex="0301"/>
  <outline>
    <contour>
      <point x="148" y="785" type="line"/>
      <point x="402" y="880" type="line"/>
      <point x="375" y="958" type="line"/>
      <point x="120" y="862" type="line"/>
    </contour>
  </outline>
</glyph>
<glyph name="tildecomb" format="2">
  <unicode hex="0303"/>
  <outline>
    <contour>
      <point x="355" y="811" type="curve" smooth="yes"/>
      <point x="416" y="811"/>
      <point x="457" y="861"/>
      <point x="442" y="928" type="curve"/>
      <point x="377" y="928" type="line"/>
      <point x="385" y="905"/>
      <point x="376" y="888"/>
      <point x="353" y="888" type="curve" smooth="yes"/>
      <point x="313" y="888"/>
      <point x="269" y="937"/>
      <point x="209" y="937" type="curve" smooth="yes"/>
      <point x="148" y="937"/>
      <point x="108" y="887"/>
      <point x="123" y="820" type="curve"/>
      <point x="188" y="820" type="line"/>
      <point x="181" y="842"/>
      <point x="188" y="859"/>
      <point x="212" y="859" type="curve" smooth="yes"/>
      <point x="253" y="859"/>
      <point x="295" y="811"/>
    </contour>
  </outline>
</glyph>
<glyph name="macroncomb" format="2">
  <unicode hex="0304"/>
  <outline>
    <contour>
      <point x="120" y="840" type="line"/>
      <point x="381" y="840" type="line"/>
      <point x="381" y="923" type="line"/>
      <point x="120" y="923" type="line"/>
    </contour>
  </outline>
</glyph>
<glyph name="brevecomb" format="2">
  <unicode hex="0306"/>
  <outline>
    <contour>
      <point x="264" y="780" type="curve" smooth="yes"/>
      <point x="344" y="780"/>
      <point x="408" y="844"/>
      <point x="408" y="924" type="curve"/>
      <point x="325" y="924" type="line"/>
      <point x="325" y="890"/>
      <point x="298" y="863"/>
      <point x="264" y="863" type="curve" smooth="yes"/>
      <point x="230" y="863"/>
      <point x="203" y="890"/>
      <point x="203" y="924" type="curve"/>
      <point x="120" y="924" type="line"/>
      <point x="120" y="844"/>
      <point x="184" y="780"/>
    </contour>
  </outline>
</glyph>
<glyph name="dotaccentcomb" format="2">
  <unicode hex="0307"/>
  <outline>
    <contour>
      <point x="120" y="829" type="line"/>
      <point x="231" y="829" type="line"/>
      <point x="231" y="940" type="line"/>
      <point x="120" y="940" type="line"/>
    </contour>
  </outline>
</glyph>
<glyph name="ringcomb" format="2">
  <unicode hex="030A"/>
  <outline>
    <contour>
      <point x="263" y="644" type="curve" smooth="yes"/>
      <point x="338" y="644"/>
      <point x="399" y="705"/>
      <point x="399" y="780" type="curve" smooth="yes"/>
      <point x="399" y="855"/>
      <point x="338" y="916"/>
      <point x="263" y="916" type="curve" smooth="yes"/>
      <point x="188" y="916"/>
      <point x="127" y="855"/>
      <point x="127" y="780" type="curve" smooth="yes"/>
      <point x="127" y="705"/>
      <point x="188" y="644"/>
    </contour>
    <contour>
      <point x="263" y="720" type="curve" smooth="yes"/>
      <point x="230" y="720"/>
      <point x="203" y="747"/>
      <point x="203" y="780" type="curve" smooth="yes"/>
      <point x="203" y="813"/>
      <point x="230" y="840"/>
      <point x="263" y="840" type="curve" smooth="yes"/>
      <point x="296" y="840"/>
      <point x="323" y="813"/>
      <point x="323" y="780" type="curve" smooth="yes"/>
      <point x="323" y="747"/>
      <point x="296" y="720"/>
    </contour>
  </outline>
</glyph>
<glyph name="hungarumlautcomb" format="2">
  <unicode hex="030B"/>
  <outline>
    <contour>
      <point x="328" y="792" type="line"/>
      <point x="444" y="906" type="line"/>
      <point x="393" y="958" type="line"/>
      <point x="277" y="844" type="line"/>
    </contour>
    <contour>
      <point x="171" y="792" type="line"/>
      <point x="287" y="906" type="line"/>
      <point x="236" y="958" type="line"/>
      <point x="120" y="844" type="line"/>
    </contour>
  </outline>
</glyph>
<glyph name="caroncomb" format="2">
  <unicode hex="030C"/>
  <outline>
    <contour>
      <point x="281" y="786" type="line"/>
      <point x="442" y="879" type="line"/>
      <point x="402" y="952" type="line"/>
      <point x="281" y="882" type="line"/>
      <point x="160" y="952" type="line"/>
      <point x="120" y="879" type="line"/>
    </contour>
  </outline>
</glyph>
<glyph name="commaaccentcomb" format="2">
  <unicode hex="0326"/>
  <outline>
    <contour>
      <point x="120" y="-273" type="line"/>
      <point x="179" y="-273"/>
      <point x="225" y="-236"/>
      <point x="225" y="-175" type="curve" smooth="yes"/>
      <point x="225" y="-70" type="line"/>
      <point x="120" y="-70" type="line"/>
      <point x="120" y="-175" type="line"/>
      <point x="178" y="-175" type="line"/>
      <point x="179" y="-218"/>
      <point x="134" y="-225"/>
      <point x="120" y="-225" type="curve"/>
    </contour>
  </outline>
</glyph>
<glyph name="cedillacomb" format="2">
  <unicode hex="0327"/>
  <outline>
    <contour>
      <point x="187" y="-241" type="curve" smooth="yes"/>
      <point x="242" y="-241"/>
      <point x="289" y="-198"/>
      <point x="289" y="-138" type="curve" smooth="yes"/>
      <point x="289" y="-95"/>
      <point x="265" y="-66"/>
      <point x="228" y="-48" type="curve"/>
      <point x="250" y="14" type="line"/>
      <point x="183" y="14" type="line"/>
      <point x="147" y="-89" type="line"/>
      <point x="181" y="-99"/>
      <point x="213" y="-108"/>
      <point x="213" y="-136" type="curve" smooth="yes"/>
      <point x="213" y="-151"/>
      <point x="200" y="-167"/>
      <point x="178" y="-167" type="curve" smooth="yes"/>
      <point x="169" y="-167"/>
      <point x="158" y="-164"/>
      <point x="144" y="-159" type="curve"/>
      <point x="120" y="-224" type="line"/>
      <point x="139" y="-234"/>
      <point x="161" y="-241"/>
    </contour>
  </outline>
</glyph>
<glyph name="ogonekcomb" format="2">
  <unicode hex="0328"/>
  <outline>
    <contour>
      <point x="223" y="-240" type="curve" smooth="yes"/>
      <point x="257" y="-240"/>
      <point x="292" y="-223"/>
      <point x="315" y="-192" type="curve"/>
      <point x="275" y="-141" type="line"/>
      <point x="262" y="-153"/>
      <point x="248" y="-161"/>
      <point x="235" y="-161" type="curve" smooth="yes"/>
      <point x="218" y="-161"/>
      <point x="203" y="-147"/>
      <point x="203" y="-127" type="curve" smooth="yes"/>
      <point x="203" y="-90"/>
      <point x="254" y="-34"/>
      <point x="315" y="0" type="curve"/>
      <point x="267" y="55" type="line"/>
      <point x="184" y="11"/>
      <point x="119" y="-65"/>
      <point x="119" y="-135" type="curve" smooth="yes"/>
      <point x="119" y="-190"/>
      <point x="163" y="-240"/>
    </contour>
  </outline>
</glyph>
<glyph name="slashshortcomb" format="2">
  <unicode hex="0337"/>
  <outline>
    <contour>
      <point x="42" y="182" type="line"/>
      <point x="369" y="370" type="line"/>
      <point x="369" y="485" type="line"/>
      <point x="42" y="297" type="line"/>
    </contour>
  </outline>
</glyph>
<glyph name="dieresistonos" format="2">
  <advance width="600"/>
  <unicode hex="0385"/>
  <outline>
    <contour>
      <point x="402" y="620" type="line"/>
      <point x="492" y="620" type="line"/>
      <point x="492" y="720" type="line"/>
      <point x="402" y="720" type="line"/>
    </contour>
    <contour>
      <point x="108" y="620" type="line"/>
      <point x="198" y="620" type="line"/>
      <point x="198" y="720" type="line"/>
      <point x="108" y="720" type="line"/>
    </contour>
    <component base="tonos" xOffset="17"/>
  </outline>
</glyph>
<glyph name="Xi" format="2">
  <advance width="713"/>
  <unicode hex="039E"/>
  <outline>
    <contour>
      <point x="70" y="621" type="line"/>
      <point x="643" y="621" type="line"/>
      <point x="643" y="720" type="line"/>
      <point x="70" y="720" type="line"/>
    </contour>
    <contour>
      <point x="70" y="0" type="line"/>
      <point x="643" y="0" type="line"/>
      <point x="643" y="99" type="line"/>
      <point x="70" y="99" type="line"/>
    </contour>
    <contour>
      <point x="120" y="311" type="line"/>
      <point x="593" y="311" type="line"/>
      <point x="593" y="410" type="line"/>
      <point x="120" y="410" type="line"/>
    </contour>
  </outline>
</glyph>
<glyph name="Sigma" format="2">
  <advance width="640"/>
  <unicode hex="03A3"/>
  <outline>
    <contour>
      <point x="70" y="0" type="line"/>
      <point x="564" y="0" type="line"/>
      <point x="564" y="99" type="line"/>
      <point x="206" y="99" type="line"/>
      <point x="455" y="351" type="line"/>
      <point x="455" y="369" type="line"/>
      <point x="206" y="621" type="line"/>
      <point x="570" y="621" type="line"/>
      <point x="570" y="720" type="line"/>
      <point x="70" y="720" type="line"/>
      <point x="70" y="625" type="line"/>
      <point x="331" y="360" type="line"/>
      <point x="70" y="95" type="line"/>
    </contour>
  </outline>
</glyph>
<glyph name="Psi" format="2">
  <advance width="741"/>
  <unicode hex="03A8"/>
  <outline>
    <contour>
      <point x="318" y="0" type="line"/>
      <point x="423" y="0" type="line"/>
      <point x="423" y="163" type="line"/>
      <point x="537" y="168"/>
      <point x="629" y="219"/>
      <point x="660" y="333" type="curve" smooth="yes"/>
      <point x="669" y="364"/>
      <point x="671" y="392"/>
      <point x="671" y="415" type="curve" smooth="yes"/>
      <point x="671" y="720" type="line"/>
      <point x="572" y="720" type="line"/>
      <point x="572" y="441" type="line" smooth="yes"/>
      <point x="572" y="428"/>
      <point x="572" y="401"/>
      <point x="566" y="374" type="curve" smooth="yes"/>
      <point x="550" y="298"/>
      <point x="495" y="262"/>
      <point x="423" y="260" type="curve"/>
      <point x="423" y="720" type="line"/>
      <point x="318" y="720" type="line"/>
      <point x="318" y="260" type="line"/>
      <point x="248" y="261"/>
      <point x="195" y="293"/>
      <point x="176" y="368" type="curve" smooth="yes"/>
      <point x="169" y="398"/>
      <point x="169" y="426"/>
      <point x="169" y="441" type="curve" smooth="yes"/>
      <point x="169" y="720" type="line"/>
      <point x="70" y="720" type="line"/>
      <point x="70" y="415" type="line" smooth="yes"/>
      <point x="70" y="396"/>
      <point x="71" y="363"/>
      <point x="81" y="332" type="curve" smooth="yes"/>
      <point x="110" y="219"/>
      <point x="202" y="167"/>
      <point x="318" y="163" type="curve"/>
    </contour>
  </outline>
</glyph>
<glyph name="Omega" format="2">
  <advance width="741"/>
  <unicode hex="03A9"/>
  <outline>
    <contour>
      <point x="37" y="0" type="line"/>
      <point x="285" y="0" type="line"/>
      <point x="285" y="99" type="line"/>
      <point x="220" y="133"/>
      <point x="141" y="223"/>
      <point x="141" y="364" type="curve" smooth="yes"/>
      <point x="141" y="512"/>
      <point x="227" y="635"/>
      <point x="370" y="635" type="curve" smooth="yes"/>
      <point x="514" y="635"/>
      <point x="601" y="512"/>
      <point x="600" y="362" type="curve" smooth="yes"/>
      <point x="598" y="226"/>
      <point x="525" y="133"/>
      <point x="458" y="99" type="curve"/>
      <point x="458" y="0" type="line"/>
      <point x="704" y="0" type="line"/>
      <point x="704" y="99" type="line"/>
      <point x="590" y="99" type="line"/>
      <point x="665" y="163"/>
      <point x="711" y="261"/>
      <point x="711" y="380" type="curve" smooth="yes"/>
      <point x="711" y="580"/>
      <point x="578" y="735"/>
      <point x="370" y="735" type="curve" smooth="yes"/>
      <point x="163" y="735"/>
      <point x="30" y="580"/>
      <point x="30" y="380" type="curve" smooth="yes"/>
      <point x="30" y="261"/>
      <point x="76" y="163"/>
      <point x="151" y="99" type="curve"/>
      <point x="37" y="99" type="line"/>
    </contour>
  </outline>
</glyph>
<glyph name="alpha" format="2">
  <advance width="622"/>
  <unicode hex="03B1"/>
  <outline>
    <contour>
      <point x="286" y="-15" type="curve" smooth="yes"/>
      <point x="374" y="-15"/>
      <point x="443" y="29"/>
      <point x="476" y="102" type="curve"/>
      <point x="459" y="127" type="line"/>
      <point x="459" y="0" type="line"/>
      <point x="552" y="0" type="line"/>
      <point x="552" y="540" type="line"/>
      <point x="459" y="540" type="line"/>
      <point x="459" y="414" type="line"/>
      <point x="476" y="440" type="line"/>
      <point x="443" y="512"/>
      <point x="378" y="555"/>
      <point x="289" y="555" type="curve" smooth="yes"/>
      <point x="134" y="555"/>
      <point x="40" y="433"/>
      <point x="40" y="270" type="curve" smooth="yes"/>
      <point x="40" y="108"/>
      <point x="133" y="-15"/>
    </contour>
    <contour>
      <point x="301" y="80" type="curve" smooth="yes"/>
      <point x="198" y="80"/>
      <point x="151" y="164"/>
      <point x="151" y="270" type="curve" smooth="yes"/>
      <point x="151" y="384"/>
      <point x="205" y="460"/>
      <point x="302" y="460" type="curve" smooth="yes"/>
      <point x="401" y="460"/>
      <point x="446" y="383"/>
      <point x="446" y="270" type="curve" smooth="yes"/>
      <point x="446" y="159"/>
      <point x="401" y="80"/>
    </contour>
  </outline>
</glyph>
<glyph name="beta" format="2">
  <advance width="592"/>
  <unicode hex="03B2"/>
  <outline>
    <contour>
      <point x="70" y="-240" type="line"/>
      <point x="175" y="-240" type="line"/>
      <point x="175" y="21" type="line"/>
      <point x="210" y="-2"/>
      <point x="256" y="-15"/>
      <point x="310" y="-15" type="curve" smooth="yes"/>
      <point x="465" y="-15"/>
      <point x="563" y="70"/>
      <point x="563" y="206" type="curve" smooth="yes"/>
      <point x="563" y="308"/>
      <point x="503" y="375"/>
      <point x="433" y="397" type="curve"/>
      <point x="480" y="425"/>
      <point x="503" y="476"/>
      <point x="503" y="535" type="curve" smooth="yes"/>
      <point x="503" y="654"/>
      <point x="411" y="735"/>
      <point x="283" y="735" type="curve" smooth="yes"/>
      <point x="190" y="735"/>
      <point x="107" y="692"/>
      <point x="80" y="605" type="curve" smooth="yes"/>
      <point x="73" y="583"/>
      <point x="70" y="561"/>
      <point x="70" y="540" type="curve" smooth="yes"/>
    </contour>
    <contour>
      <point x="315" y="83" type="curve" smooth="yes"/>
      <point x="259" y="83"/>
      <point x="200" y="107"/>
      <point x="184" y="155" type="curve" smooth="yes"/>
      <point x="177" y="174"/>
      <point x="176" y="202"/>
      <point x="176" y="218" type="curve" smooth="yes"/>
      <point x="176" y="502" type="line" smooth="yes"/>
      <point x="176" y="521"/>
      <point x="177" y="553"/>
      <point x="188" y="579" type="curve" smooth="yes"/>
      <point x="206" y="621"/>
      <point x="247" y="636"/>
      <point x="285" y="636" type="curve" smooth="yes"/>
      <point x="348" y="636"/>
      <point x="396" y="599"/>
      <point x="396" y="533" type="curve" smooth="yes"/>
      <point x="396" y="470"/>
      <point x="352" y="435"/>
      <point x="286" y="429" type="curve"/>
      <point x="286" y="336" type="line"/>
      <point x="389" y="335"/>
      <point x="457" y="294"/>
      <point x="457" y="210" type="curve" smooth="yes"/>
      <point x="457" y="133"/>
      <point x="399" y="83"/>
    </contour>
  </outline>
</glyph>
<glyph name="delta" format="2">
  <advance width="609"/>
  <unicode hex="03B4"/>
  <outline>
    <contour>
      <point x="302" y="-15" type="curve" smooth="yes"/>
      <point x="466" y="-15"/>
      <point x="569" y="93"/>
      <point x="569" y="247" type="curve" smooth="yes"/>
      <point x="569" y="400"/>
      <point x="467" y="508"/>
      <point x="304" y="508" type="curve"/>
      <point x="304" y="471" type="line"/>
      <point x="139" y="497"/>
      <point x="40" y="387"/>
      <point x="40" y="239" type="curve" smooth="yes"/>
      <point x="40" y="86"/>
      <point x="143" y="-15"/>
    </contour>
    <contour>
      <point x="305" y="84" type="curve" smooth="yes"/>
      <point x="211" y="84"/>
      <point x="160" y="145"/>
      <point x="160" y="247" type="curve" smooth="yes"/>
      <point x="160" y="346"/>
      <point x="208" y="410"/>
      <point x="305" y="410" type="curve" smooth="yes"/>
      <point x="400" y="410"/>
      <point x="450" y="348"/>
      <point x="450" y="248" type="curve" smooth="yes"/>
      <point x="450" y="149"/>
      <point x="401" y="84"/>
    </contour>
    <contour>
      <point x="378" y="418" type="curve"/>
      <point x="417" y="487" type="line"/>
      <point x="316" y="526"/>
      <point x="223" y="544"/>
      <point x="223" y="598" type="curve" smooth="yes"/>
      <point x="223" y="623"/>
      <point x="241" y="638"/>
      <point x="266" y="645" type="curve" smooth="yes"/>
      <point x="281" y="648"/>
      <point x="298" y="649"/>
      <point x="319" y="649" type="curve" smooth="yes"/>
      <point x="466" y="649" type="line"/>
      <point x="466" y="735" type="line"/>
      <point x="295" y="735" type="line" smooth="yes"/>
      <point x="268" y="735"/>
      <point x="252" y="735"/>
      <point x="233" y="732" type="curve" smooth="yes"/>
      <point x="146" y="719"/>
      <point x="119" y="656"/>
      <point x="119" y="603" type="curve" smooth="yes"/>
      <point x="119" y="475"/>
      <point x="276" y="446"/>
    </contour>
  </outline>
</glyph>
<glyph name="zeta" format="2">
  <advance width="519"/>
  <unicode hex="03B6"/>
  <outline>
    <contour>
      <point x="414" y="-120" type="curve"/>
      <point x="507" y="-120" type="line"/>
      <point x="525" y="-4"/>
      <point x="484" y="64"/>
      <point x="415" y="86" type="curve" smooth="yes"/>
      <point x="386" y="95"/>
      <point x="346" y="97"/>
      <point x="320" y="98" type="curve" smooth="yes"/>
      <point x="218" y="100"/>
      <point x="151" y="111"/>
      <point x="151" y="203" type="curve" smooth="yes"/>
      <point x="151" y="266"/>
      <point x="183" y="326"/>
      <point x="284" y="424" type="curve" smooth="yes"/>
      <point x="432" y="560"/>
      <point x="460" y="590"/>
      <point x="512" y="641" type="curve"/>
      <point x="512" y="720" type="line"/>
      <point x="70" y="720" type="line"/>
      <point x="70" y="626" type="line"/>
      <point x="351" y="626" type="line"/>
      <point x="285" y="565"/>
      <point x="231" y="512"/>
      <point x="184" y="465" type="curve" smooth="yes"/>
      <point x="68" y="345"/>
      <point x="40" y="275"/>
      <point x="40" y="193" type="curve" smooth="yes"/>
      <point x="40" y="44"/>
      <point x="135" y="7"/>
      <point x="266" y="0" type="curve" smooth="yes"/>
      <point x="355" y="-4"/>
      <point x="417" y="-1"/>
    </contour>
  </outline>
</glyph>
<glyph name="iota" format="2">
  <advance width="389"/>
  <unicode hex="03B9"/>
  <outline>
    <contour>
      <point x="208" y="-4" type="curve" smooth="yes"/>
      <point x="245" y="-10"/>
      <point x="307" y="-10"/>
      <point x="345" y="0" type="curve"/>
      <point x="345" y="89" type="line"/>
      <point x="317" y="84"/>
      <point x="284" y="82"/>
      <point x="257" y="85" type="curve" smooth="yes"/>
      <point x="232" y="87"/>
      <point x="209" y="97"/>
      <point x="196" y="120" type="curve" smooth="yes"/>
      <point x="182" y="144"/>
      <point x="185" y="173"/>
      <point x="185" y="218" type="curve" smooth="yes"/>
      <point x="185" y="540" type="line"/>
      <point x="80" y="540" type="line"/>
      <point x="80" y="212" type="line" smooth="yes"/>
      <point x="80" y="148"/>
      <point x="76" y="107"/>
      <point x="101" y="64" type="curve" smooth="yes"/>
      <point x="128" y="18"/>
      <point x="167" y="2"/>
    </contour>
  </outline>
</glyph>
<glyph name="lambda" format="2">
  <advance width="538"/>
  <unicode hex="03BB"/>
  <outline>
    <contour>
      <point x="20" y="0" type="line"/>
      <point x="125" y="0" type="line"/>
      <point x="269" y="409" type="line"/>
      <point x="412" y="0" type="line"/>
      <point x="518" y="0" type="line"/>
      <point x="322" y="540" type="line" smooth="yes"/>
      <point x="291" y="628"/>
      <point x="261" y="709"/>
      <point x="178" y="728" type="curve" smooth="yes"/>
      <point x="151" y="735"/>
      <point x="117" y="735"/>
      <point x="105" y="735" type="curve" smooth="yes"/>
      <point x="69" y="735" type="line"/>
      <point x="69" y="643" type="line"/>
      <point x="94" y="643" type="line" smooth="yes"/>
      <point x="166" y="643"/>
      <point x="188" y="612"/>
      <point x="216" y="540" type="curve"/>
    </contour>
  </outline>
</glyph>
<glyph name="mu" format="2">
  <advance width="625"/>
  <unicode hex="03BC"/>
  <outline>
    <contour>
      <point x="70" y="-240" type="line"/>
      <point x="163" y="-240" type="line"/>
      <point x="163" y="28" type="line"/>
      <point x="192" y="1"/>
      <point x="233" y="-15"/>
      <point x="284" y="-15" type="curve" smooth="yes"/>
      <point x="361" y="-15"/>
      <point x="423" y="14"/>
      <point x="462" y="66" type="curve"/>
      <point x="462" y="0" type="line"/>
      <point x="555" y="0" type="line"/>
      <point x="555" y="540" type="line"/>
      <point x="450" y="540" type="line"/>
      <point x="450" y="259" type="line" smooth="yes"/>
      <point x="450" y="131"/>
      <point x="388" y="84"/>
      <point x="312" y="84" type="curve" smooth="yes"/>
      <point x="198" y="84"/>
      <point x="176" y="191"/>
      <point x="176" y="275" type="curve" smooth="yes"/>
      <point x="176" y="540" type="line"/>
      <point x="70" y="540" type="line"/>
    </contour>
  </outline>
</glyph>
<glyph name="xi" format="2">
  <advance width="574"/>
  <unicode hex="03BE"/>
  <outline>
    <contour>
      <point x="467" y="-120" type="curve"/>
      <point x="559" y="-120" type="line"/>
      <point x="583" y="-1"/>
      <point x="532" y="65"/>
      <point x="461" y="86" type="curve" smooth="yes"/>
      <point x="427" y="97"/>
      <point x="386" y="97"/>
      <point x="351" y="98" type="curve" smooth="yes"/>
      <point x="231" y="99"/>
      <point x="151" y="128"/>
      <point x="151" y="221" type="curve" smooth="yes"/>
      <point x="151" y="304"/>
      <point x="213" y="327"/>
      <point x="308" y="331" type="curve" smooth="yes"/>
      <point x="379" y="333"/>
      <point x="380" y="333"/>
      <point x="389" y="333" type="curve"/>
      <point x="389" y="433" type="line"/>
      <point x="379" y="433"/>
      <point x="336" y="433"/>
      <point x="317" y="434" type="curve" smooth="yes"/>
      <point x="234" y="437"/>
      <point x="179" y="471"/>
      <point x="179" y="539" type="curve" smooth="yes"/>
      <point x="179" y="606"/>
      <point x="234" y="636"/>
      <point x="309" y="636" type="curve" smooth="yes"/>
      <point x="391" y="636"/>
      <point x="443" y="600"/>
      <point x="477" y="546" type="curve"/>
      <point x="553" y="618" type="line"/>
      <point x="503" y="687"/>
      <point x="420" y="735"/>
      <point x="309" y="735" type="curve" smooth="yes"/>
      <point x="187" y="735"/>
      <point x="68" y="679"/>
      <point x="68" y="542" type="curve" smooth="yes"/>
      <point x="68" y="472"/>
      <point x="99" y="418"/>
      <point x="146" y="383" type="curve"/>
      <point x="74" y="358"/>
      <point x="40" y="295"/>
      <point x="40" y="213" type="curve" smooth="yes"/>
      <point x="40" y="86"/>
      <point x="121" y="6"/>
      <point x="315" y="0" type="curve" smooth="yes"/>
      <point x="422" y="-3"/>
      <point x="476" y="-6"/>
    </contour>
  </outline>
</glyph>
<glyph name="pi" format="2">
  <advance width="668"/>
  <unicode hex="03C0"/>
  <outline>
    <contour>
      <point x="127" y="0" type="line"/>
      <point x="231" y="0" type="line"/>
      <point x="231" y="446" type="line"/>
      <point x="437" y="446" type="line"/>
      <point x="437" y="0" type="line"/>
      <point x="541" y="0" type="line"/>
      <point x="541" y="446" type="line"/>
      <point x="635" y="446" type="line"/>
      <point x="635" y="540" type="line"/>
      <point x="33" y="540" type="line"/>
      <point x="33" y="446" type="line"/>
      <point x="127" y="446" type="line"/>
    </contour>
  </outline>
</glyph>
<glyph name="rho" format="2">
  <advance width="623"/>
  <unicode hex="03C1"/>
  <outline>
    <contour>
      <point x="70" y="-240" type="line"/>
      <point x="175" y="-240" type="line"/>
      <point x="175" y="54" type="line"/>
      <point x="210" y="12"/>
      <point x="268" y="-15"/>
      <point x="338" y="-15" type="curve" smooth="yes"/>
      <point x="490" y="-15"/>
      <point x="583" y="108"/>
      <point x="583" y="272" type="curve" smooth="yes"/>
      <point x="583" y="433"/>
      <point x="492" y="555"/>
      <point x="328" y="555" type="curve" smooth="yes"/>
      <point x="185" y="555"/>
      <point x="94" y="463"/>
      <point x="75" y="332" type="curve" smooth="yes"/>
      <point x="70" y="303"/>
      <point x="70" y="270"/>
      <point x="70" y="234" type="curve" smooth="yes"/>
    </contour>
    <contour>
      <point x="325" y="80" type="curve" smooth="yes"/>
      <point x="224" y="80"/>
      <point x="175" y="157"/>
      <point x="175" y="271" type="curve" smooth="yes"/>
      <point x="175" y="383"/>
      <point x="222" y="460"/>
      <point x="325" y="460" type="curve" smooth="yes"/>
      <point x="427" y="460"/>
      <point x="478" y="384"/>
      <point x="478" y="271" type="curve" smooth="yes"/>
      <point x="478" y="159"/>
      <point x="427" y="80"/>
    </contour>
  </outline>
</glyph>
<glyph name="sigmafinal" format="2">
  <advance width="568"/>
  <unicode hex="03C2"/>
  <outline>
    <contour>
      <point x="428" y="-120" type="curve"/>
      <point x="520" y="-120" type="line"/>
      <point x="537" y="-8"/>
      <point x="500" y="64"/>
      <point x="428" y="86" type="curve" smooth="yes"/>
      <point x="390" y="99"/>
      <point x="333" y="98"/>
      <point x="309" y="98" type="curve" smooth="yes"/>
      <point x="181" y="99"/>
      <point x="157" y="184"/>
      <point x="158" y="268" type="curve" smooth="yes"/>
      <point x="158" y="376"/>
      <point x="199" y="456"/>
      <point x="298" y="456" type="curve" smooth="yes"/>
      <point x="363" y="456"/>
      <point x="411" y="421"/>
      <point x="433" y="361" type="curve"/>
      <point x="537" y="390" type="line"/>
      <point x="509" y="493"/>
      <point x="420" y="555"/>
      <point x="301" y="555" type="curve" smooth="yes"/>
      <point x="139" y="555"/>
      <point x="40" y="442"/>
      <point x="40" y="259" type="curve" smooth="yes"/>
      <point x="40" y="110"/>
      <point x="118" y="6"/>
      <point x="272" y="0" type="curve" smooth="yes"/>
      <point x="372" y="-4"/>
      <point x="431" y="-4"/>
    </contour>
  </outline>
</glyph>
<glyph name="sigma" format="2">
  <advance width="619"/>
  <unicode hex="03C3"/>
  <outline>
    <contour>
      <point x="304" y="-15" type="curve" smooth="yes"/>
      <point x="463" y="-15"/>
      <point x="569" y="105"/>
      <point x="569" y="263" type="curve" smooth="yes"/>
      <point x="569" y="353"/>
      <point x="533" y="431"/>
      <point x="480" y="475" type="curve"/>
      <point x="453" y="446" type="line"/>
      <point x="599" y="446" type="line"/>
      <point x="599" y="540" type="line"/>
      <point x="371" y="540" type="line" smooth="yes"/>
      <point x="318" y="540"/>
      <point x="274" y="540"/>
      <point x="242" y="533" type="curve" smooth="yes"/>
      <point x="118" y="506"/>
      <point x="40" y="401"/>
      <point x="40" y="263" type="curve" smooth="yes"/>
      <point x="40" y="105"/>
      <point x="145" y="-15"/>
    </contour>
    <contour>
      <point x="304" y="84" type="curve" smooth="yes"/>
      <point x="205" y="84"/>
      <point x="151" y="156"/>
      <point x="151" y="263" type="curve" smooth="yes"/>
      <point x="151" y="362"/>
      <point x="200" y="442"/>
      <point x="304" y="441" type="curve" smooth="yes"/>
      <point x="406" y="441"/>
      <point x="458" y="365"/>
      <point x="458" y="263" type="curve" smooth="yes"/>
      <point x="458" y="159"/>
      <point x="406" y="84"/>
    </contour>
  </outline>
</glyph>
<glyph name="tau" format="2">
  <advance width="568"/>
  <unicode hex="03C4"/>
  <outline>
    <contour>
      <point x="338" y="-4" type="curve" smooth="yes"/>
      <point x="374" y="-10"/>
      <point x="436" y="-10"/>
      <point x="475" y="0" type="curve"/>
      <point x="475" y="89" type="line"/>
      <point x="446" y="84"/>
      <point x="413" y="82"/>
      <point x="386" y="85" type="curve" smooth="yes"/>
      <point x="361" y="87"/>
      <point x="339" y="97"/>
      <point x="325" y="120" type="curve" smooth="yes"/>
      <point x="312" y="144"/>
      <point x="314" y="173"/>
      <point x="314" y="218" type="curve" smooth="yes"/>
      <point x="314" y="446" type="line"/>
      <point x="498" y="446" type="line"/>
      <point x="498" y="540" type="line"/>
      <point x="25" y="540" type="line"/>
      <point x="25" y="446" type="line"/>
      <point x="209" y="446" type="line"/>
      <point x="209" y="212" type="line" smooth="yes"/>
      <point x="209" y="148"/>
      <point x="205" y="107"/>
      <point x="230" y="64" type="curve" smooth="yes"/>
      <point x="257" y="18"/>
      <point x="297" y="2"/>
    </contour>
  </outline>
</glyph>
<glyph name="upsilon" format="2">
  <advance width="605"/>
  <unicode hex="03C5"/>
  <outline>
    <contour>
      <point x="60" y="247" type="line" smooth="yes"/>
      <point x="60" y="134"/>
      <point x="89" y="-15"/>
      <point x="302" y="-15" type="curve" smooth="yes"/>
      <point x="515" y="-15"/>
      <point x="545" y="134"/>
      <point x="545" y="247" type="curve" smooth="yes"/>
      <point x="545" y="540" type="line"/>
      <point x="439" y="540" type="line"/>
      <point x="439" y="275" type="line" smooth="yes"/>
      <point x="439" y="191"/>
      <point x="417" y="84"/>
      <point x="302" y="84" type="curve" smooth="yes"/>
      <point x="188" y="84"/>
      <point x="166" y="191"/>
      <point x="166" y="275" type="curve" smooth="yes"/>
      <point x="166" y="540" type="line"/>
      <point x="60" y="540" type="line"/>
    </contour>
  </outline>
</glyph>
<glyph name="psi" format="2">
  <advance width="681"/>
  <unicode hex="03C8"/>
  <outline>
    <contour>
      <point x="290" y="-225" type="line"/>
      <point x="391" y="-225" type="line"/>
      <point x="391" y="-24" type="line"/>
      <point x="506" y="-20"/>
      <point x="600" y="34"/>
      <point x="630" y="146" type="curve" smooth="yes"/>
      <point x="639" y="177"/>
      <point x="641" y="205"/>
      <point x="641" y="228" type="curve" smooth="yes"/>
      <point x="641" y="540" type="line"/>
      <point x="542" y="540" type="line"/>
      <point x="542" y="254" type="line" smooth="yes"/>
      <point x="542" y="241"/>
      <point x="542" y="213"/>
      <point x="536" y="186" type="curve" smooth="yes"/>
      <point x="520" y="110"/>
      <point x="460" y="74"/>
      <point x="391" y="73" type="curve"/>
      <point x="391" y="540" type="line"/>
      <point x="290" y="540" type="line"/>
      <point x="290" y="73" type="line"/>
      <point x="223" y="74"/>
      <point x="165" y="105"/>
      <point x="146" y="181" type="curve" smooth="yes"/>
      <point x="139" y="210"/>
      <point x="139" y="239"/>
      <point x="139" y="254" type="curve" smooth="yes"/>
      <point x="139" y="540" type="line"/>
      <point x="40" y="540" type="line"/>
      <point x="40" y="228" type="line" smooth="yes"/>
      <point x="40" y="209"/>
      <point x="41" y="176"/>
      <point x="51" y="144" type="curve" smooth="yes"/>
      <point x="80" y="31"/>
      <point x="175" y="-20"/>
      <point x="290" y="-24" type="curve"/>
    </contour>
  </outline>
</glyph>
<glyph name="omega" format="2">
  <advance width="791"/>
  <unicode hex="03C9"/>
  <outline>
    <contour>
      <point x="249" y="-15" type="curve" smooth="yes"/>
      <point x="318" y="-15"/>
      <point x="382" y="16"/>
      <point x="404" y="102" type="curve"/>
      <point x="386" y="102" type="line"/>
      <point x="409" y="16"/>
      <point x="472" y="-15"/>
      <point x="542" y="-15" type="curve" smooth="yes"/>
      <point x="677" y="-15"/>
      <point x="751" y="100"/>
      <point x="751" y="250" type="curve" smooth="yes"/>
      <point x="751" y="380"/>
      <point x="698" y="491"/>
      <point x="591" y="555" type="curve"/>
      <point x="521" y="471" type="line"/>
      <point x="603" y="414"/>
      <point x="640" y="354"/>
      <point x="640" y="256" type="curve" smooth="yes"/>
      <point x="640" y="161"/>
      <point x="604" y="84"/>
      <point x="529" y="84" type="curve" smooth="yes"/>
      <point x="450" y="84"/>
      <point x="444" y="166"/>
      <point x="444" y="268" type="curve" smooth="yes"/>
      <point x="444" y="343" type="line"/>
      <point x="347" y="343" type="line"/>
      <point x="347" y="268" type="line" smooth="yes"/>
      <point x="347" y="167"/>
      <point x="341" y="84"/>
      <point x="262" y="84" type="curve" smooth="yes"/>
      <point x="189" y="84"/>
      <point x="151" y="158"/>
      <point x="151" y="256" type="curve" smooth="yes"/>
      <point x="151" y="352"/>
      <point x="186" y="413"/>
      <point x="269" y="471" type="curve"/>
      <point x="199" y="555" type="line"/>
      <point x="94" y="492"/>
      <point x="40" y="383"/>
      <point x="40" y="251" type="curve" smooth="yes"/>
      <point x="40" y="103"/>
      <point x="111" y="-15"/>
    </contour>
  </outline>
</glyph>
<glyph name="Dje-cy" format="2">
  <advance width="666"/>
  <unicode hex="0402"/>
  <outline>
    <contour>
      <point x="77" y="0" type="line"/>
      <point x="182" y="0" type="line"/>
      <point x="182" y="252" type="line" smooth="yes"/>
      <point x="182" y="285"/>
      <point x="184" y="324"/>
      <point x="193" y="354" type="curve" smooth="yes"/>
      <point x="212" y="417"/>
      <point x="267" y="454"/>
      <point x="355" y="454" type="curve" smooth="yes"/>
      <point x="455" y="454"/>
      <point x="520" y="406"/>
      <point x="520" y="282" type="curve" smooth="yes"/>
      <point x="520" y="179"/>
      <point x="476" y="106"/>
      <point x="363" y="106" type="curve"/>
      <point x="363" y="0" type="line"/>
      <point x="544" y="0"/>
      <point x="626" y="111"/>
      <point x="626" y="281" type="curve" smooth="yes"/>
      <point x="626" y="462"/>
      <point x="533" y="555"/>
      <point x="368" y="555" type="curve" smooth="yes"/>
      <point x="283" y="555"/>
      <point x="214" y="530"/>
      <point x="170" y="479" type="curve"/>
      <point x="170" y="626" type="line"/>
      <point x="330" y="626" type="line"/>
      <point x="330" y="720" type="line"/>
      <point x="0" y="720" type="line"/>
      <point x="0" y="626" type="line"/>
      <point x="77" y="626" type="line"/>
    </contour>
  </outline>
</glyph>
<glyph name="Nje-cy" format="2">
  <advance width="1088"/>
  <unicode hex="040A"/>
  <outline>
    <contour>
      <point x="70" y="0" type="line"/>
      <point x="175" y="0" type="line"/>
      <point x="175" y="362" type="line"/>
      <point x="572" y="362" type="line"/>
      <point x="572" y="461" type="line"/>
      <point x="175" y="461" type="line"/>
      <point x="175" y="720" type="line"/>
      <point x="70" y="720" type="line"/>
    </contour>
    <component base="Softsign-cy" xOffset="451"/>
  </outline>
</glyph>
<glyph name="Kje-cy" format="2">
  <advance width="629"/>
  <unicode hex="040C"/>
  <outline>
    <contour>
      <point x="70" y="0" type="line"/>
      <point x="175" y="0" type="line"/>
      <point x="175" y="344" type="line"/>
      <point x="495" y="0" type="line"/>
      <point x="629" y="0" type="line"/>
      <point x="288" y="369" type="line"/>
      <point x="606" y="720" type="line"/>
      <point x="476" y="720" type="line"/>
      <point x="175" y="384" type="line"/>
      <point x="175" y="720" type="line"/>
      <point x="70" y="720" type="line"/>
    </contour>
    <component base="acutecomb" xOffset="78"/>
  </outline>
</glyph>
<glyph name="Iigrave-cy" format="2">
  <advance width="707"/>
  <unicode hex="040D"/>
  <outline>
    <contour>
      <point x="70" y="0" type="line"/>
      <point x="176" y="0" type="line"/>
      <point x="531" y="535" type="line"/>
      <point x="531" y="0" type="line"/>
      <point x="637" y="0" type="line"/>
      <point x="637" y="720" type="line"/>
      <point x="531" y="720" type="line"/>
      <point x="176" y="185" type="line"/>
      <point x="176" y="720" type="line"/>
      <point x="70" y="720" type="line"/>
    </contour>
    <component base="gravecomb" xOffset="97"/>
  </outline>
</glyph>
<glyph name="Be-cy" format="2">
  <advance width="627"/>
  <unicode hex="0411"/>
  <outline>
    <contour>
      <point x="70" y="0" type="line"/>
      <point x="361" y="0" type="line" smooth="yes"/>
      <point x="375" y="0"/>
      <point x="398" y="1"/>
      <point x="416" y="3" type="curve" smooth="yes"/>
      <point x="534" y="17"/>
      <point x="597" y="111"/>
      <point x="597" y="224" type="curve" smooth="yes"/>
      <point x="597" y="337"/>
      <point x="534" y="431"/>
      <point x="416" y="445" type="curve" smooth="yes"/>
      <point x="398" y="447"/>
      <point x="374" y="448"/>
      <point x="361" y="448" type="curve" smooth="yes"/>
      <point x="175" y="448" type="line"/>
      <point x="175" y="621" type="line"/>
      <point x="539" y="621" type="line"/>
      <point x="539" y="720" type="line"/>
      <point x="70" y="720" type="line"/>
    </contour>
    <contour>
      <point x="175" y="99" type="line"/>
      <point x="175" y="349" type="line"/>
      <point x="357" y="349" type="line" smooth="yes"/>
      <point x="370" y="349"/>
      <point x="388" y="348"/>
      <point x="402" y="345" type="curve" smooth="yes"/>
      <point x="467" y="332"/>
      <point x="491" y="277"/>
      <point x="491" y="224" type="curve" smooth="yes"/>
      <point x="491" y="171"/>
      <point x="467" y="116"/>
      <point x="402" y="103" type="curve" smooth="yes"/>
      <point x="388" y="100"/>
      <point x="370" y="99"/>
      <point x="357" y="99" type="curve" smooth="yes"/>
    </contour>
  </outline>
</glyph>
<glyph name="De-cy" format="2">
  <advance width="747"/>
  <unicode hex="0414"/>
  <outline>
    <contour>
      <point x="33" y="-120" type="line"/>
      <point x="138" y="-120" type="line"/>
      <point x="138" y="0" type="line"/>
      <point x="603" y="0" type="line"/>
      <point x="603" y="-120" type="line"/>
      <point x="707" y="-120" type="line"/>
      <point x="707" y="99" type="line"/>
      <point x="654" y="99" type="line"/>
      <point x="654" y="720" type="line"/>
      <point x="193" y="721" type="line"/>
      <point x="184" y="569"/>
      <point x="179" y="458"/>
      <point x="167" y="332" type="curve" smooth="yes"/>
      <point x="155" y="208"/>
      <point x="133" y="99"/>
      <point x="33" y="99" type="curve"/>
    </contour>
    <contour>
      <point x="205" y="99" type="line"/>
      <point x="249" y="147"/>
      <point x="257" y="200"/>
      <point x="268" y="310" type="curve" smooth="yes"/>
      <point x="279" y="425"/>
      <point x="283" y="512"/>
      <point x="289" y="622" type="curve"/>
      <point x="549" y="621" type="line"/>
      <point x="549" y="99" type="line"/>
    </contour>
  </outline>
</glyph>
<glyph name="Zhe-cy" format="2">
  <advance width="907"/>
  <unicode hex="0416"/>
  <outline>
    <contour>
      <point x="10" y="0" type="line"/>
      <point x="141" y="0" type="line"/>
      <point x="401" y="337" type="line"/>
      <point x="401" y="0" type="line"/>
      <point x="506" y="0" type="line"/>
      <point x="506" y="337" type="line"/>
      <point x="767" y="0" type="line"/>
      <point x="897" y="0" type="line"/>
      <point x="610" y="369" type="line"/>
      <point x="874" y="720" type="line"/>
      <point x="747" y="720" type="line"/>
      <point x="506" y="391" type="line"/>
      <point x="506" y="720" type="line"/>
      <point x="401" y="720" type="line"/>
      <point x="401" y="391" type="line"/>
      <point x="160" y="720" type="line"/>
      <point x="33" y="720" type="line"/>
      <point x="297" y="369" type="line"/>
    </contour>
  </outline>
</glyph>
<glyph name="Ze-cy" format="2">
  <advance width="632"/>
  <unicode hex="0417"/>
  <outline>
    <contour>
      <point x="317" y="-15" type="curve" smooth="yes"/>
      <point x="477" y="-15"/>
      <point x="595" y="72"/>
      <point x="595" y="209" type="curve" smooth="yes"/>
      <point x="595" y="292"/>
      <point x="556" y="344"/>
      <point x="489" y="369" type="curve"/>
      <point x="537" y="402"/>
      <point x="567" y="461"/>
      <point x="567" y="531" type="curve" smooth="yes"/>
      <point x="567" y="671"/>
      <point x="449" y="735"/>
      <point x="324" y="735" type="curve" smooth="yes"/>
      <point x="215" y="735"/>
      <point x="129" y="685"/>
      <point x="82" y="618" type="curve"/>
      <point x="158" y="546" type="line"/>
      <point x="189" y="597"/>
      <point x="245" y="636"/>
      <point x="321" y="636" type="curve" smooth="yes"/>
      <point x="402" y="636"/>
      <point x="456" y="595"/>
      <point x="456" y="528" type="curve" smooth="yes"/>
      <point x="456" y="460"/>
      <point x="401" y="423"/>
      <point x="318" y="420" type="curve" smooth="yes"/>
      <point x="299" y="419"/>
      <point x="256" y="419"/>
      <point x="246" y="419" type="curve"/>
      <point x="246" y="319" type="line"/>
      <point x="255" y="319"/>
      <point x="256" y="319"/>
      <point x="327" y="317" type="curve" smooth="yes"/>
      <point x="411" y="314"/>
      <point x="484" y="293"/>
      <point x="484" y="210" type="curve" smooth="yes"/>
      <point x="484" y="139"/>
      <point x="432" y="84"/>
      <point x="321" y="84" type="curve" smooth="yes"/>
      <point x="210" y="84"/>
      <point x="152" y="140"/>
      <point x="128" y="199" type="curve"/>
      <point x="37" y="139" type="line"/>
      <point x="76" y="60"/>
      <point x="167" y="-15"/>
    </contour>
  </outline>
</glyph>
<glyph name="Iishort-cy" format="2">
  <advance width="707"/>
  <unicode hex="0419"/>
  <outline>
    <contour>
      <point x="70" y="0" type="line"/>
      <point x="176" y="0" type="line"/>
      <point x="531" y="535" type="line"/>
      <point x="531" y="0" type="line"/>
      <point x="637" y="0" type="line"/>
      <point x="637" y="720" type="line"/>
      <point x="531" y="720" type="line"/>
      <point x="176" y="185" type="line"/>
      <point x="176" y="720" type="line"/>
      <point x="70" y="720" type="line"/>
    </contour>
    <component base="brevecomb" xOffset="91"/>
  </outline>
</glyph>
<glyph name="El-cy" format="2">
  <advance width="715"/>
  <unicode hex="041B"/>
  <outline>
    <contour>
      <point x="20" y="0" type="line"/>
      <point x="166" y="-33"/>
      <point x="201" y="58"/>
      <point x="225" y="194" type="curve" smooth="yes"/>
      <point x="253" y="352"/>
      <point x="263" y="515"/>
      <point x="270" y="621" type="curve"/>
      <point x="540" y="621" type="line"/>
      <point x="540" y="0" type="line"/>
      <point x="645" y="0" type="line"/>
      <point x="645" y="720" type="line"/>
      <point x="172" y="720" type="line"/>
      <point x="166" y="586"/>
      <point x="155" y="398"/>
      <point x="127" y="236" type="curve" smooth="yes"/>
      <point x="105" y="110"/>
      <point x="87" y="84"/>
      <point x="20" y="89" type="curve"/>
    </contour>
  </outline>
</glyph>
<glyph name="Pe-cy" format="2">
  <advance width="713"/>
  <unicode hex="041F"/>
  <outline>
    <contour>
      <point x="70" y="0" type="line"/>
      <point x="175" y="0" type="line"/>
      <point x="175" y="621" type="line"/>
      <point x="538" y="621" type="line"/>
      <point x="538" y="0" type="line"/>
      <point x="643" y="0" type="line"/>
      <point x="643" y="720" type="line"/>
      <point x="70" y="720" type="line"/>
    </contour>
  </outline>
</glyph>
<glyph name="U-cy" format="2">
  <advance width="632"/>
  <unicode hex="0423"/>
  <outline>
    <contour>
      <point x="174" y="0" type="line"/>
      <point x="286" y="0" type="line"/>
      <point x="624" y="720" type="line"/>
      <point x="512" y="720" type="line"/>
      <point x="319" y="297" type="line"/>
      <point x="131" y="720" type="line"/>
      <point x="13" y="720" type="line"/>
      <point x="264" y="186" type="line"/>
    </contour>
  </outline>
</glyph>
<glyph name="Ef-cy" format="2">
  <advance width="729"/>
  <unicode hex="0424"/>
  <outline>
    <contour>
      <point x="312" y="0" type="line"/>
      <point x="416" y="0" type="line"/>
      <point x="416" y="100" type="line"/>
      <point x="564" y="75"/>
      <point x="699" y="178"/>
      <point x="699" y="381" type="curve" smooth="yes"/>
      <point x="699" y="584"/>
      <point x="564" y="690"/>
      <point x="416" y="665" type="curve"/>
      <point x="416" y="720" type="line"/>
      <point x="312" y="720" type="line"/>
      <point x="312" y="665" type="line"/>
      <point x="164" y="690"/>
      <point x="30" y="584"/>
      <point x="30" y="381" type="curve" smooth="yes"/>
      <point x="30" y="178"/>
      <point x="164" y="75"/>
      <point x="312" y="100" type="curve"/>
    </contour>
    <contour>
      <point x="312" y="197" type="line"/>
      <point x="192" y="179"/>
      <point x="137" y="271"/>
      <point x="137" y="381" type="curve" smooth="yes"/>
      <point x="137" y="491"/>
      <point x="192" y="588"/>
      <point x="312" y="570" type="curve"/>
    </contour>
    <contour>
      <point x="416" y="197" type="curve"/>
      <point x="416" y="570" type="line"/>
      <point x="536" y="588"/>
      <point x="592" y="485"/>
      <point x="592" y="378" type="curve" smooth="yes"/>
      <point x="592" y="272"/>
      <point x="536" y="179"/>
    </contour>
  </outline>
</glyph>
<glyph name="Tse-cy" format="2">
  <advance width="739"/>
  <unicode hex="0426"/>
  <outline>
    <contour>
      <point x="624" y="-107" type="line"/>
      <point x="729" y="-107" type="line"/>
      <point x="729" y="94" type="line"/>
      <point x="650" y="94" type="line"/>
      <point x="650" y="707" type="line"/>
      <point x="545" y="707" type="line"/>
      <point x="545" y="94" type="line"/>
      <point x="175" y="94" type="line"/>
      <point x="175" y="720" type="line"/>
      <point x="70" y="720" type="line"/>
      <point x="70" y="0" type="line"/>
      <point x="624" y="0" type="line"/>
    </contour>
  </outline>
</glyph>
<glyph name="Che-cy" format="2">
  <advance width="666"/>
  <unicode hex="0427"/>
  <outline>
    <contour>
      <point x="491" y="0" type="line"/>
      <point x="596" y="0" type="line"/>
      <point x="596" y="720" type="line"/>
      <point x="491" y="720" type="line"/>
      <point x="491" y="344" type="line"/>
      <point x="506" y="404" type="line"/>
      <point x="481" y="373"/>
      <point x="421" y="342"/>
      <point x="340" y="342" type="curve" smooth="yes"/>
      <point x="199" y="342"/>
      <point x="176" y="439"/>
      <point x="176" y="550" type="curve" smooth="yes"/>
      <point x="176" y="720" type="line"/>
      <point x="70" y="720" type="line"/>
      <point x="70" y="517" type="line" smooth="yes"/>
      <point x="70" y="355"/>
      <point x="136" y="242"/>
      <point x="320" y="242" type="curve" smooth="yes"/>
      <point x="398" y="242"/>
      <point x="469" y="262"/>
      <point x="511" y="295" type="curve"/>
      <point x="491" y="326" type="line"/>
    </contour>
  </outline>
</glyph>
<glyph name="Sha-cy" format="2">
  <advance width="933"/>
  <unicode hex="0428"/>
  <outline>
    <contour>
      <point x="70" y="0" type="line"/>
      <point x="863" y="0" type="line"/>
      <point x="863" y="720" type="line"/>
      <point x="759" y="720" type="line"/>
      <point x="759" y="99" type="line"/>
      <point x="519" y="99" type="line"/>
      <point x="519" y="720" type="line"/>
      <point x="414" y="720" type="line"/>
      <point x="414" y="99" type="line"/>
      <point x="175" y="99" type="line"/>
      <point x="175" y="720" type="line"/>
      <point x="70" y="720" type="line"/>
    </contour>
  </outline>
</glyph>
<glyph name="Shcha-cy" format="2">
  <advance width="952"/>
  <unicode hex="0429"/>
  <outline>
    <contour>
      <point x="837" y="-107" type="line"/>
      <point x="942" y="-107" type="line"/>
      <point x="942" y="94" type="line"/>
      <point x="767" y="94" type="line"/>
      <point x="767" y="0" type="line"/>
      <point x="837" y="0" type="line"/>
    </contour>
    <component base="Sha-cy"/>
  </outline>
</glyph>
<glyph name="Hardsign-cy" format="2">
  <advance width="645"/>
  <unicode hex="042A"/>
  <outline>
    <contour>
      <point x="93" y="0" type="line"/>
      <point x="384" y="0" type="line" smooth="yes"/>
      <point x="398" y="0"/>
      <point x="421" y="1"/>
      <point x="440" y="4" type="curve" smooth="yes"/>
      <point x="560" y="23"/>
      <point x="620" y="114"/>
      <point x="620" y="231" type="curve" smooth="yes"/>
      <point x="620" y="347"/>
      <point x="560" y="439"/>
      <point x="440" y="457" type="curve" smooth="yes"/>
      <point x="421" y="460"/>
      <point x="398" y="461"/>
      <point x="384" y="461" type="curve" smooth="yes"/>
      <point x="198" y="461" type="line"/>
      <point x="198" y="720" type="line"/>
      <point x="-3" y="720" type="line"/>
      <point x="-3" y="636" type="line"/>
      <point x="93" y="636" type="line"/>
    </contour>
    <contour>
      <point x="198" y="99" type="line"/>
      <point x="198" y="363" type="line"/>
      <point x="380" y="363" type="line" smooth="yes"/>
      <point x="393" y="363"/>
      <point x="411" y="362"/>
      <point x="426" y="358" type="curve" smooth="yes"/>
      <point x="490" y="343"/>
      <point x="514" y="284"/>
      <point x="514" y="231" type="curve" smooth="yes"/>
      <point x="514" y="178"/>
      <point x="490" y="119"/>
      <point x="426" y="103" type="curve" smooth="yes"/>
      <point x="411" y="100"/>
      <point x="393" y="99"/>
      <point x="380" y="99" type="curve" smooth="yes"/>
    </contour>
  </outline>
</glyph>
<glyph name="Softsign-cy" format="2">
  <advance width="637"/>
  <unicode hex="042C"/>
  <outline>
    <contour>
      <point x="70" y="0" type="line"/>
      <point x="361" y="0" type="line" smooth="yes"/>
      <point x="375" y="0"/>
      <point x="398" y="1"/>
      <point x="416" y="4" type="curve" smooth="yes"/>
      <point x="537" y="23"/>
      <point x="597" y="114"/>
      <point x="597" y="231" type="curve" smooth="yes"/>
      <point x="597" y="347"/>
      <point x="536" y="439"/>
      <point x="416" y="457" type="curve" smooth="yes"/>
      <point x="398" y="460"/>
      <point x="374" y="461"/>
      <point x="361" y="461" type="curve" smooth="yes"/>
      <point x="175" y="461" type="line"/>
      <point x="175" y="720" type="line"/>
      <point x="70" y="720" type="line"/>
    </contour>
    <contour>
      <point x="175" y="99" type="line"/>
      <point x="175" y="363" type="line"/>
      <point x="357" y="363" type="line" smooth="yes"/>
      <point x="370" y="363"/>
      <point x="388" y="362"/>
      <point x="402" y="358" type="curve" smooth="yes"/>
      <point x="467" y="343"/>
      <point x="491" y="284"/>
      <point x="491" y="231" type="curve" smooth="yes"/>
      <point x="491" y="178"/>
      <point x="467" y="119"/>
      <point x="402" y="103" type="curve" smooth="yes"/>
      <point x="388" y="100"/>
      <point x="370" y="99"/>
      <point x="357" y="99" type="curve" smooth="yes"/>
    </contour>
  </outline>
</glyph>
<glyph name="Ereversed-cy" format="2">
  <advance width="714"/>
  <unicode hex="042D"/>
  <outline>
    <contour>
      <point x="350" y="-15" type="curve" smooth="yes"/>
      <point x="562" y="-15"/>
      <point x="686" y="150"/>
      <point x="684" y="360" type="curve" smooth="yes"/>
      <point x="682" y="584"/>
      <point x="559" y="735"/>
      <point x="350" y="735" type="curve" smooth="yes"/>
      <point x="183" y="735"/>
      <point x="66" y="645"/>
      <point x="30" y="487" type="curve"/>
      <point x="135" y="472" type="line"/>
      <point x="161" y="572"/>
      <point x="237" y="634"/>
      <point x="344" y="635" type="curve" smooth="yes"/>
      <point x="479" y="637"/>
      <point x="557" y="544"/>
      <point x="571" y="410" type="curve"/>
      <point x="312" y="410" type="line"/>
      <point x="312" y="311" type="line"/>
      <point x="570" y="311" type="line"/>
      <point x="566" y="258"/>
      <point x="553" y="209"/>
      <point x="519" y="165" type="curve" smooth="yes"/>
      <point x="479" y="110"/>
      <point x="414" y="85"/>
      <point x="344" y="84" type="curve" smooth="yes"/>
      <point x="242" y="83"/>
      <point x="166" y="145"/>
      <point x="138" y="239" type="curve"/>
      <point x="35" y="213" type="line"/>
      <point x="77" y="64"/>
      <point x="191" y="-15"/>
    </contour>
  </outline>
</glyph>
<glyph name="be-cy" format="2">
  <advance width="594"/>
  <unicode hex="0431"/>
  <outline>
    <contour>
      <point x="292" y="-16" type="curve" smooth="yes"/>
      <point x="449" y="-17"/>
      <point x="554" y="90"/>
      <point x="554" y="250" type="curve" smooth="yes"/>
      <point x="554" y="397"/>
      <point x="466" y="508"/>
      <point x="321" y="508" type="curve" smooth="yes"/>
      <point x="252" y="508"/>
      <point x="184" y="482"/>
      <point x="143" y="420" type="curve"/>
      <point x="148" y="489"/>
      <point x="174" y="551"/>
      <point x="224" y="582" type="curve" smooth="yes"/>
      <point x="294" y="627"/>
      <point x="430" y="624"/>
      <point x="504" y="642" type="curve"/>
      <point x="494" y="735" type="line"/>
      <point x="383" y="713"/>
      <point x="255" y="715"/>
      <point x="169" y="656" type="curve" smooth="yes"/>
      <point x="129" y="629"/>
      <point x="94" y="587"/>
      <point x="75" y="539" type="curve" smooth="yes"/>
      <point x="48" y="474"/>
      <point x="37" y="348"/>
      <point x="42" y="263" type="curve" smooth="yes"/>
      <point x="52" y="88"/>
      <point x="139" y="-14"/>
    </contour>
    <contour>
      <point x="298" y="83" type="curve" smooth="yes"/>
      <point x="204" y="83"/>
      <point x="153" y="143"/>
      <point x="153" y="246" type="curve" smooth="yes"/>
      <point x="153" y="347"/>
      <point x="204" y="409"/>
      <point x="298" y="409" type="curve" smooth="yes"/>
      <point x="390" y="409"/>
      <point x="443" y="347"/>
      <point x="443" y="246" type="curve" smooth="yes"/>
      <point x="443" y="147"/>
      <point x="393" y="83"/>
    </contour>
  </outline>
</glyph>
<glyph name="ve-cy" format="2">
  <advance width="552"/>
  <unicode hex="0432"/>
  <outline>
    <contour>
      <point x="70" y="0" type="line"/>
      <point x="331" y="0" type="line" smooth="yes"/>
      <point x="362" y="0"/>
      <point x="395" y="2"/>
      <point x="421" y="9" type="curve" smooth="yes"/>
      <point x="485" y="28"/>
      <point x="522" y="78"/>
      <point x="522" y="151" type="curve" smooth="yes"/>
      <point x="522" y="212"/>
      <point x="496" y="246"/>
      <point x="459" y="266" type="curve" smooth="yes"/>
      <point x="448" y="272"/>
      <point x="434" y="276"/>
      <point x="423" y="278" type="curve"/>
      <point x="434" y="282"/>
      <point x="447" y="290"/>
      <point x="458" y="300" type="curve" smooth="yes"/>
      <point x="481" y="320"/>
      <point x="495" y="349"/>
      <point x="495" y="393" type="curve" smooth="yes"/>
      <point x="495" y="468"/>
      <point x="451" y="514"/>
      <point x="396" y="530" type="curve" smooth="yes"/>
      <point x="372" y="536"/>
      <point x="339" y="540"/>
      <point x="308" y="540" type="curve" smooth="yes"/>
      <point x="70" y="540" type="line"/>
    </contour>
    <contour>
      <point x="176" y="83" type="line"/>
      <point x="176" y="228" type="line"/>
      <point x="319" y="228" type="line" smooth="yes"/>
      <point x="330" y="228"/>
      <point x="347" y="228"/>
      <point x="361" y="223" type="curve" smooth="yes"/>
      <point x="392" y="216"/>
      <point x="414" y="193"/>
      <point x="414" y="155" type="curve" smooth="yes"/>
      <point x="414" y="127"/>
      <point x="402" y="99"/>
      <point x="372" y="90" type="curve" smooth="yes"/>
      <point x="358" y="85"/>
      <point x="338" y="83"/>
      <point x="324" y="83" type="curve" smooth="yes"/>
    </contour>
    <contour>
      <point x="176" y="312" type="line"/>
      <point x="176" y="456" type="line"/>
      <point x="288" y="456" type="line" smooth="yes"/>
      <point x="295" y="456"/>
      <point x="325" y="456"/>
      <point x="345" y="449" type="curve" smooth="yes"/>
      <point x="373" y="440"/>
      <point x="387" y="414"/>
      <point x="387" y="384" type="curve" smooth="yes"/>
      <point x="387" y="355"/>
      <point x="374" y="330"/>
      <point x="349" y="320" type="curve" smooth="yes"/>
      <point x="334" y="314"/>
      <point x="312" y="312"/>
      <point x="293" y="312" type="curve" smooth="yes"/>
    </contour>
  </outline>
</glyph>
<glyph name="de-cy" format="2">
  <advance width="622"/>
  <unicode hex="0434"/>
  <outline>
    <contour>
      <point x="30" y="-120" type="line"/>
      <point x="129" y="-120" type="line"/>
      <point x="129" y="0" type="line"/>
      <point x="492" y="0" type="line"/>
      <point x="492" y="-120" type="line"/>
      <point x="592" y="-120" type="line"/>
      <point x="592" y="84" type="line"/>
      <point x="538" y="84" type="line"/>
      <point x="538" y="540" type="line"/>
      <point x="151" y="540" type="line"/>
      <point x="145" y="402"/>
      <point x="139" y="302"/>
      <point x="124" y="215" type="curve" smooth="yes"/>
      <point x="109" y="120"/>
      <point x="89" y="84"/>
      <point x="30" y="84" type="curve"/>
    </contour>
    <contour>
      <point x="179" y="84" type="line"/>
      <point x="204" y="109"/>
      <point x="213" y="142"/>
      <point x="221" y="196" type="curve" smooth="yes"/>
      <point x="233" y="263"/>
      <point x="240" y="369"/>
      <point x="244" y="456" type="curve"/>
      <point x="434" y="456" type="line"/>
      <point x="434" y="84" type="line"/>
    </contour>
  </outline>
</glyph>
<glyph name="ze-cy" format="2">
  <advance width="516"/>
  <unicode hex="0437"/>
  <outline>
    <contour>
      <point x="263" y="-15" type="curve" smooth="yes"/>
      <point x="380" y="-15"/>
      <point x="476" y="47"/>
      <point x="476" y="157" type="curve" smooth="yes"/>
      <point x="476" y="219"/>
      <point x="444" y="277"/>
      <point x="384" y="296" type="curve"/>
      <point x="386" y="261" type="line"/>
      <point x="436" y="297"/>
      <point x="460" y="341"/>
      <point x="460" y="396" type="curve" smooth="yes"/>
      <point x="460" y="499"/>
      <point x="370" y="555"/>
      <point x="266" y="555" type="curve" smooth="yes"/>
      <point x="181" y="555"/>
      <point x="106" y="522"/>
      <point x="48" y="467" type="curve"/>
      <point x="109" y="396" type="line"/>
      <point x="149" y="430"/>
      <point x="204" y="457"/>
      <point x="260" y="457" type="curve" smooth="yes"/>
      <point x="310" y="457"/>
      <point x="352" y="436"/>
      <point x="352" y="387" type="curve" smooth="yes"/>
      <point x="352" y="335"/>
      <point x="305" y="321"/>
      <point x="239" y="321" type="curve" smooth="yes"/>
      <point x="192" y="321" type="line"/>
      <point x="192" y="236" type="line"/>
      <point x="240" y="236" type="line" smooth="yes"/>
      <point x="314" y="236"/>
      <point x="369" y="228"/>
      <point x="369" y="167" type="curve" smooth="yes"/>
      <point x="369" y="116"/>
      <point x="327" y="84"/>
      <point x="260" y="84" type="curve" smooth="yes"/>
      <point x="196" y="84"/>
      <point x="145" y="113"/>
      <point x="106" y="166" type="curve"/>
      <point x="23" y="111" type="line"/>
      <point x="71" y="32"/>
      <point x="158" y="-15"/>
    </contour>
  </outline>
</glyph>
<glyph name="ii-cy" format="2">
  <advance width="596"/>
  <unicode hex="0438"/>
  <outline>
    <contour>
      <point x="526" y="540" type="line"/>
      <point x="441" y="540" type="line"/>
      <point x="171" y="172" type="line"/>
      <point x="171" y="540" type="line"/>
      <point x="70" y="540" type="line"/>
      <point x="70" y="0" type="line"/>
      <point x="155" y="0" type="line"/>
      <point x="425" y="375" type="line"/>
      <point x="425" y="0" type="line"/>
      <point x="526" y="0" type="line"/>
    </contour>
  </outline>
</glyph>
<glyph name="ka-cy" format="2">
  <advance width="525"/>
  <unicode hex="043A"/>
  <outline>
    <contour>
      <point x="70" y="0" type="line"/>
      <point x="177" y="0" type="line"/>
      <point x="177" y="260" type="line"/>
      <point x="403" y="0" type="line"/>
      <point x="545" y="0" type="line"/>
      <point x="298" y="270" type="line"/>
      <point x="522" y="540" type="line"/>
      <point x="389" y="540" type="line"/>
      <point x="177" y="280" type="line"/>
      <point x="177" y="540" type="line"/>
      <point x="71" y="540" type="line"/>
    </contour>
  </outline>
</glyph>
<glyph name="el-cy" format="2">
  <advance width="595"/>
  <unicode hex="043B"/>
  <outline>
    <contour>
      <point x="20" y="0" type="line"/>
      <point x="136" y="-25"/>
      <point x="176" y="15"/>
      <point x="197" y="123" type="curve" smooth="yes"/>
      <point x="211" y="196"/>
      <point x="223" y="336"/>
      <point x="231" y="441" type="curve"/>
      <point x="421" y="441" type="line"/>
      <point x="421" y="0" type="line"/>
      <point x="525" y="0" type="line"/>
      <point x="525" y="540" type="line"/>
      <point x="138" y="540" type="line"/>
      <point x="129" y="391"/>
      <point x="119" y="259"/>
      <point x="103" y="167" type="curve" smooth="yes"/>
      <point x="92" y="105"/>
      <point x="80" y="78"/>
      <point x="20" y="89" type="curve"/>
    </contour>
  </outline>
</glyph>
<glyph name="ef-cy" format="2">
  <advance width="742"/>
  <unicode hex="0444"/>
  <outline>
    <contour>
      <point x="324" y="-225" type="line"/>
      <point x="418" y="-225" type="line"/>
      <point x="418" y="-10" type="line"/>
      <point x="576" y="-35"/>
      <point x="702" y="71"/>
      <point x="702" y="270" type="curve" smooth="yes"/>
      <point x="702" y="469"/>
      <point x="576" y="575"/>
      <point x="418" y="550" type="curve"/>
      <point x="418" y="713" type="line"/>
      <point x="324" y="713" type="line"/>
      <point x="324" y="550" type="line"/>
      <point x="166" y="575"/>
      <point x="40" y="469"/>
      <point x="40" y="270" type="curve" smooth="yes"/>
      <point x="40" y="71"/>
      <point x="166" y="-35"/>
      <point x="324" y="-10" type="curve"/>
    </contour>
    <contour>
      <point x="324" y="85" type="line"/>
      <point x="219" y="68"/>
      <point x="147" y="136"/>
      <point x="147" y="270" type="curve" smooth="yes"/>
      <point x="147" y="403"/>
      <point x="216" y="472"/>
      <point x="324" y="454" type="curve"/>
    </contour>
    <contour>
      <point x="418" y="85" type="curve"/>
      <point x="418" y="454" type="line"/>
      <point x="526" y="472"/>
      <point x="595" y="405"/>
      <point x="595" y="270" type="curve" smooth="yes"/>
      <point x="595" y="134"/>
      <point x="523" y="68"/>
    </contour>
  </outline>
</glyph>
<glyph name="tse-cy" format="2">
  <advance width="641"/>
  <unicode hex="0446"/>
  <outline>
    <contour>
      <point x="527" y="-107" type="line"/>
      <point x="631" y="-107" type="line"/>
      <point x="631" y="94" type="line"/>
      <point x="526" y="94" type="line"/>
      <point x="526" y="540" type="line"/>
      <point x="421" y="540" type="line"/>
      <point x="421" y="99" type="line"/>
      <point x="175" y="99" type="line"/>
      <point x="175" y="540" type="line"/>
      <point x="70" y="540" type="line"/>
      <point x="70" y="0" type="line"/>
      <point x="527" y="0" type="line"/>
    </contour>
  </outline>
</glyph>
<glyph name="che-cy" format="2">
  <advance width="565"/>
  <unicode hex="0447"/>
  <outline>
    <contour>
      <point x="390" y="0" type="line"/>
      <point x="495" y="0" type="line"/>
      <point x="495" y="540" type="line"/>
      <point x="390" y="540" type="line"/>
      <point x="390" y="284" type="line"/>
      <point x="362" y="263"/>
      <point x="321" y="249"/>
      <point x="271" y="249" type="curve" smooth="yes"/>
      <point x="201" y="249"/>
      <point x="165" y="277"/>
      <point x="152" y="337" type="curve" smooth="yes"/>
      <point x="146" y="364"/>
      <point x="146" y="395"/>
      <point x="146" y="413" type="curve" smooth="yes"/>
      <point x="146" y="540" type="line"/>
      <point x="40" y="540" type="line"/>
      <point x="40" y="413" type="line" smooth="yes"/>
      <point x="40" y="395"/>
      <point x="40" y="343"/>
      <point x="49" y="302" type="curve" smooth="yes"/>
      <point x="68" y="208"/>
      <point x="136" y="157"/>
      <point x="247" y="157" type="curve" smooth="yes"/>
      <point x="302" y="157"/>
      <point x="353" y="169"/>
      <point x="390" y="188" type="curve"/>
    </contour>
  </outline>
</glyph>
<glyph name="sha-cy" format="2">
  <advance width="780"/>
  <unicode hex="0448"/>
  <outline>
    <contour>
      <point x="70" y="0" type="line"/>
      <point x="710" y="0" type="line"/>
      <point x="710" y="540" type="line"/>
      <point x="610" y="540" type="line"/>
      <point x="610" y="94" type="line"/>
      <point x="441" y="94" type="line"/>
      <point x="441" y="540" type="line"/>
      <point x="340" y="540" type="line"/>
      <point x="340" y="94" type="line"/>
      <point x="171" y="94" type="line"/>
      <point x="171" y="540" type="line"/>
      <point x="70" y="540" type="line"/>
    </contour>
  </outline>
</glyph>
<glyph name="shcha-cy" format="2">
  <advance width="769"/>
  <unicode hex="0449"/>
  <outline>
    <contour>
      <point x="654" y="-107" type="line"/>
      <point x="759" y="-107" type="line"/>
      <point x="759" y="94" type="line"/>
      <point x="710" y="94" type="line"/>
      <point x="710" y="540" type="line"/>
      <point x="610" y="540" type="line"/>
      <point x="610" y="94" type="line"/>
      <point x="441" y="94" type="line"/>
      <point x="441" y="540" type="line"/>
      <point x="340" y="540" type="line"/>
      <point x="340" y="94" type="line"/>
      <point x="171" y="94" type="line"/>
      <point x="171" y="540" type="line"/>
      <point x="70" y="540" type="line"/>
      <point x="70" y="0" type="line"/>
      <point x="654" y="0" type="line"/>
    </contour>
  </outline>
</glyph>
<glyph name="hardsign-cy" format="2">
  <advance width="585"/>
  <unicode hex="044A"/>
  <outline>
    <contour>
      <point x="97" y="0" type="line"/>
      <point x="312" y="0" type="line" smooth="yes"/>
      <point x="342" y="0"/>
      <point x="382" y="1"/>
      <point x="409" y="7" type="curve" smooth="yes"/>
      <point x="492" y="26"/>
      <point x="545" y="81"/>
      <point x="545" y="176" type="curve" smooth="yes"/>
      <point x="545" y="276"/>
      <point x="490" y="329"/>
      <point x="403" y="347" type="curve" smooth="yes"/>
      <point x="378" y="351"/>
      <point x="339" y="352"/>
      <point x="308" y="352" type="curve" smooth="yes"/>
      <point x="202" y="352" type="line"/>
      <point x="202" y="540" type="line"/>
      <point x="20" y="540" type="line"/>
      <point x="20" y="456" type="line"/>
      <point x="97" y="456" type="line"/>
    </contour>
    <contour>
      <point x="202" y="84" type="line"/>
      <point x="202" y="268" type="line"/>
      <point x="318" y="268" type="line" smooth="yes"/>
      <point x="334" y="268"/>
      <point x="354" y="267"/>
      <point x="372" y="263" type="curve" smooth="yes"/>
      <point x="409" y="254"/>
      <point x="438" y="225"/>
      <point x="438" y="176" type="curve" smooth="yes"/>
      <point x="438" y="127"/>
      <point x="408" y="99"/>
      <point x="376" y="90" type="curve" smooth="yes"/>
      <point x="358" y="85"/>
      <point x="335" y="84"/>
      <point x="318" y="84" type="curve" smooth="yes"/>
    </contour>
  </outline>
</glyph>
<glyph name="yeru-cy" format="2">
  <advance width="717"/>
  <unicode hex="044B"/>
  <outline>
    <contour>
      <point x="70" y="0" type="line"/>
      <point x="250" y="0" type="line" smooth="yes"/>
      <point x="280" y="0"/>
      <point x="320" y="1"/>
      <point x="347" y="7" type="curve" smooth="yes"/>
      <point x="430" y="26"/>
      <point x="483" y="81"/>
      <point x="483" y="176" type="curve" smooth="yes"/>
      <point x="483" y="276"/>
      <point x="428" y="328"/>
      <point x="341" y="347" type="curve" smooth="yes"/>
      <point x="316" y="351"/>
      <point x="277" y="352"/>
      <point x="246" y="352" type="curve" smooth="yes"/>
      <point x="175" y="352" type="line"/>
      <point x="175" y="540" type="line"/>
      <point x="70" y="540" type="line"/>
    </contour>
    <contour>
      <point x="175" y="84" type="line"/>
      <point x="175" y="268" type="line"/>
      <point x="256" y="268" type="line" smooth="yes"/>
      <point x="272" y="268"/>
      <point x="292" y="267"/>
      <point x="310" y="263" type="curve" smooth="yes"/>
      <point x="347" y="254"/>
      <point x="376" y="225"/>
      <point x="376" y="176" type="curve" smooth="yes"/>
      <point x="376" y="127"/>
      <point x="346" y="99"/>
      <point x="314" y="90" type="curve" smooth="yes"/>
      <point x="296" y="85"/>
      <point x="273" y="84"/>
      <point x="256" y="84" type="curve" smooth="yes"/>
    </contour>
    <component base="idotless" xOffset="462"/>
  </outline>
</glyph>
<glyph name="softsign-cy" format="2">
  <advance width="558"/>
  <unicode hex="044C"/>
  <outline>
    <contour>
      <point x="70" y="0" type="line"/>
      <point x="285" y="0" type="line" smooth="yes"/>
      <point x="315" y="0"/>
      <point x="356" y="1"/>
      <point x="382" y="7" type="curve" smooth="yes"/>
      <point x="466" y="26"/>
      <point x="518" y="81"/>
      <point x="518" y="176" type="curve" smooth="yes"/>
      <point x="518" y="276"/>
      <point x="463" y="329"/>
      <point x="376" y="347" type="curve" smooth="yes"/>
      <point x="351" y="351"/>
      <point x="312" y="352"/>
      <point x="282" y="352" type="curve" smooth="yes"/>
      <point x="175" y="352" type="line"/>
      <point x="175" y="540" type="line"/>
      <point x="70" y="540" type="line"/>
    </contour>
    <contour>
      <point x="175" y="84" type="line"/>
      <point x="175" y="268" type="line"/>
      <point x="291" y="268" type="line" smooth="yes"/>
      <point x="307" y="268"/>
      <point x="327" y="267"/>
      <point x="345" y="263" type="curve" smooth="yes"/>
      <point x="383" y="254"/>
      <point x="411" y="225"/>
      <point x="411" y="176" type="curve" smooth="yes"/>
      <point x="411" y="127"/>
      <point x="381" y="99"/>
      <point x="349" y="90" type="curve" smooth="yes"/>
      <point x="331" y="85"/>
      <point x="308" y="84"/>
      <point x="291" y="84" type="curve" smooth="yes"/>
    </contour>
  </outline>
</glyph>
<glyph name="ereversed-cy" format="2">
  <advance width="569"/>
  <unicode hex="044D"/>
  <outline>
    <contour>
      <point x="268" y="-15" type="curve" smooth="yes"/>
      <point x="432" y="-15"/>
      <point x="529" y="104"/>
      <point x="529" y="269" type="curve" smooth="yes"/>
      <point x="529" y="437"/>
      <point x="430" y="555"/>
      <point x="268" y="555" type="curve" smooth="yes"/>
      <point x="148" y="555"/>
      <point x="59" y="492"/>
      <point x="32" y="390" type="curve"/>
      <point x="136" y="361" type="line"/>
      <point x="158" y="422"/>
      <point x="208" y="456"/>
      <point x="271" y="456" type="curve" smooth="yes"/>
      <point x="357" y="456"/>
      <point x="404" y="396"/>
      <point x="414" y="312" type="curve"/>
      <point x="214" y="312" type="line"/>
      <point x="214" y="228" type="line"/>
      <point x="414" y="228" type="line"/>
      <point x="403" y="140"/>
      <point x="354" y="84"/>
      <point x="268" y="84" type="curve" smooth="yes"/>
      <point x="201" y="84"/>
      <point x="160" y="115"/>
      <point x="139" y="174" type="curve"/>
      <point x="32" y="148" type="line"/>
      <point x="68" y="43"/>
      <point x="152" y="-15"/>
    </contour>
  </outline>
</glyph>
<glyph name="iu-cy" format="2">
  <advance width="832"/>
  <unicode hex="044E"/>
  <outline>
    <contour>
      <point x="527" y="-15" type="curve" smooth="yes"/>
      <point x="687" y="-15"/>
      <point x="792" y="102"/>
      <point x="792" y="271" type="curve" smooth="yes"/>
      <point x="792" y="436"/>
      <point x="689" y="555"/>
      <point x="528" y="555" type="curve" smooth="yes"/>
      <point x="394" y="555"/>
      <point x="298" y="469"/>
      <point x="280" y="322" type="curve"/>
      <point x="175" y="322" type="line"/>
      <point x="175" y="540" type="line"/>
      <point x="70" y="540" type="line"/>
      <point x="70" y="0" type="line"/>
      <point x="175" y="0" type="line"/>
      <point x="175" y="218" type="line"/>
      <point x="280" y="218" type="line"/>
      <point x="298" y="73"/>
      <point x="393" y="-15"/>
    </contour>
    <contour>
      <point x="525" y="84" type="curve" smooth="yes"/>
      <point x="426" y="84"/>
      <point x="373" y="157"/>
      <point x="373" y="271" type="curve" smooth="yes"/>
      <point x="373" y="384"/>
      <point x="425" y="456"/>
      <point x="526" y="456" type="curve" smooth="yes"/>
      <point x="629" y="456"/>
      <point x="681" y="384"/>
      <point x="681" y="270" type="curve" smooth="yes"/>
      <point x="681" y="159"/>
      <point x="630" y="84"/>
    </contour>
  </outline>
</glyph>
<glyph name="ia-cy" format="2">
  <advance width="573"/>
  <unicode hex="044F"/>
  <outline>
    <contour>
      <point x="398" y="0" type="line"/>
      <point x="503" y="0" type="line"/>
      <point x="503" y="540" type="line"/>
      <point x="288" y="540" type="line" smooth="yes"/>
      <point x="264" y="540"/>
      <point x="225" y="540"/>
      <point x="191" y="533" type="curve" smooth="yes"/>
      <point x="112" y="516"/>
      <point x="55" y="457"/>
      <point x="55" y="362" type="curve" smooth="yes"/>
      <point x="55" y="265"/>
      <point x="116" y="209"/>
      <point x="197" y="194" type="curve" smooth="yes"/>
      <point x="227" y="189"/>
      <point x="266" y="188"/>
      <point x="292" y="188" type="curve" smooth="yes"/>
      <point x="398" y="188" type="line"/>
    </contour>
    <contour>
      <point x="40" y="0" type="line"/>
      <point x="151" y="0" type="line"/>
      <point x="287" y="213" type="line"/>
      <point x="176" y="213" type="line"/>
    </contour>
    <contour>
      <point x="282" y="272" type="line" smooth="yes"/>
      <point x="268" y="272"/>
      <point x="248" y="272"/>
      <point x="229" y="277" type="curve" smooth="yes"/>
      <point x="192" y="287"/>
      <point x="162" y="317"/>
      <point x="162" y="363" type="curve" smooth="yes"/>
      <point x="162" y="410"/>
      <point x="194" y="441"/>
      <point x="224" y="450" type="curve" smooth="yes"/>
      <point x="244" y="455"/>
      <point x="268" y="456"/>
      <point x="282" y="456" type="curve" smooth="yes"/>
      <point x="398" y="456" type="line"/>
      <point x="398" y="272" type="line"/>
    </contour>
  </outline>
</glyph>
<glyph name="dje-cy" format="2">
  <advance width="615"/>
  <unicode hex="0452"/>
  <outline>
    <contour>
      <point x="467" y="-215" type="curve" smooth="yes"/>
      <point x="524" y="-203"/>
      <point x="555" y="-161"/>
      <point x="555" y="-90" type="curve" smooth="yes"/>
      <point x="555" y="300" type="line" smooth="yes"/>
      <point x="555" y="383"/>
      <point x="528" y="555"/>
      <point x="341" y="555" type="curve" smooth="yes"/>
      <point x="264" y="555"/>
      <point x="202" y="526"/>
      <point x="163" y="474" type="curve"/>
      <point x="163" y="587" type="line"/>
      <point x="273" y="587" type="line"/>
      <point x="273" y="670" type="line"/>
      <point x="163" y="670" type="line"/>
      <point x="163" y="720" type="line"/>
      <point x="70" y="720" type="line"/>
      <point x="70" y="670" type="line"/>
      <point x="12" y="670" type="line"/>
      <point x="12" y="587" type="line"/>
      <point x="70" y="587" type="line"/>
      <point x="70" y="0" type="line"/>
      <point x="175" y="0" type="line"/>
      <point x="175" y="281" type="line" smooth="yes"/>
      <point x="175" y="409"/>
      <point x="237" y="456"/>
      <point x="313" y="456" type="curve" smooth="yes"/>
      <point x="427" y="456"/>
      <point x="449" y="349"/>
      <point x="449" y="265" type="curve" smooth="yes"/>
      <point x="449" y="-62" type="line" smooth="yes"/>
      <point x="449" y="-140"/>
      <point x="405" y="-138"/>
      <point x="363" y="-134" type="curve"/>
      <point x="363" y="-211" type="line"/>
      <point x="386" y="-217"/>
      <point x="430" y="-224"/>
    </contour>
  </outline>
</glyph>
<glyph name="lje-cy" format="2">
  <advance width="850"/>
  <unicode hex="0459"/>
  <outline>
    <contour>
      <point x="20" y="0" type="line"/>
      <point x="136" y="-25"/>
      <point x="176" y="15"/>
      <point x="197" y="123" type="curve" smooth="yes"/>
      <point x="211" y="196"/>
      <point x="223" y="336"/>
      <point x="231" y="441" type="curve"/>
      <point x="397" y="441" type="line"/>
      <point x="397" y="0" type="line"/>
      <point x="577" y="0" type="line" smooth="yes"/>
      <point x="599" y="0"/>
      <point x="640" y="0"/>
      <point x="674" y="7" type="curve" smooth="yes"/>
      <point x="753" y="23"/>
      <point x="810" y="80"/>
      <point x="810" y="177" type="curve" smooth="yes"/>
      <point x="810" y="278"/>
      <point x="748" y="332"/>
      <point x="668" y="347" type="curve" smooth="yes"/>
      <point x="637" y="352"/>
      <point x="606" y="352"/>
      <point x="573" y="352" type="curve" smooth="yes"/>
      <point x="502" y="352" type="line"/>
      <point x="502" y="540" type="line"/>
      <point x="138" y="540" type="line"/>
      <point x="129" y="391"/>
      <point x="119" y="259"/>
      <point x="103" y="167" type="curve" smooth="yes"/>
      <point x="91" y="105"/>
      <point x="80" y="78"/>
      <point x="20" y="89" type="curve"/>
    </contour>
    <contour>
      <point x="502" y="84" type="line"/>
      <point x="502" y="268" type="line"/>
      <point x="583" y="268" type="line" smooth="yes"/>
      <point x="595" y="268"/>
      <point x="617" y="268"/>
      <point x="637" y="263" type="curve" smooth="yes"/>
      <point x="674" y="254"/>
      <point x="703" y="226"/>
      <point x="703" y="177" type="curve" smooth="yes"/>
      <point x="703" y="127"/>
      <point x="672" y="98"/>
      <point x="641" y="90" type="curve" smooth="yes"/>
      <point x="622" y="85"/>
      <point x="601" y="84"/>
      <point x="583" y="84" type="curve" smooth="yes"/>
    </contour>
  </outline>
</glyph>
<glyph name="nje-cy" format="2">
  <advance width="825"/>
  <unicode hex="045A"/>
  <outline>
    <contour>
      <point x="70" y="0" type="line"/>
      <point x="175" y="0" type="line"/>
      <point x="175" y="268" type="line"/>
      <point x="373" y="268" type="line"/>
      <point x="373" y="0" type="line"/>
      <point x="552" y="0" type="line" smooth="yes"/>
      <point x="575" y="0"/>
      <point x="615" y="0"/>
      <point x="650" y="7" type="curve" smooth="yes"/>
      <point x="729" y="23"/>
      <point x="785" y="80"/>
      <point x="785" y="177" type="curve" smooth="yes"/>
      <point x="785" y="278"/>
      <point x="724" y="332"/>
      <point x="643" y="347" type="curve" smooth="yes"/>
      <point x="613" y="352"/>
      <point x="582" y="352"/>
      <point x="549" y="352" type="curve" smooth="yes"/>
      <point x="478" y="352" type="line"/>
      <point x="478" y="540" type="line"/>
      <point x="373" y="540" type="line"/>
      <point x="373" y="352" type="line"/>
      <point x="175" y="352" type="line"/>
      <point x="175" y="540" type="line"/>
      <point x="70" y="540" type="line"/>
    </contour>
    <contour>
      <point x="478" y="84" type="line"/>
      <point x="478" y="268" type="line"/>
      <point x="558" y="268" type="line" smooth="yes"/>
      <point x="571" y="268"/>
      <point x="593" y="268"/>
      <point x="612" y="263" type="curve" smooth="yes"/>
      <point x="649" y="254"/>
      <point x="678" y="226"/>
      <point x="678" y="177" type="curve" smooth="yes"/>
      <point x="678" y="127"/>
      <point x="648" y="98"/>
      <point x="617" y="90" type="curve" smooth="yes"/>
      <point x="598" y="85"/>
      <point x="577" y="84"/>
      <point x="558" y="84" type="curve" smooth="yes"/>
    </contour>
  </outline>
</glyph>
<glyph name="Gheupturn-cy" format="2">
  <advance width="550"/>
  <unicode hex="0490"/>
  <outline>
    <contour>
      <point x="70" y="0" type="line"/>
      <point x="175" y="0" type="line"/>
      <point x="175" y="621" type="line"/>
      <point x="540" y="621" type="line"/>
      <point x="540" y="827" type="line"/>
      <point x="435" y="827" type="line"/>
      <point x="435" y="720" type="line"/>
      <point x="70" y="720" type="line"/>
    </contour>
  </outline>
</glyph>
<glyph name="gheupturn-cy" format="2">
  <advance width="475"/>
  <unicode hex="0491"/>
  <outline>
    <contour>
      <point x="70" y="0" type="line"/>
      <point x="175" y="0" type="line"/>
      <point x="175" y="441" type="line"/>
      <point x="450" y="441" type="line"/>
      <point x="450" y="647" type="line"/>
      <point x="345" y="647" type="line"/>
      <point x="345" y="540" type="line"/>
      <point x="70" y="540" type="line"/>
    </contour>
  </outline>
</glyph>
<glyph name="ustrait-cy" format="2">
  <advance width="538"/>
  <unicode hex="04AF"/>
  <outline>
    <contour>
      <point x="216" y="-180" type="line"/>
      <point x="322" y="-180" type="line"/>
      <point x="322" y="0" type="line"/>
      <point x="518" y="540" type="line"/>
      <point x="413" y="540" type="line"/>
      <point x="269" y="131" type="line"/>
      <point x="126" y="540" type="line"/>
      <point x="20" y="540" type="line"/>
      <point x="216" y="0" type="line"/>
    </contour>
  </outline>
</glyph>
<glyph name="obarred-cy" format="2">
  <advance width="609"/>
  <unicode hex="04E9"/>
  <outline>
    <contour>
      <point x="93" y="228" type="line"/>
      <point x="519" y="228" type="line"/>
      <point x="519" y="312" type="line"/>
      <point x="93" y="312" type="line"/>
    </contour>
    <component base="o"/>
  </outline>
</glyph>
<glyph name="Germandbls" format="2">
  <advance width="623"/>
  <unicode hex="1E9E"/>
  <outline>
    <contour>
      <point x="336" y="-15" type="curve" smooth="yes"/>
      <point x="484" y="-15"/>
      <point x="563" y="75"/>
      <point x="563" y="212" type="curve" smooth="yes"/>
      <point x="563" y="339"/>
      <point x="485" y="414"/>
      <point x="383" y="423" type="curve"/>
      <point x="507" y="555" type="line"/>
      <point x="490" y="661"/>
      <point x="409" y="735"/>
      <point x="291" y="735" type="curve" smooth="yes"/>
      <point x="187" y="735"/>
      <point x="118" y="688"/>
      <point x="87" y="601" type="curve" smooth="yes"/>
      <point x="74" y="566"/>
      <point x="70" y="522"/>
      <point x="70" y="477" type="curve" smooth="yes"/>
      <point x="70" y="0" type="line"/>
      <point x="177" y="0" type="line"/>
      <point x="177" y="472" type="line" smooth="yes"/>
      <point x="177" y="513"/>
      <point x="179" y="546"/>
      <point x="193" y="574" type="curve" smooth="yes"/>
      <point x="214" y="615"/>
      <point x="251" y="636"/>
      <point x="291" y="636" type="curve" smooth="yes"/>
      <point x="345" y="636"/>
      <point x="384" y="608"/>
      <point x="397" y="561" type="curve"/>
      <point x="260" y="412" type="line"/>
      <point x="291" y="326" type="line"/>
      <point x="393" y="350"/>
      <point x="455" y="287"/>
      <point x="455" y="216" type="curve" smooth="yes"/>
      <point x="455" y="133"/>
      <point x="406" y="88"/>
      <point x="324" y="88" type="curve" smooth="yes"/>
      <point x="292" y="88"/>
      <point x="265" y="95"/>
      <point x="242" y="103" type="curve"/>
      <point x="242" y="0" type="line"/>
      <point x="267" y="-10"/>
      <point x="294" y="-15"/>
    </contour>
  </outline>
</glyph>
<glyph name="fraction" format="2">
  <advance width="243"/>
  <unicode hex="2044"/>
  <outline>
    <contour>
      <point x="-98" y="0" type="line"/>
      <point x="405" y="676" type="line"/>
      <point x="342" y="725" type="line"/>
      <point x="-162" y="48" type="line"/>
    </contour>
  </outline>
</glyph>
<glyph name="zerosuperior" format="2">
  <advance width="461"/>
  <unicode hex="2070"/>
  <outline>
    <contour>
      <point x="230" y="259" type="curve" smooth="yes"/>
      <point x="329" y="259"/>
      <point x="391" y="324"/>
      <point x="391" y="426" type="curve" smooth="yes"/>
      <point x="391" y="561" type="line" smooth="yes"/>
      <point x="391" y="664"/>
      <point x="326" y="729"/>
      <point x="230" y="729" type="curve" smooth="yes"/>
      <point x="134" y="729"/>
      <point x="70" y="662"/>
      <point x="70" y="561" type="curve" smooth="yes"/>
      <point x="70" y="426" type="line" smooth="yes"/>
      <point x="70" y="324"/>
      <point x="134" y="259"/>
    </contour>
    <contour>
      <point x="230" y="325" type="curve" smooth="yes"/>
      <point x="175" y="325"/>
      <point x="142" y="367"/>
      <point x="142" y="426" type="curve" smooth="yes"/>
      <point x="142" y="562" type="line" smooth="yes"/>
      <point x="142" y="623"/>
      <point x="177" y="662"/>
      <point x="230" y="662" type="curve" smooth="yes"/>
      <point x="285" y="662"/>
      <point x="319" y="621"/>
      <point x="319" y="562" type="curve" smooth="yes"/>
      <point x="319" y="426" type="line" smooth="yes"/>
      <point x="319" y="364"/>
      <point x="284" y="325"/>
    </contour>
  </outline>
</glyph>
<glyph name="foursuperior" format="2">
  <advance width="416"/>
  <unicode hex="2074"/>
  <outline>
    <contour>
      <point x="252" y="270" type="line"/>
      <point x="323" y="270" type="line"/>
      <point x="323" y="346" type="line"/>
      <point x="366" y="346" type="line"/>
      <point x="366" y="413" type="line"/>
      <point x="323" y="413" type="line"/>
      <point x="323" y="532" type="line"/>
      <point x="252" y="532" type="line"/>
      <point x="252" y="413" type="line"/>
      <point x="131" y="413" type="line"/>
      <point x="276" y="720" type="line"/>
      <point x="195" y="720" type="line"/>
      <point x="50" y="413" type="line"/>
      <point x="50" y="346" type="line"/>
      <point x="252" y="346" type="line"/>
    </contour>
  </outline>
</glyph>
<glyph name="fivesuperior" format="2">
  <advance width="403"/>
  <unicode hex="2075"/>
  <outline>
    <contour>
      <point x="196" y="260" type="curve" smooth="yes"/>
      <point x="281" y="260"/>
      <point x="353" y="327"/>
      <point x="353" y="411" type="curve" smooth="yes"/>
      <point x="353" y="496"/>
      <point x="292" y="559"/>
      <point x="208" y="559" type="curve" smooth="yes"/>
      <point x="175" y="559"/>
      <point x="141" y="546"/>
      <point x="117" y="522" type="curve"/>
      <point x="132" y="502" type="line"/>
      <point x="142" y="678" type="line"/>
      <point x="116" y="654" type="line"/>
      <point x="323" y="654" type="line"/>
      <point x="323" y="720" type="line"/>
      <point x="79" y="720" type="line"/>
      <point x="65" y="482" type="line"/>
      <point x="126" y="462" type="line"/>
      <point x="139" y="479"/>
      <point x="163" y="495"/>
      <point x="199" y="495" type="curve" smooth="yes"/>
      <point x="244" y="495"/>
      <point x="282" y="458"/>
      <point x="282" y="411" type="curve" smooth="yes"/>
      <point x="282" y="366"/>
      <point x="245" y="328"/>
      <point x="199" y="328" type="curve" smooth="yes"/>
      <point x="163" y="328"/>
      <point x="127" y="352"/>
      <point x="118" y="390" type="curve"/>
      <point x="50" y="372" type="line"/>
      <point x="69" y="306"/>
      <point x="127" y="260"/>
    </contour>
  </outline>
</glyph>
<glyph name="sixsuperior" format="2">
  <advance width="440"/>
  <unicode hex="2076"/>
  <outline>
    <contour>
      <point x="227" y="257" type="curve" smooth="yes"/>
      <point x="312" y="257"/>
      <point x="383" y="324"/>
      <point x="383" y="409" type="curve" smooth="yes"/>
      <point x="383" y="494"/>
      <point x="322" y="557"/>
      <point x="237" y="557" type="curve" smooth="yes"/>
      <point x="193" y="557"/>
      <point x="153" y="537"/>
      <point x="127" y="502" type="curve"/>
      <point x="143" y="485" type="line"/>
      <point x="143" y="570" type="line" smooth="yes"/>
      <point x="143" y="619"/>
      <point x="179" y="662"/>
      <point x="234" y="662" type="curve" smooth="yes"/>
      <point x="262" y="662"/>
      <point x="287" y="649"/>
      <point x="304" y="629" type="curve"/>
      <point x="356" y="678" type="line"/>
      <point x="324" y="712"/>
      <point x="281" y="729"/>
      <point x="234" y="729" type="curve" smooth="yes"/>
      <point x="136" y="729"/>
      <point x="70" y="663"/>
      <point x="70" y="561" type="curve" smooth="yes"/>
      <point x="70" y="419" type="line" smooth="yes"/>
      <point x="70" y="324"/>
      <point x="138" y="257"/>
    </contour>
    <contour>
      <point x="227" y="324" type="curve" smooth="yes"/>
      <point x="180" y="324"/>
      <point x="143" y="363"/>
      <point x="143" y="409" type="curve" smooth="yes"/>
      <point x="143" y="455"/>
      <point x="180" y="493"/>
      <point x="227" y="493" type="curve" smooth="yes"/>
      <point x="274" y="493"/>
      <point x="311" y="455"/>
      <point x="311" y="409" type="curve" smooth="yes"/>
      <point x="311" y="362"/>
      <point x="274" y="324"/>
    </contour>
  </outline>
</glyph>
<glyph name="eightsuperior" format="2">
  <advance width="427"/>
  <unicode hex="2078"/>
  <outline>
    <contour>
      <point x="213" y="257" type="curve" smooth="yes"/>
      <point x="302" y="257"/>
      <point x="367" y="315"/>
      <point x="367" y="399" type="curve" smooth="yes"/>
      <point x="367" y="451"/>
      <point x="341" y="498"/>
      <point x="292" y="522" type="curve"/>
      <point x="292" y="496" type="line"/>
      <point x="334" y="521"/>
      <point x="354" y="557"/>
      <point x="354" y="602" type="curve" smooth="yes"/>
      <point x="354" y="679"/>
      <point x="296" y="729"/>
      <point x="213" y="729" type="curve" smooth="yes"/>
      <point x="130" y="729"/>
      <point x="72" y="679"/>
      <point x="72" y="602" type="curve" smooth="yes"/>
      <point x="72" y="557"/>
      <point x="93" y="520"/>
      <point x="133" y="496" type="curve"/>
      <point x="134" y="522" type="line"/>
      <point x="85" y="497"/>
      <point x="60" y="451"/>
      <point x="60" y="399" type="curve" smooth="yes"/>
      <point x="60" y="315"/>
      <point x="124" y="257"/>
    </contour>
    <contour>
      <point x="213" y="324" type="curve" smooth="yes"/>
      <point x="167" y="324"/>
      <point x="135" y="350"/>
      <point x="135" y="399" type="curve" smooth="yes"/>
      <point x="135" y="448"/>
      <point x="166" y="475"/>
      <point x="213" y="475" type="curve" smooth="yes"/>
      <point x="260" y="475"/>
      <point x="291" y="448"/>
      <point x="291" y="399" type="curve" smooth="yes"/>
      <point x="291" y="350"/>
      <point x="259" y="324"/>
    </contour>
    <contour>
      <point x="213" y="542" type="curve" smooth="yes"/>
      <point x="174" y="542"/>
      <point x="147" y="562"/>
      <point x="147" y="602" type="curve" smooth="yes"/>
      <point x="147" y="642"/>
      <point x="174" y="662"/>
      <point x="213" y="662" type="curve" smooth="yes"/>
      <point x="253" y="662"/>
      <point x="279" y="642"/>
      <point x="279" y="602" type="curve" smooth="yes"/>
      <point x="279" y="562"/>
      <point x="253" y="542"/>
    </contour>
  </outline>
</glyph>
